<svg width="355" height="474" viewBox="0 0 355 474" fill="none" xmlns="http://www.w3.org/2000/svg">
<path d="M277.327 447.884C221.86 388.331 284.627 329.597 213.196 340.472C170.45 346.978 98.077 330.317 113.985 240.92C129.893 151.523 6.06295 187.852 0.90695 94.3939C-2.67305 29.4999 46.957 16.5157 78.984 30.7547C124.357 50.9277 123.249 78.114 180.221 25.182C199.563 7.21098 226.73 -3.76731 253.235 1.36069C272.3 5.04869 289.811 17.1916 298.917 34.3416C303.985 43.8816 306.412 54.5787 310.517 64.5687C314.622 74.5587 321.036 84.3787 330.958 88.6507C338.479 91.8877 346.952 91.4778 354.998 89.4598V471.427C348.841 472.522 342.601 473.084 336.347 473.106C314.808 473.108 294.14 465.937 277.327 447.884Z" fill="url(#paint0_linear_2_349)"/>
<defs>
<linearGradient id="paint0_linear_2_349" x1="223.562" y1="20.4361" x2="143.758" y2="153.356" gradientUnits="userSpaceOnUse">
<stop stop-color="#FEE00A"/>
<stop offset="1" stop-color="#CE286F"/>
</linearGradient>
</defs>
</svg>
