<svg width="114" height="41" viewBox="0 0 114 41" fill="none" xmlns="http://www.w3.org/2000/svg">
<path d="M110 0.708984H4C1.79086 0.708984 0 2.49985 0 4.70898V36.709C0 38.9181 1.79086 40.709 4 40.709H110C112.209 40.709 114 38.9181 114 36.709V4.70898C114 2.49985 112.209 0.708984 110 0.708984Z" fill="#FCFCFC"/>
<path d="M110 1.20898H4C2.067 1.20898 0.5 2.77599 0.5 4.70898V36.709C0.5 38.642 2.067 40.209 4 40.209H110C111.933 40.209 113.5 38.642 113.5 36.709V4.70898C113.5 2.77599 111.933 1.20898 110 1.20898Z" stroke="#D7DAE2"/>
</svg>
