<svg width="1057" height="739" viewBox="0 0 1057 739" fill="none" xmlns="http://www.w3.org/2000/svg">
<mask id="mask0_2_29" style="mask-type:luminance" maskUnits="userSpaceOnUse" x="0" y="0" width="1057" height="705">
<path d="M1053.5 0H3.49994C1.56694 0 -6.10352e-05 1.567 -6.10352e-05 3.5V701.167C-6.10352e-05 703.1 1.56694 704.667 3.49994 704.667H1053.5C1055.43 704.667 1057 703.1 1057 701.167V3.5C1057 1.567 1055.43 0 1053.5 0Z" fill="white"/>
</mask>
<g mask="url(#mask0_2_29)">
<path d="M475.562 -99.6741C375.408 -44.0191 402.69 42.2079 454.032 76.5939C526.763 125.305 566.271 98.0999 540.87 232.821C532.247 278.559 541.41 329.396 573.97 364.11C597.391 389.079 631.959 403.78 666.098 401.244C685.091 399.835 703.323 393.403 722.086 390.144C740.849 386.885 761.519 387.213 777.214 397.996C792.334 408.38 800.108 426.596 804.132 444.49C813.809 487.526 805.499 533.374 819.092 575.666C830.545 611.313 857.212 647.166 891.499 663.359C936.379 684.559 989.358 672.859 1034.55 658.83C1087.55 642.374 1136.92 614.981 1180.2 580.377C1235.64 536.046 1281.23 480.129 1317.59 419.161C1349.97 364.89 1375.45 305.799 1385.8 243.461C1402.18 144.866 1379.67 2.57992 1262.59 -19.6391C1121.63 -46.3991 1103.18 92.1739 1052.26 -24.5891C1021.79 -94.4621 918.762 -176.492 800.38 -68.7391C681.998 39.0139 619.795 -179.82 475.562 -99.6741Z" fill="#F4F4F4"/>
<path d="M541.849 248.465C484.029 315.037 526.419 370.241 572.589 381.624C638.001 397.747 659.43 367.688 676.457 471.812C682.235 507.163 702.222 541.527 734.895 558.082C758.395 569.982 787.263 571.539 811.295 560.736C824.665 554.725 836.163 545.283 848.877 537.992C861.591 530.701 876.631 525.515 890.819 529.192C904.482 532.732 914.893 543.863 922.506 555.751C940.813 584.339 946.85 619.685 967.793 646.705C985.445 669.48 1014.15 688.405 1043.21 691.113C1081.24 694.653 1116.49 672.27 1145.5 650.247C1179.51 624.419 1208.02 591.633 1230.24 555.23C1258.69 508.597 1276.97 456.17 1287.26 402.519C1296.42 354.754 1299.32 305.319 1290.43 257.501C1276.37 181.881 1222.7 84.8739 1132.18 99.5639C1023.18 117.244 1041.59 232.412 974.079 161.328C933.679 118.794 842.252 76.446 784.932 185.493C727.612 294.54 625.122 152.592 541.849 248.465Z" fill="url(#paint0_linear_2_29)"/>
<mask id="mask1_2_29" style="mask-type:luminance" maskUnits="userSpaceOnUse" x="513" y="98" width="783" height="594">
<path d="M541.85 248.465C484.03 315.037 526.42 370.241 572.59 381.624C638.002 397.747 659.431 367.688 676.458 471.812C682.236 507.163 702.223 541.527 734.896 558.082C758.396 569.982 787.264 571.539 811.296 560.736C824.666 554.725 836.164 545.283 848.878 537.992C861.592 530.701 876.632 525.515 890.82 529.192C904.483 532.732 914.894 543.863 922.507 555.751C940.814 584.339 946.851 619.685 967.794 646.705C985.446 669.48 1014.16 688.405 1043.21 691.113C1081.24 694.653 1116.49 672.27 1145.5 650.247C1179.51 624.419 1208.02 591.633 1230.24 555.23C1258.69 508.597 1276.97 456.17 1287.26 402.519C1296.42 354.754 1299.32 305.319 1290.43 257.501C1276.37 181.881 1222.7 84.8739 1132.18 99.5639C1023.18 117.244 1041.59 232.412 974.08 161.328C933.68 118.794 842.253 76.446 784.933 185.493C727.613 294.54 625.123 152.592 541.85 248.465Z" fill="white"/>
</mask>
<g mask="url(#mask1_2_29)">
<path d="M549.037 347.231C544.525 265.445 607.076 249.08 647.437 267.026C704.621 292.45 703.223 326.714 775.026 260.003C799.403 237.355 833.64 223.52 867.046 229.982C891.073 234.63 913.146 249.933 924.62 271.548C931.007 283.572 934.065 297.048 939.244 309.642C944.423 322.236 952.501 334.608 965.006 339.994C977.049 345.178 991.029 342.94 1003.38 338.552C1033.1 328.001 1057.66 305.501 1088.43 297.601C1114.35 290.942 1146.2 293.401 1169.06 307.971C1198.99 327.035 1212.11 363.536 1220.84 396.216C1231.09 434.543 1233.34 474.845 1228.91 514.208C1223.23 564.639 1206.78 613.521 1183.77 658.752C1163.29 699.019 1137.26 736.952 1103.5 766.977C1050.11 814.457 955.478 855.077 897.412 792.735C827.507 717.679 906.617 643.658 816.587 657.364C762.715 665.564 671.503 644.564 691.551 531.898C711.599 419.232 555.536 465.016 549.037 347.231Z" fill="url(#paint1_linear_2_29)"/>
<path d="M501.458 356.528C525.327 276.252 591.176 282.075 623.84 313.273C670.108 357.467 656.945 389.967 749.064 350.524C780.34 337.133 818.064 335.624 847.99 353.371C869.513 366.13 885.474 388.471 889.07 413.237C891.07 427.011 889.364 441.043 890.003 454.946C890.642 468.849 894.153 483.546 904.331 493.046C914.131 502.19 928.362 504.856 941.768 504.896C974.011 504.99 1005.42 491.808 1037.74 494.815C1064.99 497.349 1094.8 510.705 1111.78 532.609C1134.01 561.282 1134.05 600.941 1131.18 635.409C1127.82 675.833 1116.09 715.4 1098.24 751.759C1075.38 798.338 1042.69 839.716 1004.94 875.313C971.335 907.002 933.201 934.538 890.35 951.788C822.582 979.07 717.488 985.527 683.103 905.488C641.703 809.134 743.385 765.177 652.003 747.314C597.321 736.624 516.77 684.951 574.934 583.42C633.098 481.889 467.087 472.135 501.458 356.528Z" fill="url(#paint2_linear_2_29)"/>
</g>
</g>
<path opacity="0.3" d="M1010.1 197.804V457.181L667.315 454.144V220.83L1010.1 197.804Z" fill="url(#paint3_linear_2_29)"/>
<path d="M984.597 212.63V447.63H655.597V233.492L984.597 212.63Z" fill="url(#paint4_linear_2_29)"/>
<path opacity="0.4" d="M741.387 367.824L811.399 366.209V269.996L741.387 273.517V367.824Z" fill="#46CCCC"/>
<path opacity="0.6" d="M751.394 333.309L669.777 335.995V248.895L751.394 244.111V333.309Z" fill="#7BCAFF"/>
<path d="M735.872 289.659C735.872 305.03 724.285 317.928 710.1 318.459C696.032 318.99 684.711 307.14 684.711 291.994C684.711 276.848 696.033 263.965 710.1 263.208C724.288 262.45 735.872 274.288 735.872 289.659Z" fill="#3A7BD8"/>
<path opacity="0.5" d="M974.484 432.599L647.999 433.93V222.43L974.483 200.609L974.484 432.599Z" fill="#7BCAFF"/>
<path d="M779.315 327.493C775.205 329.427 770.593 330.026 766.125 329.205C761.658 328.384 757.559 326.186 754.405 322.917C751.251 319.645 749.107 315.533 748.227 311.074L759.387 308.025C759.671 309.712 760.341 311.31 761.344 312.694C762.347 314.079 763.657 315.214 765.171 316.009C766.684 316.804 768.361 317.239 770.071 317.279C771.781 317.32 773.476 316.964 775.026 316.241L779.315 327.493Z" fill="url(#paint5_linear_2_29)"/>
<path d="M787.176 321.741C786.993 321.941 786.8 322.133 786.61 322.324L778.675 313.647C781.054 311.18 782.381 307.885 782.375 304.458C782.375 297.623 777.144 292.317 770.713 292.601C768.474 292.747 766.318 293.508 764.483 294.8C762.648 296.092 761.205 297.864 760.313 299.923L750.057 294.973C751.152 292.537 752.619 290.286 754.405 288.3C763.389 278.308 778.07 277.594 787.177 286.8C796.337 296.049 796.33 311.744 787.176 321.741Z" fill="#EDF4FC"/>
<path d="M759.119 305.409C759.118 306.288 759.208 307.165 759.387 308.026L748.227 311.075C747.118 305.648 747.759 300.009 750.057 294.969L760.315 299.923C759.527 301.645 759.119 303.516 759.119 305.409Z" fill="#1FA6B2"/>
<path d="M786.611 322.323C784.523 324.489 782.047 326.243 779.311 327.493L775.022 316.242C776.39 315.61 777.627 314.728 778.672 313.642L786.611 322.323Z" fill="#EA7A15"/>
<path d="M791.965 333.636V331.225L787.4 331.377V333.784L791.965 333.636Z" fill="#A6EDC8"/>
<path d="M800.074 333.374V330.957L795.489 331.108V333.521L800.074 333.374Z" fill="#A6EDC8"/>
<path d="M808.222 333.109V330.688L803.614 330.84V333.26L808.222 333.109Z" fill="#A6EDC8"/>
<path d="M805.047 288.413C804.271 288.138 803.43 288.102 802.633 288.311C801.836 288.519 801.12 288.963 800.579 289.583C800.013 290.202 799.627 290.962 799.461 291.783L801.476 292.159C801.567 291.675 801.816 291.235 802.184 290.907C802.552 290.58 803.018 290.383 803.51 290.348C803.772 290.335 804.034 290.376 804.28 290.468L805.047 288.413Z" fill="#EDF4FC"/>
<path d="M806.447 289.319C806.414 289.286 806.379 289.253 806.347 289.219L804.933 290.87C805.145 291.073 805.313 291.317 805.426 291.587C805.54 291.857 805.597 292.148 805.593 292.441C805.601 293.014 805.39 293.569 805.004 293.992C804.617 294.416 804.084 294.676 803.512 294.719C803.123 294.736 802.738 294.636 802.405 294.433C802.073 294.231 801.808 293.934 801.645 293.58L799.794 294.621C800.078 295.226 800.51 295.75 801.05 296.144C801.59 296.538 802.22 296.79 802.883 296.876C803.546 296.963 804.22 296.881 804.843 296.639C805.466 296.397 806.018 296.002 806.448 295.49C807.229 294.652 807.662 293.55 807.662 292.405C807.662 291.259 807.228 290.157 806.447 289.319Z" fill="#FFC550"/>
<path d="M801.43 292.627C801.431 292.47 801.447 292.313 801.479 292.16L799.464 291.784C799.26 292.742 799.377 293.74 799.795 294.626L801.646 293.585C801.502 293.286 801.428 292.958 801.43 292.627Z" fill="#FFC550"/>
<path d="M806.346 289.22C805.971 288.866 805.529 288.59 805.046 288.41L804.28 290.465C804.522 290.555 804.743 290.693 804.931 290.871L806.346 289.22Z" fill="#BAF4D5"/>
<path d="M799.703 320.804C800.003 321.562 800.53 322.209 801.212 322.656C801.893 323.104 802.696 323.33 803.511 323.304C804.317 323.274 805.097 323.006 805.752 322.534L804.634 320.744C804.249 321.029 803.774 321.166 803.297 321.129C802.819 321.092 802.371 320.885 802.034 320.544C801.845 320.353 801.695 320.126 801.592 319.877L799.703 320.804Z" fill="#BAF4D5"/>
<path d="M799.365 319.093C799.365 319.142 799.365 319.193 799.365 319.236L801.425 319.09C801.406 318.484 801.625 317.895 802.036 317.448C802.217 317.239 802.438 317.07 802.687 316.95C802.936 316.83 803.207 316.763 803.484 316.753C803.76 316.743 804.035 316.789 804.292 316.89C804.549 316.991 804.783 317.143 804.979 317.338C805.256 317.631 805.449 317.993 805.537 318.386C805.625 318.78 805.605 319.19 805.479 319.572L807.438 320.202C807.584 319.746 807.659 319.27 807.659 318.79C807.677 318.237 807.583 317.686 807.381 317.171C807.18 316.656 806.876 316.187 806.487 315.792C806.098 315.398 805.634 315.088 805.121 314.879C804.609 314.67 804.059 314.568 803.506 314.578C802.369 314.659 801.306 315.171 800.536 316.011C799.766 316.851 799.347 317.954 799.365 319.093Z" fill="#D1D9FE"/>
<path d="M804.983 320.437C804.878 320.552 804.76 320.656 804.633 320.745L805.751 322.535C806.553 321.962 807.146 321.144 807.442 320.203L805.483 319.573C805.382 319.894 805.211 320.189 804.983 320.437Z" fill="#EDF4FC"/>
<path d="M799.37 319.237C799.383 319.776 799.497 320.307 799.704 320.804L801.597 319.876C801.495 319.627 801.438 319.361 801.43 319.091L799.37 319.237Z" fill="#FFC550"/>
<path d="M805.15 309.681C805.909 309.297 806.546 308.709 806.99 307.983C807.434 307.257 807.667 306.421 807.663 305.57C807.669 304.747 807.44 303.938 807.003 303.24L805.263 304.485C805.519 304.911 805.63 305.408 805.579 305.902C805.529 306.396 805.32 306.861 804.984 307.226C804.799 307.43 804.578 307.597 804.331 307.717L805.15 309.681Z" fill="#D1D9FE"/>
<path d="M803.511 310.101L803.647 310.092L803.579 307.922C803.295 307.944 803.011 307.904 802.744 307.804C802.478 307.704 802.237 307.547 802.038 307.344C801.646 306.925 801.429 306.372 801.429 305.798C801.429 305.224 801.646 304.671 802.038 304.251C802.299 303.955 802.639 303.74 803.018 303.631C803.397 303.523 803.8 303.525 804.178 303.638L804.843 301.555C804.412 301.417 803.961 301.357 803.509 301.377C802.371 301.462 801.308 301.978 800.538 302.819C799.768 303.661 799.349 304.766 799.366 305.906C799.348 306.458 799.442 307.008 799.643 307.521C799.845 308.035 800.148 308.503 800.536 308.895C800.924 309.288 801.388 309.597 801.899 309.805C802.411 310.012 802.959 310.113 803.511 310.101Z" fill="#BAF4D5"/>
<path d="M804.984 304.128C805.09 304.236 805.184 304.356 805.264 304.485L807.004 303.24C806.51 302.437 805.742 301.838 804.843 301.554L804.178 303.637C804.482 303.733 804.759 303.902 804.984 304.128Z" fill="#FFC550"/>
<path d="M803.65 310.092C804.172 310.054 804.682 309.915 805.15 309.681L804.33 307.717C804.094 307.832 803.839 307.899 803.578 307.917L803.65 310.092Z" fill="#EDF4FC"/>
<path d="M984.593 212.636L655.593 233.497V202.607L984.593 178.736V212.636Z" fill="#D3D3D3"/>
<path d="M977.932 205.961L661.148 226.661V216.451L977.931 194.8L977.932 205.961Z" fill="#F2F2F2"/>
<path d="M665.998 212.675L661.149 213.011V207.705L665.998 207.361V212.675Z" fill="#F9F4EA"/>
<path d="M674.652 212.076L669.778 212.413V207.095L674.652 206.749V212.076Z" fill="#F9F4EA"/>
<path d="M683.352 211.468L678.452 211.809V206.476L683.352 206.129V211.468Z" fill="#F9F4EA"/>
<path opacity="0.5" d="M801.439 414.182L962.533 412.654V226.249L801.439 235.929V414.182Z" fill="#7BCAFF"/>
<path d="M822.881 276.106C821.8 276.108 820.761 275.691 819.981 274.943C819.541 274.521 819.193 274.014 818.958 273.452C818.722 272.891 818.604 272.287 818.612 271.678V247.278C818.608 246.079 819.055 244.921 819.864 244.036C820.674 243.151 821.786 242.602 822.981 242.499L966.681 234.226C967.297 234.186 967.916 234.273 968.497 234.483C969.078 234.692 969.61 235.02 970.059 235.444C970.507 235.869 970.863 236.382 971.105 236.951C971.346 237.52 971.467 238.132 971.461 238.75V264.188C971.449 265.445 970.961 266.652 970.095 267.564C969.229 268.476 968.049 269.025 966.794 269.102L823.094 276.102C823.023 276.099 822.952 276.106 822.881 276.106ZM966.951 236.372C966.899 236.372 966.851 236.372 966.801 236.372L823.101 244.645C822.452 244.709 821.85 245.015 821.416 245.502C820.982 245.988 820.747 246.621 820.757 247.273V271.673C820.751 271.99 820.81 272.306 820.93 272.599C821.051 272.893 821.23 273.159 821.457 273.381C821.661 273.572 821.901 273.721 822.163 273.818C822.426 273.915 822.705 273.959 822.984 273.947L966.684 266.947C967.39 266.903 968.053 266.594 968.539 266.081C969.026 265.568 969.3 264.889 969.306 264.182V238.752C969.31 238.426 969.247 238.102 969.12 237.801C968.994 237.501 968.807 237.229 968.571 237.004C968.133 236.592 967.552 236.365 966.951 236.372Z" fill="#BBCEFF"/>
<path d="M822.919 317.582C821.82 317.586 820.763 317.158 819.976 316.391C819.538 315.967 819.191 315.457 818.956 314.895C818.721 314.332 818.603 313.727 818.609 313.117V288.717C818.602 287.518 819.051 286.362 819.865 285.482C820.68 284.602 821.798 284.065 822.994 283.979L966.69 277.382C967.306 277.347 967.923 277.44 968.502 277.654C969.081 277.868 969.609 278.199 970.054 278.627C970.502 279.056 970.857 279.572 971.098 280.143C971.338 280.714 971.46 281.328 971.454 281.948V307.389C971.445 308.645 970.955 309.85 970.085 310.755C969.214 311.661 968.03 312.198 966.775 312.256L823.075 317.572C823.027 317.576 822.973 317.582 822.919 317.582ZM966.908 279.535C966.87 279.535 966.828 279.535 966.788 279.535L823.088 286.126C822.444 286.182 821.845 286.481 821.412 286.961C820.98 287.442 820.746 288.069 820.758 288.715V313.115C820.753 313.436 820.813 313.754 820.934 314.05C821.056 314.346 821.236 314.615 821.465 314.839C821.879 315.23 822.431 315.442 823.001 315.426L966.701 310.11C967.401 310.076 968.061 309.776 968.546 309.27C969.031 308.765 969.303 308.093 969.308 307.392V281.951C969.312 281.622 969.248 281.295 969.12 280.992C968.993 280.688 968.805 280.414 968.568 280.185C968.121 279.76 967.526 279.525 966.909 279.531L966.908 279.535Z" fill="#BBCEFF"/>
<path d="M822.957 359.053C821.841 359.054 820.769 358.616 819.974 357.832C819.537 357.405 819.191 356.894 818.957 356.331C818.722 355.767 818.604 355.161 818.609 354.551V330.151C818.6 328.953 819.051 327.797 819.87 326.922C820.689 326.047 821.813 325.52 823.009 325.451L966.709 320.542C967.953 320.507 969.161 320.967 970.066 321.822C970.512 322.254 970.867 322.771 971.107 323.344C971.348 323.916 971.47 324.532 971.466 325.153V350.591C971.46 351.846 970.969 353.05 970.094 353.95C969.219 354.85 968.029 355.376 966.775 355.418L823.075 359.054L822.957 359.053ZM966.866 322.688H966.777L823.077 327.597C822.437 327.643 821.84 327.934 821.409 328.408C820.977 328.883 820.745 329.505 820.759 330.146V354.546C820.755 354.869 820.816 355.19 820.938 355.489C821.061 355.788 821.243 356.06 821.473 356.287C821.892 356.675 822.441 356.892 823.012 356.895L966.712 353.259C967.408 353.237 968.067 352.946 968.552 352.447C969.037 351.948 969.31 351.28 969.312 350.584V325.149C969.315 324.817 969.25 324.487 969.122 324.181C968.994 323.874 968.805 323.597 968.567 323.366C968.111 322.926 967.5 322.682 966.866 322.687V322.688Z" fill="#BBCEFF"/>
<path d="M822.997 400.525C821.862 400.526 820.773 400.076 819.969 399.275C819.534 398.845 819.19 398.332 818.956 397.766C818.723 397.2 818.605 396.594 818.609 395.982V371.582C818.596 370.385 819.049 369.23 819.871 368.36C820.694 367.49 821.822 366.974 823.018 366.92L966.718 363.69C967.962 363.678 969.162 364.15 970.065 365.005C970.511 365.439 970.865 365.959 971.105 366.532C971.346 367.106 971.468 367.723 971.465 368.345V393.784C971.461 395.037 970.968 396.24 970.089 397.134C969.211 398.028 968.018 398.543 966.765 398.569L823.065 400.523L822.997 400.525ZM823.028 398.373L966.728 396.419C967.417 396.405 968.073 396.121 968.556 395.629C969.038 395.137 969.309 394.475 969.309 393.786V368.35C969.311 368.015 969.245 367.683 969.116 367.374C968.987 367.065 968.797 366.784 968.557 366.55C968.068 366.103 967.43 365.853 966.767 365.85L823.067 369.08C822.432 369.118 821.837 369.401 821.406 369.87C820.976 370.338 820.744 370.955 820.76 371.591V395.991C820.756 396.318 820.818 396.641 820.941 396.943C821.065 397.246 821.248 397.52 821.479 397.75C821.677 397.96 821.917 398.124 822.185 398.232C822.452 398.339 822.739 398.387 823.027 398.373H823.028Z" fill="#BBCEFF"/>
<path opacity="0.5" d="M891.871 338.298L954.006 336.418V331.437L891.871 333.402V338.298Z" fill="#7BCAFF"/>
<path opacity="0.5" d="M911.942 346.445L954.006 345.273V340.292L911.942 341.52V346.445Z" fill="#7BCAFF"/>
<path opacity="0.5" d="M896.799 346.867L907.122 346.579V341.661L896.799 341.961V346.867Z" fill="#7BCAFF"/>
<path opacity="0.5" d="M891.871 254.756L954.006 251.439V246.458L891.871 249.858V254.756Z" fill="#7BCAFF"/>
<path opacity="0.5" d="M916.775 262.193L954.006 260.293V255.312L916.775 257.262V262.193Z" fill="#7BCAFF"/>
<path opacity="0.5" d="M873.437 264.401L911.937 262.439V257.515L873.437 259.529V264.401Z" fill="#7BCAFF"/>
<path opacity="0.5" d="M928.94 379.889L954.007 379.423V374.443L928.94 374.943V379.889Z" fill="#7BCAFF"/>
<path opacity="0.5" d="M899.649 380.433L924.317 379.974V375.033L899.649 375.524V380.433Z" fill="#7BCAFF"/>
<path opacity="0.5" d="M911.942 388.959L954.006 388.28V383.298L911.942 384.034V388.959Z" fill="#7BCAFF"/>
<path opacity="0.5" d="M866.715 389.689L907.121 389.037V384.119L866.715 384.825V389.689Z" fill="#7BCAFF"/>
<path d="M830.295 310.189L974.595 304.603C975.576 304.557 976.501 304.136 977.181 303.428C977.861 302.719 978.244 301.777 978.25 300.795V275.301C978.255 274.827 978.163 274.357 977.979 273.92C977.796 273.483 977.524 273.089 977.181 272.761C976.838 272.433 976.432 272.18 975.987 272.016C975.542 271.852 975.068 271.781 974.595 271.808L830.295 278.671C829.371 278.743 828.509 279.162 827.883 279.845C827.258 280.528 826.915 281.423 826.924 282.349V306.802C826.911 307.249 826.989 307.694 827.153 308.11C827.318 308.526 827.565 308.904 827.881 309.221C828.196 309.538 828.573 309.787 828.988 309.954C829.403 310.12 829.848 310.2 830.295 310.189Z" fill="#F6F3FF"/>
<g opacity="0.6">
<path d="M908.304 284.051L970.382 281.251V277.532L908.304 280.392V284.051Z" fill="#7BCAFF"/>
<path d="M908.304 290.552L970.382 287.866V284.147L908.304 286.896V290.552Z" fill="#7BCAFF"/>
<path d="M942.597 295.63L970.382 294.477V290.757L942.597 291.938V295.63Z" fill="#7BCAFF"/>
</g>
<path d="M855.869 299.415L871.969 298.747V282.067L855.869 282.809V299.415Z" fill="#EA7A15"/>
<path opacity="0.6" d="M837.31 300.183L853.243 299.523V282.93L837.31 283.664V300.183Z" fill="#7BCAFF"/>
<path d="M682.156 374.807L909.897 436.898C911.367 437.298 912.936 437.098 914.258 436.342C915.581 435.585 916.548 434.335 916.949 432.865L927.449 394.343C927.647 393.615 927.701 392.856 927.606 392.108C927.511 391.36 927.269 390.638 926.895 389.983C926.521 389.328 926.022 388.754 925.426 388.292C924.83 387.83 924.148 387.49 923.421 387.292L695.681 325.2C694.953 325.001 694.194 324.948 693.445 325.043C692.697 325.138 691.975 325.38 691.32 325.754C690.665 326.128 690.09 326.628 689.629 327.225C689.167 327.821 688.828 328.503 688.63 329.231L678.13 367.753C677.729 369.222 677.927 370.791 678.682 372.113C679.437 373.436 680.687 374.405 682.156 374.807Z" fill="url(#paint6_linear_2_29)"/>
<g opacity="0.6">
<path d="M817.233 373.377L913.211 399.543L914.747 393.911L818.769 367.744L817.233 373.377Z" fill="url(#paint7_linear_2_29)"/>
<path d="M814.501 383.39L910.479 409.559L912.015 403.925L816.037 377.757L814.501 383.39Z" fill="url(#paint8_linear_2_29)"/>
<path d="M865.184 407.971L907.75 419.572L909.286 413.937L866.719 402.336L865.184 407.971Z" fill="url(#paint9_linear_2_29)"/>
</g>
<path opacity="0.6" d="M728.026 370.886L753.976 377.96L761.051 352.009L735.101 344.935L728.026 370.886Z" fill="url(#paint10_linear_2_29)"/>
<path opacity="0.6" d="M697.824 362.65L723.774 369.725L730.849 343.774L704.898 336.699L697.824 362.65Z" fill="url(#paint11_linear_2_29)"/>
<path d="M941.537 594.597C941.537 596.097 923.413 597.319 901.056 597.319C878.699 597.319 860.575 596.098 860.575 594.597C860.575 593.096 878.699 591.877 901.056 591.877C923.413 591.877 941.537 593.089 941.537 594.597Z" fill="#D8D8D8"/>
<path d="M905.897 449.635C908.535 450.979 911.006 450.499 917.956 450.084C927.967 449.484 930.307 448.703 936.277 446.152C940.177 444.487 935.37 436.19 929.698 436.963C924.904 437.616 909.237 445.628 906.317 446.013C904.385 446.267 903.755 448.543 905.897 449.635Z" fill="#228BC5"/>
<path d="M937.534 444.844C938.553 442.765 940.111 437.788 940.651 425.137C940.919 420.665 940.817 416.179 940.346 411.725C939.946 407.497 935.897 405.799 933.905 406.804C930.696 408.425 927.443 412.791 927.518 415.02C927.943 427.601 929.042 437.252 928.608 440.313C927.972 444.787 936.324 447.305 937.534 444.844Z" fill="url(#paint12_linear_2_29)"/>
<path d="M928.759 585.969C928.516 587.047 928.367 588.144 928.313 589.248C928.097 590.566 926.84 591.048 926.113 592.128C925.313 593.328 924.051 595.05 928.974 595.146C934.243 595.246 937.364 595.083 936.474 592.212C935.584 589.341 935.408 588.078 935.469 587.141C935.549 586.71 935.537 586.266 935.434 585.84C935.33 585.414 935.138 585.014 934.869 584.668C934.265 584.109 929.534 583.099 928.759 585.969Z" fill="#79186A"/>
<path d="M874.937 588.365C873.585 590.038 871.818 591.327 869.812 592.104C867.078 593.281 861.279 593.835 864.501 594.871C867.723 595.907 871.477 595.28 873.38 594.986C875.366 594.718 877.369 594.602 879.372 594.638C882.327 594.619 882.35 594.438 881.953 591.225C881.406 586.801 876.269 585.864 874.937 588.365Z" fill="#79186A"/>
<path d="M934.944 388.525C933.424 394.341 933.044 395.625 930.082 397.634C927.12 399.643 923.033 399.37 920.231 398.928C917.206 398.453 915.785 394.489 915.496 391.881C915.12 387.149 915.662 382.389 917.091 377.863C918.038 374.652 922.712 371.307 926.891 371.963C931.07 372.619 938.655 374.309 934.944 388.525Z" fill="#FFAF84"/>
<path d="M896.816 434.748C898.796 433.548 902.784 430.186 910.043 419.814C912.676 416.189 915.003 412.352 917 408.342C918.935 404.56 916.441 400.95 914.221 400.729C910.641 400.37 905.551 402.3 904.421 404.219C898.011 415.054 893.748 423.781 891.732 426.129C888.785 429.559 894.472 436.176 896.816 434.748Z" fill="url(#paint13_linear_2_29)"/>
<path d="M930.298 398.46C930.136 400.534 929.917 402.913 929.647 405.077C929.46 406.476 928.762 407.757 927.686 408.672C926.611 409.587 925.235 410.071 923.824 410.031C923.697 410.022 923.601 410.01 923.497 409.993C920.946 409.593 918.306 406.81 918.931 404.288C919.34 402.651 919.657 400.988 919.899 399.517C920.118 398.15 920.755 396.884 921.722 395.893C922.689 394.902 923.938 394.234 925.299 393.981C925.937 393.86 926.594 393.888 927.219 394.062C927.844 394.237 928.421 394.553 928.905 394.986C929.388 395.419 929.765 395.958 930.007 396.56C930.249 397.163 930.348 397.813 930.298 398.46Z" fill="#FFAF84"/>
<path d="M938.152 425.581C930.96 440.428 926.852 456.45 926.065 467.49L890.348 461.879C890.348 461.879 895.814 428.459 901.082 410.513C901.729 408.323 902.905 406.326 904.508 404.7C906.111 403.074 908.091 401.868 910.271 401.19C913.184 400.185 918.147 400.269 920.122 400.577L926.722 401.615C929.081 401.945 931.381 402.606 933.555 403.579C942.829 408.093 942.322 416.977 938.152 425.581Z" fill="url(#paint14_linear_2_29)"/>
<path d="M922.485 489.318C922.485 489.318 926.751 482.307 926.065 467.49L890.348 461.879C888.381 469.004 886.8 476.23 885.613 483.526L922.485 489.318Z" fill="url(#paint15_linear_2_29)"/>
<path d="M909.698 539.129C904.89 528 916.398 523.962 921.56 531.729C928.851 542.715 934.829 577.988 935.822 585.613C935.951 586.613 936.329 587.804 935.883 588.232C935.051 589.032 933.055 589.36 932.216 589.472C930.877 589.655 929.576 589.878 929.167 588.262C926.403 577.354 914.356 549.908 909.698 539.129Z" fill="url(#paint16_linear_2_29)"/>
<path d="M904.512 488.101C905.524 473.458 913.012 463.139 921.222 469.315C924.68 471.915 925.429 476.148 925.342 480.009C925.255 483.87 921.856 523.609 921.711 530.867C921.389 547.222 909.424 540.92 908.747 536.267C907.046 524.522 903.957 496.08 904.512 488.101Z" fill="url(#paint17_linear_2_29)"/>
<path d="M881.34 589.848C883.069 572.704 892.589 543.162 889.418 528.836C887.403 519.736 876.762 518.705 876.424 529.686C876.06 541.421 877.899 564.349 875.024 586.86C874.737 589.073 881.11 591.851 881.34 589.848Z" fill="url(#paint18_linear_2_29)"/>
<path d="M888.551 532.323C886.451 536.53 873.565 539.755 877.359 523.844C879.041 516.783 886.731 477.559 887.617 473.798C888.503 470.037 890.036 464.583 892.054 464.189C902.138 462.223 909.607 475.022 904.854 488.911C901.677 498.194 892.901 523.602 888.551 532.323Z" fill="url(#paint19_linear_2_29)"/>
<path d="M917.639 384.531C918.151 386.706 917.646 388.688 916.505 388.956C915.364 389.224 914.027 387.681 913.513 385.505C912.999 383.329 913.506 381.348 914.645 381.08C915.784 380.812 917.125 382.356 917.639 384.531Z" fill="#FFAF84"/>
<path d="M933.029 386.949C931.873 388.861 931.747 390.902 932.749 391.508C933.751 392.114 935.502 391.055 936.658 389.14C937.814 387.225 937.94 385.187 936.938 384.581C935.936 383.975 934.187 385.036 933.029 386.949Z" fill="#FFAF84"/>
<path d="M866.993 425.015C868.825 427.34 870.31 428.693 876.957 430.77C885.941 433.57 891.13 434.57 895.706 434.937C899.934 435.278 899.389 425.151 893.916 423.477C889.289 422.063 871.707 422.777 868.893 421.901C867.03 421.324 865.504 423.126 866.993 425.015Z" fill="#1FA6B2"/>
<path d="M869.466 421.8C867.756 420.912 852.946 415.817 852.819 419.1C852.676 422.736 858.644 424.986 860.648 425.559C864.524 426.672 867.737 427.436 869.329 425.759C870.46 424.57 871.091 422.644 869.466 421.8Z" fill="#FFAF84"/>
<path d="M868.571 420.974C867.895 420.401 863.871 417.016 863.183 417.725C862.135 418.805 864.658 421.154 866.324 422.714C867.224 423.56 869.009 424.095 869.603 423.28C870.197 422.465 869.652 421.893 868.571 420.974Z" fill="#FFAF84"/>
<path d="M922.534 374.03C918.783 375.559 917.702 377.248 917.134 381.497C916.566 385.746 917.242 393.258 924.787 396.097C932.332 398.936 935.387 391.491 936.693 386.225C937.999 380.959 938.323 376.925 934.532 375.347C928.9 373.003 924.803 373.102 922.534 374.03Z" fill="#583600"/>
<path d="M936.546 376.218C936.816 372.897 931.855 370.576 931.27 369.037C931.27 369.037 930.97 371.294 931.904 371.959C931.904 371.959 925.83 369.472 923.512 367.459C923.512 367.459 924.491 369.782 925.687 370.383C925.687 370.383 919.021 368.509 916.86 367.134C917.949 368.777 919.219 370.294 920.644 371.656C920.644 371.656 915.002 371.724 911.669 370.181C911.669 370.181 914.342 377.69 919.505 378.606C924.668 379.522 936.057 382.29 936.546 376.218Z" fill="#583600"/>
<path d="M642.065 595.886C642.065 597.427 671.576 598.679 707.977 598.679C744.378 598.679 773.885 597.427 773.885 595.886C773.885 594.345 744.378 593.086 707.977 593.086C671.576 593.086 642.065 594.346 642.065 595.886Z" fill="#D8D8D8"/>
<path d="M678.456 356.447C678.867 354.514 682.888 339.493 685.576 341.539C688.545 343.801 688.251 350.112 687.894 352.222C687.241 356.079 684.051 358.761 681.681 358.922C680.002 359.043 678.067 358.286 678.456 356.447Z" fill="#FFAF84"/>
<path d="M684.334 356.09C685.574 358.822 684.454 359.308 683.758 366.965C682.889 376.551 681.844 381.794 680.296 386.177C678.866 390.229 670.452 385.195 671.248 379.393C671.922 374.493 678.76 358.312 680.082 355.606C680.32 355.226 680.66 354.922 681.063 354.728C681.466 354.533 681.916 354.457 682.36 354.508C682.805 354.559 683.226 354.734 683.576 355.014C683.925 355.294 684.188 355.667 684.334 356.09Z" fill="url(#paint20_linear_2_29)"/>
<path d="M681.128 382.348C680.686 384.685 678.901 389.731 671.556 400.458C669.023 404.298 666.178 407.921 663.048 411.291C660.114 414.518 655.748 413.421 654.726 411.369C653.089 408.062 653.103 402.469 654.538 400.686C662.632 390.612 669.475 383.358 671.006 380.575C673.238 376.506 681.653 379.579 681.128 382.348Z" fill="url(#paint21_linear_2_29)"/>
<path d="M656.729 587.045C656.98 588.151 657.133 589.278 657.189 590.411C657.41 591.766 658.699 592.257 659.449 593.368C660.273 594.594 661.568 596.368 656.513 596.468C651.104 596.574 647.897 596.402 648.813 593.454C649.729 590.506 649.908 589.207 649.849 588.249C649.765 587.806 649.776 587.351 649.882 586.913C649.987 586.475 650.185 586.065 650.462 585.71C651.075 585.136 655.933 584.097 656.729 587.045Z" fill="#79186A"/>
<path d="M710.991 526.951C712.459 528.6 714.335 529.836 716.431 530.533C719.294 531.604 725.27 531.881 722.019 533.105C718.768 534.329 714.883 533.871 712.919 533.664C710.858 533.605 708.796 533.691 706.748 533.922C703.713 534.051 703.692 533.558 703.939 530.239C704.275 525.673 709.497 524.456 710.991 526.951Z" fill="#79186A"/>
<path d="M663.817 378.888C664.43 385.03 664.611 386.388 667.296 388.906C669.981 391.424 674.169 391.786 677.081 391.786C680.224 391.786 682.298 387.993 683.009 385.392C684.142 380.653 684.351 375.74 683.622 370.921C683.173 367.513 678.967 363.376 674.628 363.376C670.289 363.376 662.316 363.879 663.817 378.888Z" fill="#FFAF84"/>
<path d="M666.945 389.706C666.778 391.839 666.619 394.289 666.55 396.525C666.516 397.974 667.02 399.383 667.965 400.482C668.91 401.581 670.228 402.291 671.666 402.475C671.798 402.487 671.899 402.492 672.002 402.492C674.654 402.492 677.776 400.092 677.543 397.432C677.39 395.706 677.334 393.965 677.325 392.438C677.319 391.016 676.873 389.63 676.05 388.471C675.227 387.311 674.065 386.435 672.725 385.96C672.098 385.736 671.427 385.66 670.765 385.737C670.104 385.815 669.469 386.043 668.91 386.406C668.351 386.768 667.883 387.254 667.542 387.826C667.201 388.399 666.997 389.042 666.945 389.706Z" fill="#FFAF84"/>
<path d="M654.656 415.964C659.584 432.171 661.202 449.079 660.237 460.398H697.358C697.358 460.398 697.142 425.627 694.658 406.587C694.35 404.262 693.474 402.05 692.107 400.145C690.74 398.241 688.925 396.702 686.822 395.667C684.029 394.185 678.979 393.478 676.922 393.478H670.063C667.618 393.435 665.179 393.738 662.819 394.378C652.699 397.481 651.797 406.571 654.656 415.964Z" fill="url(#paint22_linear_2_29)"/>
<path d="M660.389 483.107C660.389 483.107 657.183 475.316 660.236 460.396H697.358C697.358 460.396 697.332 471.041 697.358 483.107H660.389Z" fill="#228BC5"/>
<path d="M667.715 531.698C670.691 519.611 658.345 517.482 654.448 526.23C648.935 538.592 649.374 578.124 649.668 586.014C649.706 587.048 649.527 588.314 650.051 588.675C651.031 589.347 653.109 589.335 653.976 589.307C655.36 589.262 656.717 589.267 656.856 587.559C657.798 576.045 664.838 543.402 667.715 531.698Z" fill="url(#paint23_linear_2_29)"/>
<path d="M678.818 484.737C680.124 469.725 674.174 458.065 664.861 463.021C660.943 465.107 659.508 469.281 658.982 473.211C658.456 477.141 655.567 517.993 654.559 525.375C652.278 542.015 665.42 537.528 666.844 532.917C670.437 521.276 678.104 492.921 678.818 484.737Z" fill="url(#paint24_linear_2_29)"/>
<path d="M704.214 527.157C710.535 510.63 715.423 479.141 724.938 467.457C730.984 460.035 741.216 463.997 736.464 474.229C731.386 485.163 719.129 505.347 711.389 527.329C710.632 529.49 703.505 529.1 704.214 527.157Z" fill="url(#paint25_linear_2_29)"/>
<path d="M733.115 477.894C737.766 476.6 742.938 461.494 726.155 462.21C718.711 462.525 692.505 462.358 688.54 462.518C684.575 462.678 678.783 463.157 677.991 465.118C674.038 474.899 685.484 484.926 700.409 482.847C710.388 481.452 723.477 480.579 733.115 477.894Z" fill="url(#paint26_linear_2_29)"/>
<path d="M682.004 377.597C681.135 379.721 681.335 381.813 682.448 382.267C683.561 382.721 685.166 381.367 686.035 379.244C686.904 377.121 686.704 375.028 685.591 374.574C684.478 374.12 682.87 375.473 682.004 377.597Z" fill="#FFAF84"/>
<path d="M666.008 377.597C666.875 379.721 666.677 381.813 665.564 382.267C664.451 382.721 662.844 381.367 661.977 379.244C661.11 377.121 661.308 375.028 662.419 374.574C663.53 374.12 665.141 375.473 666.008 377.597Z" fill="#FFAF84"/>
<path d="M665.707 366.78C668.098 370.35 679.657 370.68 683.432 369.369C687.207 368.058 686.944 360.758 681.546 360.258C678.507 360.251 680.707 360.979 678.246 361.98C676.995 362.489 663.154 362.97 665.707 366.78Z" fill="black"/>
<path d="M739.157 390.456C741.024 389.805 755.957 385.456 755.597 388.819C755.202 392.533 749.652 395.551 747.662 396.338C744.028 397.776 740.082 396.438 738.71 394.496C737.74 393.123 737.381 391.072 739.157 390.456Z" fill="#FFAF84"/>
<path d="M739.8 389.529C740.446 388.89 744.305 385.113 745.064 385.785C746.22 386.811 743.819 389.409 742.236 391.138C741.379 392.073 739.594 392.759 738.922 391.97C738.25 391.181 738.764 390.553 739.8 389.529Z" fill="#FFAF84"/>
<path d="M742.511 395.296C740.811 397.774 739.822 397.067 732.911 400.442C724.26 404.67 719.236 406.49 714.684 407.437C710.484 408.313 710.426 398.509 715.8 396.184C720.343 394.22 737.72 391.684 740.719 391.411C741.166 391.417 741.603 391.549 741.978 391.793C742.353 392.037 742.652 392.382 742.839 392.788C743.027 393.195 743.095 393.646 743.037 394.089C742.979 394.533 742.797 394.951 742.511 395.296Z" fill="url(#paint27_linear_2_29)"/>
<path d="M718.855 406.369C716.682 407.33 711.512 408.727 698.514 408.769C690.584 408.792 689.614 408.569 687.19 408.241C682.866 407.656 679.915 403.398 679.977 401.107C680.077 397.328 682.011 394.507 684.294 394.673C697.185 395.617 711.412 397.348 714.571 397.026C719.187 396.558 721.43 405.228 718.855 406.369Z" fill="url(#paint28_linear_2_29)"/>
<path d="M678.713 366.165C682.274 368.314 683.101 370.2 683 374.602C682.899 379.004 681.017 386.513 672.914 388.19C664.811 389.867 662.898 381.827 662.407 376.279C661.916 370.731 662.235 366.585 666.334 365.589C672.418 364.11 676.557 364.864 678.713 366.165Z" fill="black"/>
<path d="M571.88 372.374C569.42 374.212 567.511 376.689 566.36 379.536C565.208 382.383 564.858 385.491 565.348 388.523C566.227 394.246 565.801 400.094 564.101 405.63C562.854 409.515 558.541 422.507 573.835 422.213C589.129 421.919 590.085 404.013 588.323 394.834C586.561 385.655 589.779 379.2 587.473 376.409C585.167 373.618 579.808 366.575 571.88 372.374Z" fill="#2E1C00"/>
<path d="M629.672 405.831C632.533 403.581 635.41 401.131 635.998 403.679C636.616 406.357 636.609 406.079 634.567 407.935C632.525 409.791 627.267 407.722 629.672 405.831Z" fill="#FFAF84"/>
<path d="M629.761 405.347C627.833 406.216 614.296 408.947 608.797 410.665C608.748 410.646 608.703 410.625 608.649 410.609C605.912 409.85 598.382 406.195 588.237 401.695C585.255 400.764 582.036 400.954 579.184 402.228C577.371 403.135 576.769 406.228 580.053 407.908C583.564 409.736 587.203 411.307 590.942 412.608C600.159 415.993 605.042 416.979 607.629 417.224C608.197 417.37 608.791 417.377 609.362 417.243C615.051 415.904 617.125 415.296 624.054 411.667C628.865 409.149 630.748 409.938 631.512 408.416C632.134 407.184 631.199 404.696 629.761 405.347Z" fill="url(#paint29_linear_2_29)"/>
<path d="M621.27 570.329C621.27 571.774 605.87 572.946 586.864 572.946C567.858 572.946 552.464 571.774 552.464 570.329C552.464 568.884 567.864 567.712 586.864 567.712C605.864 567.712 621.27 568.884 621.27 570.329Z" fill="#D8D8D8"/>
<path d="M568.138 562.401C568.333 563.303 568.453 564.221 568.497 565.144C568.671 566.244 569.686 566.644 570.273 567.554C570.919 568.554 571.936 570.154 567.966 570.234C563.719 570.319 561.204 570.025 561.922 567.624C562.435 566.267 562.71 564.832 562.735 563.382C562.669 563.022 562.678 562.653 562.761 562.297C562.843 561.941 562.998 561.606 563.216 561.313C563.699 560.846 567.511 559.999 568.138 562.401Z" fill="#79186A"/>
<path d="M575.932 391.139C575.897 391.451 575.397 398.188 575.307 403.356C575.265 405.89 577.09 408.293 578.915 408.356C578.941 408.356 578.969 408.356 578.995 408.356C580.783 408.356 582.889 406.108 582.732 403.621C582.445 399.121 582.659 394.521 582.666 394.446L575.932 391.139Z" fill="#ED9169"/>
<path d="M570.701 420.241C572.166 424.859 573.247 429.59 573.933 434.386C574.449 437.917 574.434 441.506 573.891 445.033C573.602 447.156 573.184 449.266 572.7 451.352C572.519 452.144 570.964 458.528 570.891 459.211H600.038C599.759 453.501 593.254 435.562 597.656 423.945C600.705 415.9 596.656 415.653 593.907 408.957C593.358 407.238 592.574 405.603 591.579 404.099C590.423 402.735 588.861 401.777 587.121 401.365C586.229 401.163 585.321 401.036 584.408 400.985C579.478 400.585 567.862 399.16 566.773 406.176C566.523 408.086 566.721 410.028 567.351 411.849C568.002 413.897 568.974 415.823 569.791 417.813C570.119 418.611 570.422 419.424 570.701 420.241Z" fill="url(#paint30_linear_2_29)"/>
<path d="M571.009 477.714C571.009 477.714 568.493 471.365 570.892 459.214H600.039C600.712 465.358 601.065 471.533 601.098 477.714H571.009Z" fill="url(#paint31_linear_2_29)"/>
<path d="M576.763 517.309C579.098 507.46 569.406 505.727 566.346 512.851C562.017 522.928 562.362 555.136 562.593 561.565C562.624 562.408 563.065 562.249 563.535 562.079C564.504 561.656 565.557 561.458 566.614 561.501C566.959 561.602 567.281 561.772 567.56 561.999C567.839 562.227 568.07 562.508 568.239 562.826C569.151 554.063 574.504 526.842 576.763 517.309Z" fill="url(#paint32_linear_2_29)"/>
<path d="M585.478 479.044C586.5 466.811 581.832 457.31 574.518 461.344C571.441 463.044 570.318 466.444 569.902 469.65C569.486 472.856 567.222 506.135 566.428 512.15C564.638 525.71 574.957 522.055 576.077 518.299C578.901 508.814 584.919 485.71 585.478 479.044Z" fill="url(#paint33_linear_2_29)"/>
<path d="M602.704 516.668C603.087 507.489 594.474 507.684 592.31 515.155C588.904 526.909 594.79 552.145 595.159 566.555C596.659 564.065 598.076 563.461 598.743 563.516C599.071 563.548 599.389 563.648 599.677 563.809C599.965 563.97 600.216 564.19 600.415 564.453C600.196 545.473 602.294 526.484 602.704 516.668Z" fill="url(#paint34_linear_2_29)"/>
<path d="M592.654 517.668C593.8 521.417 603.654 525.753 602.627 512.111C602.171 506.06 600.952 472.643 600.72 469.422C600.488 466.201 599.947 461.492 598.39 460.905C590.603 457.967 583.054 467.576 585.102 479.67C586.469 487.754 590.279 509.89 592.654 517.668Z" fill="url(#paint35_linear_2_29)"/>
<path d="M634.123 402.846C635.415 401.761 636.949 401.001 638.595 400.631C639.856 400.521 637.115 401.982 636.129 402.855C635.143 403.728 632.96 403.737 634.123 402.846Z" fill="#FFAF84"/>
<path d="M572.078 445.387C575.637 444.671 577.448 443.475 579.071 444.372C580.694 445.269 578.308 448.403 577.093 448.915C575.878 449.427 571.622 451.63 570.373 450.453C570.039 450.038 569.815 449.546 569.722 449.021C569.628 448.497 569.668 447.958 569.838 447.453C570.008 446.948 570.302 446.495 570.694 446.133C571.085 445.772 571.561 445.516 572.078 445.387Z" fill="#FFAF84"/>
<path d="M560.126 429.858C562.148 426.711 566.665 420.789 572.197 413.103C573.719 410.376 574.195 407.187 573.534 404.135C573.017 402.174 570.107 400.95 567.796 403.82C565.283 406.879 562.998 410.119 560.958 413.512C554.933 423.161 553.249 427.777 552.732 429.933C552.663 430.363 552.719 430.805 552.892 431.205C553.065 431.606 553.348 431.949 553.709 432.195C553.77 432.309 553.837 432.42 553.909 432.528C557.409 437.209 558.788 438.87 564.881 443.777C569.111 447.183 569.135 449.224 570.835 449.318C572.214 449.393 574.124 447.545 572.954 446.485C571.445 445.112 564.03 434.509 560.126 429.858Z" fill="url(#paint36_linear_2_29)"/>
<path d="M571.43 387.235C572.912 392.823 573.281 394.051 576.137 395.975C578.885 397.729 582.173 398.434 585.399 397.96C588.307 397.493 589.968 394.075 590.235 391.566C590.546 386.623 589.975 381.665 588.551 376.923C587.63 373.837 583.125 370.642 579.113 371.288C575.101 371.934 567.808 373.585 571.43 387.235Z" fill="#FFAF84"/>
<path d="M600.776 564.405C601.853 565.794 603.279 566.874 604.908 567.534C607.108 568.518 611.788 568.983 609.19 569.85C606.592 570.717 603.567 570.191 602.031 569.95C600.432 569.726 598.818 569.629 597.204 569.659C594.818 569.643 594.799 569.495 595.121 566.805C595.562 563.098 599.703 562.314 600.776 564.405Z" fill="#79186A"/>
<path d="M587.12 374.107C589.953 377.543 574.92 387.107 571.23 387.092C567.54 387.077 567.256 380.085 569.468 376.158C571.68 372.231 580.43 365.992 587.12 374.107Z" fill="#2E1C00"/>
<path d="M580.978 374.117C582.078 377.236 587.827 377.065 589.213 379.569C590.077 381.124 589.513 375.869 587.813 373.72C586.113 371.571 578.756 367.845 580.978 374.117Z" fill="#2E1C00"/>
<path d="M574.138 386.333C574.951 388.323 574.765 390.279 573.722 390.704C572.679 391.129 571.178 389.863 570.365 387.874C569.552 385.885 569.738 383.926 570.781 383.503C571.824 383.08 573.325 384.343 574.138 386.333Z" fill="#FFAF84"/>
<path d="M797.952 714.843C795.352 710.859 803.261 705.86 812.081 709.026C811.546 711.59 810.478 714.013 808.946 716.138C806.947 718.657 801.595 720.425 797.952 714.843Z" fill="url(#paint37_linear_2_29)"/>
<path d="M792.789 713.19C788.91 710.435 794.44 702.89 803.809 702.603C804.25 705.185 804.144 707.831 803.498 710.37C802.556 713.447 798.222 717.047 792.789 713.19Z" fill="url(#paint38_linear_2_29)"/>
<path d="M789.562 712.41C785.306 711.755 786.716 703.403 794.18 699.374C795.584 701.284 796.572 703.468 797.08 705.785C797.567 708.655 795.522 713.329 789.562 712.41Z" fill="url(#paint39_linear_2_29)"/>
<path d="M788.348 710.713C784.648 711.86 782.503 704.562 786.948 698.368C788.834 699.357 790.491 700.732 791.811 702.403C793.335 704.528 793.522 709.107 788.348 710.713Z" fill="url(#paint40_linear_2_29)"/>
<path d="M788.688 689.706C776.788 677.468 801.188 654.423 834.432 659.506C834.432 659.506 834.513 674.694 828.288 686.706C822.98 696.951 805.353 706.843 788.688 689.706Z" fill="url(#paint41_linear_2_29)"/>
<path d="M829.872 661.74C826.325 662.454 822.944 663.829 819.905 665.794C819.127 666.227 818.374 666.705 817.651 667.225C816.926 667.744 816.151 668.171 815.475 668.76L813.426 670.469L812.408 671.321L811.474 672.278C808.935 674.763 806.582 677.432 804.435 680.263L801.295 684.589L798.518 689.189C798.058 689.955 797.536 690.689 797.118 691.483L795.882 693.883L793.382 698.674L788.966 708.609C787.666 712.009 786.225 715.368 785.021 718.825C783.742 722.264 782.607 725.753 781.187 729.197L780.928 729.138L783.678 718.438C784.66 714.89 785.922 711.423 787.029 707.91C788.247 704.435 789.761 701.066 791.114 697.638L793.583 692.689L794.823 690.215C795.238 689.392 795.764 688.632 796.231 687.835L799.151 683.135L802.472 678.705C804.773 675.816 807.332 673.141 810.115 670.713L811.142 669.786L812.257 668.961L814.49 667.32C815.224 666.758 816.064 666.354 816.844 665.864C817.625 665.37 818.437 664.927 819.274 664.536C822.559 662.797 826.168 661.755 829.874 661.475L829.872 661.74Z" fill="url(#paint42_linear_2_29)"/>
<path d="M804.121 679.97C817.096 680.643 818.048 655.111 798.465 638.627C798.465 638.627 789.728 646.202 785.975 655.789C782.771 663.971 785.95 679.027 804.121 679.97Z" fill="url(#paint43_linear_2_29)"/>
<path d="M799.648 642.271C800.635 645.962 801.327 649.727 801.718 653.529C801.89 655.429 802.045 657.338 802.103 659.249C802.21 661.16 802.248 663.071 802.236 664.985C802.115 672.643 801.376 680.28 800.025 687.82C799.631 689.691 799.175 691.55 798.751 693.42L798.094 696.213L797.314 698.974L795.74 704.486C795.146 706.302 794.484 708.097 793.817 709.886L792.826 712.572L791.708 715.207L789.443 720.457C788.675 722.198 787.7 723.849 786.843 725.545C785.986 727.241 785.057 728.903 784.125 730.557L783.941 730.469C785.441 726.996 787.056 723.569 788.459 720.058L790.472 714.751L791.467 712.092L792.333 709.392L794.069 703.992L795.54 698.512L796.272 695.771L796.872 693C797.26 691.15 797.684 689.307 798.044 687.452C799.454 680.017 800.33 672.492 800.665 664.933C801.058 657.374 800.652 649.794 799.454 642.321L799.648 642.271Z" fill="url(#paint44_linear_2_29)"/>
<path d="M815.879 670.141C797.966 654.332 829.561 619.563 876.495 623.102C876.495 623.102 878.231 644.291 870.827 661.72C864.517 676.589 840.965 692.281 815.879 670.141Z" fill="url(#paint45_linear_2_29)"/>
<path d="M870.42 626.672C865.504 629.602 860.79 632.857 856.307 636.414C854.067 638.176 851.784 639.865 849.657 641.76L846.417 644.524L843.317 647.447L840.225 650.365L837.233 653.387L834.24 656.4C833.24 657.4 832.34 658.5 831.388 659.551C829.543 661.698 827.488 663.659 825.756 665.901L820.397 672.489C818.665 674.727 817.019 677.034 815.325 679.302C814.493 680.449 813.615 681.564 812.825 682.739L810.499 686.298C808.942 688.667 807.314 690.998 805.809 693.405C804.409 695.874 802.941 698.305 801.458 700.739L799.243 704.396L797.269 708.187L793.31 715.787C790.633 720.85 788.472 726.155 785.779 731.287L785.479 731.181L788.579 723.128L790.127 719.101C790.639 717.757 791.141 716.408 791.782 715.118L795.407 707.285L797.225 703.37L799.29 699.581L803.423 692C804.888 689.526 806.479 687.123 808 684.682L810.306 681.032C811.1 679.832 811.981 678.69 812.814 677.516C814.514 675.194 816.165 672.834 817.902 670.54C825.037 661.493 833.005 653.136 841.702 645.579C850.439 638.104 859.859 631.31 870.297 626.379L870.42 626.672Z" fill="url(#paint46_linear_2_29)"/>
<path d="M819.119 694.444C810.574 679.47 840.257 663.096 871.481 676.456C871.481 676.456 867.722 691.331 858.604 701.505C850.825 710.186 831.086 715.41 819.119 694.444Z" fill="url(#paint47_linear_2_29)"/>
<path d="M866.492 677.477C862.425 678.166 858.425 679.208 854.538 680.59L851.625 681.569L848.764 682.696C846.846 683.403 845.003 684.306 843.153 685.169C835.758 688.638 828.72 692.821 822.139 697.659L817.215 701.307C815.542 702.486 814.07 703.919 812.484 705.215C810.953 706.569 809.305 707.8 807.884 709.284C806.433 710.731 804.926 712.125 803.407 713.512C801.852 714.865 800.484 716.402 799.059 717.89L794.797 722.375C791.988 725.406 789.39 728.625 786.511 731.663L786.325 731.531C788.842 728.231 791.295 724.875 793.866 721.614L797.942 716.901C799.309 715.335 800.62 713.722 802.127 712.287C805.058 709.342 807.911 706.313 811.112 703.654C812.699 702.314 814.172 700.834 815.853 699.607L820.8 695.812C827.557 690.955 834.816 686.839 842.453 683.533C850.109 680.341 858.153 677.845 866.483 677.251L866.492 677.477Z" fill="url(#paint48_linear_2_29)"/>
<path d="M840.194 657.924C842.184 657.498 844.225 657.364 846.254 657.524C848.244 657.646 850.218 657.948 852.154 658.424C854.098 658.924 855.989 659.611 857.801 660.474C859.665 661.339 861.364 662.524 862.82 663.974L862.727 664.164C859.16 662.574 855.447 661.335 851.641 660.464C847.858 659.488 844.027 658.708 840.163 658.126L840.194 657.924Z" fill="url(#paint49_linear_2_29)"/>
<path d="M848.81 647.759C850.386 647.07 852.066 646.647 853.78 646.508C855.443 646.341 857.118 646.345 858.78 646.52C860.451 646.713 862.096 647.09 863.686 647.642C865.338 648.19 866.867 649.057 868.186 650.193L868.12 650.393C864.996 649.49 861.791 648.895 858.552 648.615C855.32 648.231 852.071 648.016 848.817 647.969L848.81 647.759Z" fill="url(#paint50_linear_2_29)"/>
<path d="M830.059 650.294C829.812 648.183 829.819 646.051 830.079 643.942C830.19 642.999 830.272 642.083 830.321 641.176C830.374 640.144 830.318 639.109 830.153 638.09L830.293 637.956C830.995 638.805 831.51 639.792 831.805 640.854C832.1 641.916 832.168 643.028 832.005 644.118C831.741 646.282 831.144 648.392 830.237 650.375L830.059 650.294Z" fill="url(#paint51_linear_2_29)"/>
<path d="M842.673 640.681C842.856 639.046 843.25 637.441 843.845 635.908C844.121 635.216 844.345 634.537 844.568 633.868C844.826 633.118 844.98 632.338 845.026 631.547L845.153 631.474C845.512 632.242 845.705 633.078 845.717 633.926C845.729 634.774 845.562 635.615 845.225 636.394C844.621 637.958 843.801 639.431 842.79 640.769L842.673 640.681Z" fill="url(#paint52_linear_2_29)"/>
<path d="M795.017 738.685L777.131 730.578C776.702 730.383 776.359 730.037 776.167 729.606C775.975 729.175 775.948 728.689 776.091 728.24L783.024 706.391C783.106 706.131 783.243 705.892 783.424 705.69C783.606 705.487 783.828 705.325 784.077 705.214C784.326 705.104 784.595 705.047 784.867 705.048C785.139 705.049 785.408 705.108 785.656 705.221L808.47 715.564C808.718 715.676 808.939 715.84 809.12 716.044C809.3 716.248 809.434 716.488 809.515 716.748C809.595 717.008 809.62 717.282 809.587 717.553C809.553 717.823 809.463 718.083 809.322 718.316L797.46 737.929C797.216 738.332 796.832 738.632 796.382 738.771C795.932 738.91 795.446 738.88 795.017 738.685Z" fill="url(#paint53_linear_2_29)"/>
<path d="M808.921 720.721L781.48 708.281C781.204 708.155 780.981 707.935 780.853 707.66C780.725 707.385 780.699 707.073 780.78 706.781L781.839 703.013C781.889 702.837 781.976 702.673 782.094 702.534C782.213 702.394 782.36 702.282 782.526 702.205C782.692 702.128 782.873 702.087 783.056 702.086C783.239 702.085 783.42 702.123 783.587 702.199L812.105 715.128C812.272 715.203 812.42 715.314 812.54 715.453C812.661 715.591 812.749 715.754 812.801 715.93C812.852 716.106 812.864 716.29 812.838 716.472C812.811 716.653 812.745 716.826 812.645 716.98L810.509 720.26C810.343 720.513 810.091 720.699 809.8 720.783C809.509 720.868 809.197 720.846 808.921 720.721Z" fill="url(#paint54_linear_2_29)"/>
<path d="M398.62 134.39C404.139 131.342 407.365 135.133 407.47 138.53C407.624 143.345 405.198 144.396 412.222 147.143C417.407 149.171 419.742 155.092 415.208 159.227C408.867 165.008 417.241 166.763 419.674 170.107C424.7 177.017 419.397 180.04 410.977 185.704C402.331 191.52 394.882 191.069 387.071 186.411C381.301 182.969 377.38 178.561 379.377 173.438C382.241 166.082 390.021 169.093 386.058 163.308C383.692 159.845 382.099 152.821 390.58 150.443C399.062 148.065 390.67 138.778 398.62 134.39Z" fill="url(#paint55_linear_2_29)"/>
<path d="M361.115 129.4C353.376 129.366 352.131 135.346 354.019 139.069C356.695 144.342 359.919 144.048 353.963 151.143C349.572 156.376 350.541 164.129 357.858 165.913C368.091 168.405 360.101 175.228 359.45 180.262C358.107 190.659 365.6 190.795 378.002 191.941C390.735 193.118 398.493 188.25 404.166 178.635C408.358 171.535 409.982 164.479 404.819 160.135C397.402 153.9 390.797 161.721 391.66 153.158C392.176 148.036 389.757 139.531 379.221 141.963C368.686 144.395 372.26 129.449 361.115 129.4Z" fill="url(#paint56_linear_2_29)"/>
<path d="M384.583 178.433C379.183 191.225 378.266 199.388 388.181 198.361C398.096 197.335 405.523 169.777 397.328 166.446C391.548 164.096 387.157 172.331 384.583 178.433Z" fill="url(#paint57_linear_2_29)"/>
<path d="M389.497 226.05L411.532 221.55C412.864 221.278 414.055 220.542 414.894 219.473C415.733 218.403 416.164 217.071 416.111 215.713L414.9 185.062C414.894 184.896 414.852 184.734 414.777 184.587C414.701 184.44 414.595 184.31 414.465 184.208C414.335 184.106 414.184 184.034 414.023 183.996C413.862 183.957 413.695 183.955 413.533 183.988L372.931 192.279C372.769 192.312 372.616 192.38 372.482 192.478C372.349 192.577 372.239 192.703 372.159 192.848C372.079 192.993 372.032 193.154 372.021 193.319C372.009 193.484 372.034 193.65 372.093 193.805L382.999 222.473C383.482 223.743 384.4 224.8 385.591 225.455C386.781 226.111 388.166 226.321 389.497 226.05Z" fill="url(#paint58_linear_2_29)"/>
<path d="M368.185 160.927C375.473 161.611 381.77 163.311 377.741 166.235C373.711 169.159 356.976 165.896 358.565 162.702C359.686 160.449 364.71 160.601 368.185 160.927Z" fill="url(#paint59_linear_2_29)"/>
<path d="M363.267 139.098C365.724 143.103 367.79 144.965 369.46 142.034C371.13 139.102 365.009 131.631 362.478 133.23C360.691 134.357 362.094 137.188 363.267 139.098Z" fill="url(#paint60_linear_2_29)"/>
<path d="M401.172 140.232C400.357 144.861 400.671 147.622 403.87 146.537C407.068 145.452 407.429 135.794 404.469 135.315C402.386 134.976 401.56 138.025 401.172 140.232Z" fill="url(#paint61_linear_2_29)"/>
<path d="M413.313 158.99C415.759 155.724 416.603 153.463 413.699 153.052C410.795 152.641 406.73 159.974 408.829 161.506C410.31 162.586 412.146 160.544 413.313 158.99Z" fill="url(#paint62_linear_2_29)"/>
<path d="M378.312 157.534C375.421 157.174 373.722 157.455 374.492 159.399C375.262 161.343 381.257 161.271 381.462 159.423C381.607 158.125 379.692 157.706 378.312 157.534Z" fill="url(#paint63_linear_2_29)"/>
<defs>
<linearGradient id="paint0_linear_2_29" x1="1348.98" y1="28.0524" x2="1302.06" y2="298.994" gradientUnits="userSpaceOnUse">
<stop stop-color="#FEE00A"/>
<stop offset="1" stop-color="#EA7A15"/>
</linearGradient>
<linearGradient id="paint1_linear_2_29" x1="977.95" y1="254.023" x2="900.379" y2="451.448" gradientUnits="userSpaceOnUse">
<stop stop-color="#FEE00A"/>
<stop offset="1" stop-color="#CE286F"/>
</linearGradient>
<linearGradient id="paint2_linear_2_29" x1="908.699" y1="290.524" x2="779.895" y2="527.309" gradientUnits="userSpaceOnUse">
<stop stop-color="#EA7A15"/>
<stop offset="1" stop-color="#D82B1B"/>
</linearGradient>
<linearGradient id="paint3_linear_2_29" x1="667.315" y1="327.493" x2="1010.1" y2="327.493" gradientUnits="userSpaceOnUse">
<stop stop-color="#228BC5"/>
<stop offset="1" stop-color="#CE286F"/>
</linearGradient>
<linearGradient id="paint4_linear_2_29" x1="655.597" y1="330.13" x2="984.597" y2="330.13" gradientUnits="userSpaceOnUse">
<stop stop-color="#1E2369"/>
<stop offset="0.347" stop-color="#1E2369"/>
<stop offset="1" stop-color="#228BC5"/>
</linearGradient>
<linearGradient id="paint5_linear_2_29" x1="737.16" y1="292.734" x2="743.63" y2="305.882" gradientUnits="userSpaceOnUse">
<stop stop-color="#FEE00A"/>
<stop offset="1" stop-color="#D82B1B"/>
</linearGradient>
<linearGradient id="paint6_linear_2_29" x1="842.246" y1="268.61" x2="839.988" y2="300.614" gradientUnits="userSpaceOnUse">
<stop stop-color="#FEA600"/>
<stop offset="1" stop-color="#FEE00A"/>
</linearGradient>
<linearGradient id="paint7_linear_2_29" x1="952.174" y1="389.381" x2="967.469" y2="336.821" gradientUnits="userSpaceOnUse">
<stop stop-color="#FEA600"/>
<stop offset="1" stop-color="#EF1829"/>
</linearGradient>
<linearGradient id="paint8_linear_2_29" x1="944.784" y1="399.085" x2="960.081" y2="346.522" gradientUnits="userSpaceOnUse">
<stop stop-color="#FEA600"/>
<stop offset="1" stop-color="#EF1829"/>
</linearGradient>
<linearGradient id="paint9_linear_2_29" x1="866.26" y1="409.559" x2="870.355" y2="398.426" gradientUnits="userSpaceOnUse">
<stop stop-color="#FEA600"/>
<stop offset="1" stop-color="#EF1829"/>
</linearGradient>
<linearGradient id="paint10_linear_2_29" x1="688.464" y1="357.703" x2="942.533" y2="374.639" gradientUnits="userSpaceOnUse">
<stop stop-color="#FEA600"/>
<stop offset="1" stop-color="#EA7A15"/>
</linearGradient>
<linearGradient id="paint11_linear_2_29" x1="658.262" y1="349.468" x2="912.331" y2="366.404" gradientUnits="userSpaceOnUse">
<stop stop-color="#FEA600"/>
<stop offset="1" stop-color="#EA7A15"/>
</linearGradient>
<linearGradient id="paint12_linear_2_29" x1="915.459" y1="398.626" x2="956.178" y2="406.934" gradientUnits="userSpaceOnUse">
<stop stop-color="#1FA6B2"/>
<stop offset="1" stop-color="#228BC5"/>
</linearGradient>
<linearGradient id="paint13_linear_2_29" x1="893.904" y1="380.403" x2="893.904" y2="440.84" gradientUnits="userSpaceOnUse">
<stop stop-color="#228BC5"/>
<stop offset="1" stop-color="#1FA6B2"/>
</linearGradient>
<linearGradient id="paint14_linear_2_29" x1="909.551" y1="415.808" x2="909.017" y2="473.529" gradientUnits="userSpaceOnUse">
<stop stop-color="#1E2369"/>
<stop offset="1" stop-color="#1FA6B2"/>
</linearGradient>
<linearGradient id="paint15_linear_2_29" x1="898.987" y1="433.644" x2="909.529" y2="579.849" gradientUnits="userSpaceOnUse">
<stop stop-color="#0000FF"/>
<stop offset="1" stop-color="#9E005D"/>
</linearGradient>
<linearGradient id="paint16_linear_2_29" x1="927.721" y1="440.817" x2="1004.21" y2="537.23" gradientUnits="userSpaceOnUse">
<stop stop-color="#0000FF"/>
<stop offset="1" stop-color="#9E005D"/>
</linearGradient>
<linearGradient id="paint17_linear_2_29" x1="907.874" y1="432.214" x2="984.714" y2="471.221" gradientUnits="userSpaceOnUse">
<stop stop-color="#0000FF"/>
<stop offset="1" stop-color="#9E005D"/>
</linearGradient>
<linearGradient id="paint18_linear_2_29" x1="877.557" y1="438.129" x2="938.92" y2="456.785" gradientUnits="userSpaceOnUse">
<stop stop-color="#0000FF"/>
<stop offset="1" stop-color="#9E005D"/>
</linearGradient>
<linearGradient id="paint19_linear_2_29" x1="884.76" y1="435.853" x2="967.688" y2="525.849" gradientUnits="userSpaceOnUse">
<stop stop-color="#0000FF"/>
<stop offset="1" stop-color="#9E005D"/>
</linearGradient>
<linearGradient id="paint20_linear_2_29" x1="935.988" y1="566.383" x2="935.988" y2="622.074" gradientUnits="userSpaceOnUse">
<stop stop-color="#36078B"/>
<stop offset="1" stop-color="#168D68"/>
</linearGradient>
<linearGradient id="paint21_linear_2_29" x1="962.027" y1="585.295" x2="962.027" y2="661.748" gradientUnits="userSpaceOnUse">
<stop stop-color="#36078B"/>
<stop offset="1" stop-color="#168D68"/>
</linearGradient>
<linearGradient id="paint22_linear_2_29" x1="526.99" y1="411.142" x2="527.193" y2="460.397" gradientUnits="userSpaceOnUse">
<stop stop-color="#36078B"/>
<stop offset="1" stop-color="#1FA6B2"/>
</linearGradient>
<linearGradient id="paint23_linear_2_29" x1="543.465" y1="642.551" x2="543.465" y2="482.779" gradientUnits="userSpaceOnUse">
<stop stop-color="#1E2369"/>
<stop offset="1" stop-color="#1E2369"/>
</linearGradient>
<linearGradient id="paint24_linear_2_29" x1="536.186" y1="531.962" x2="531.408" y2="483.213" gradientUnits="userSpaceOnUse">
<stop stop-color="#1E2369"/>
<stop offset="1" stop-color="#228BC5"/>
</linearGradient>
<linearGradient id="paint25_linear_2_29" x1="333.288" y1="1295.28" x2="333.288" y2="1135.51" gradientUnits="userSpaceOnUse">
<stop stop-color="#228BC5"/>
<stop offset="1" stop-color="#228BC5"/>
</linearGradient>
<linearGradient id="paint26_linear_2_29" x1="-1220.07" y1="-1190.67" x2="-1220.07" y2="-1319.66" gradientUnits="userSpaceOnUse">
<stop stop-color="#228BC5"/>
<stop offset="1" stop-color="#228BC5"/>
</linearGradient>
<linearGradient id="paint27_linear_2_29" x1="721.129" y1="386.184" x2="726.079" y2="425.409" gradientUnits="userSpaceOnUse">
<stop stop-color="#36078B"/>
<stop offset="1" stop-color="#168D68"/>
</linearGradient>
<linearGradient id="paint28_linear_2_29" x1="695.961" y1="394.004" x2="699.272" y2="447.916" gradientUnits="userSpaceOnUse">
<stop stop-color="#36078B"/>
<stop offset="1" stop-color="#168D68"/>
</linearGradient>
<linearGradient id="paint29_linear_2_29" x1="595.148" y1="408.917" x2="610.373" y2="425.441" gradientUnits="userSpaceOnUse">
<stop stop-color="#228BC5"/>
<stop offset="1" stop-color="#1FA6B2"/>
</linearGradient>
<linearGradient id="paint30_linear_2_29" x1="576.746" y1="402.762" x2="604.349" y2="442.712" gradientUnits="userSpaceOnUse">
<stop stop-color="#1E2369"/>
<stop offset="1" stop-color="#1FA6B2"/>
</linearGradient>
<linearGradient id="paint31_linear_2_29" x1="585.695" y1="493.605" x2="586.243" y2="633.728" gradientUnits="userSpaceOnUse">
<stop stop-color="#CE286F"/>
<stop offset="1" stop-color="#D82B1B"/>
</linearGradient>
<linearGradient id="paint32_linear_2_29" x1="569.344" y1="493.783" x2="590.435" y2="630.931" gradientUnits="userSpaceOnUse">
<stop stop-color="#CE286F"/>
<stop offset="1" stop-color="#D82B1B"/>
</linearGradient>
<linearGradient id="paint33_linear_2_29" x1="575.899" y1="493.716" x2="591.44" y2="632.271" gradientUnits="userSpaceOnUse">
<stop stop-color="#CE286F"/>
<stop offset="1" stop-color="#D82B1B"/>
</linearGradient>
<linearGradient id="paint34_linear_2_29" x1="596.687" y1="493.499" x2="632.52" y2="624.243" gradientUnits="userSpaceOnUse">
<stop stop-color="#CE286F"/>
<stop offset="1" stop-color="#D82B1B"/>
</linearGradient>
<linearGradient id="paint35_linear_2_29" x1="593.714" y1="493.52" x2="611.517" y2="631.592" gradientUnits="userSpaceOnUse">
<stop stop-color="#CE286F"/>
<stop offset="1" stop-color="#D82B1B"/>
</linearGradient>
<linearGradient id="paint36_linear_2_29" x1="567.868" y1="408.304" x2="547.724" y2="433.59" gradientUnits="userSpaceOnUse">
<stop stop-color="#228BC5"/>
<stop offset="1" stop-color="#1FA6B2"/>
</linearGradient>
<linearGradient id="paint37_linear_2_29" x1="961.76" y1="715.988" x2="970.414" y2="697.992" gradientUnits="userSpaceOnUse">
<stop stop-color="#36078B"/>
<stop offset="1" stop-color="#16B1FF"/>
</linearGradient>
<linearGradient id="paint38_linear_2_29" x1="986.581" y1="840.426" x2="1000.49" y2="824.824" gradientUnits="userSpaceOnUse">
<stop stop-color="#36078B"/>
<stop offset="1" stop-color="#16B1FF"/>
</linearGradient>
<linearGradient id="paint39_linear_2_29" x1="952.467" y1="998.608" x2="968.012" y2="989.049" gradientUnits="userSpaceOnUse">
<stop stop-color="#36078B"/>
<stop offset="1" stop-color="#16B1FF"/>
</linearGradient>
<linearGradient id="paint40_linear_2_29" x1="854.207" y1="1121.99" x2="868.492" y2="1115.22" gradientUnits="userSpaceOnUse">
<stop stop-color="#36078B"/>
<stop offset="1" stop-color="#16B1FF"/>
</linearGradient>
<linearGradient id="paint41_linear_2_29" x1="972.351" y1="754.912" x2="1011.83" y2="692.663" gradientUnits="userSpaceOnUse">
<stop stop-color="#36078B"/>
<stop offset="1" stop-color="#16B1FF"/>
</linearGradient>
<linearGradient id="paint42_linear_2_29" x1="771.139" y1="715.788" x2="844.06" y2="690.774" gradientUnits="userSpaceOnUse">
<stop offset="0.483" stop-color="#36078B"/>
<stop offset="1" stop-color="#16B1FF"/>
</linearGradient>
<linearGradient id="paint43_linear_2_29" x1="326.279" y1="607.238" x2="374.067" y2="582.583" gradientUnits="userSpaceOnUse">
<stop stop-color="#36078B"/>
<stop offset="1" stop-color="#16B1FF"/>
</linearGradient>
<linearGradient id="paint44_linear_2_29" x1="797.993" y1="729.144" x2="763.182" y2="718.378" gradientUnits="userSpaceOnUse">
<stop offset="0.483" stop-color="#36078B"/>
<stop offset="1" stop-color="#16B1FF"/>
</linearGradient>
<linearGradient id="paint45_linear_2_29" x1="835.366" y1="734.079" x2="896.908" y2="649.896" gradientUnits="userSpaceOnUse">
<stop stop-color="#36078B"/>
<stop offset="1" stop-color="#16B1FF"/>
</linearGradient>
<linearGradient id="paint46_linear_2_29" x1="774.352" y1="717.754" x2="890.657" y2="660.509" gradientUnits="userSpaceOnUse">
<stop offset="0.483" stop-color="#36078B"/>
<stop offset="1" stop-color="#16B1FF"/>
</linearGradient>
<linearGradient id="paint47_linear_2_29" x1="816.5" y1="651.335" x2="846.223" y2="585.946" gradientUnits="userSpaceOnUse">
<stop stop-color="#36078B"/>
<stop offset="1" stop-color="#16B1FF"/>
</linearGradient>
<linearGradient id="paint48_linear_2_29" x1="781.355" y1="718.169" x2="854.632" y2="666.417" gradientUnits="userSpaceOnUse">
<stop offset="0.483" stop-color="#36078B"/>
<stop offset="1" stop-color="#16B1FF"/>
</linearGradient>
<linearGradient id="paint49_linear_2_29" x1="845.102" y1="665.814" x2="846.389" y2="654.777" gradientUnits="userSpaceOnUse">
<stop stop-color="#36078B"/>
<stop offset="1" stop-color="#16B1FF"/>
</linearGradient>
<linearGradient id="paint50_linear_2_29" x1="853.673" y1="653.815" x2="854.108" y2="643.774" gradientUnits="userSpaceOnUse">
<stop stop-color="#36078B"/>
<stop offset="1" stop-color="#16B1FF"/>
</linearGradient>
<linearGradient id="paint51_linear_2_29" x1="827.865" y1="649.294" x2="833.699" y2="648.894" gradientUnits="userSpaceOnUse">
<stop stop-color="#36078B"/>
<stop offset="1" stop-color="#16B1FF"/>
</linearGradient>
<linearGradient id="paint52_linear_2_29" x1="841.291" y1="639.635" x2="847.916" y2="638.691" gradientUnits="userSpaceOnUse">
<stop stop-color="#36078B"/>
<stop offset="1" stop-color="#16B1FF"/>
</linearGradient>
<linearGradient id="paint53_linear_2_29" x1="805.771" y1="695.48" x2="805.771" y2="717.287" gradientUnits="userSpaceOnUse">
<stop stop-color="#2C27CE"/>
<stop offset="1" stop-color="#EF1D68"/>
</linearGradient>
<linearGradient id="paint54_linear_2_29" x1="805.785" y1="701.055" x2="805.785" y2="691.568" gradientUnits="userSpaceOnUse">
<stop stop-color="#2C27CE"/>
<stop offset="1" stop-color="#EF1D68"/>
</linearGradient>
<linearGradient id="paint55_linear_2_29" x1="397.729" y1="169.748" x2="446.3" y2="142.076" gradientUnits="userSpaceOnUse">
<stop stop-color="#F70F47"/>
<stop offset="1" stop-color="#FFB41D"/>
</linearGradient>
<linearGradient id="paint56_linear_2_29" x1="393.779" y1="211.397" x2="361.966" y2="103.463" gradientUnits="userSpaceOnUse">
<stop stop-color="#F70F47"/>
<stop offset="1" stop-color="#FFB41D"/>
</linearGradient>
<linearGradient id="paint57_linear_2_29" x1="414.223" y1="137.563" x2="384.592" y2="161.903" gradientUnits="userSpaceOnUse">
<stop stop-color="#F70F47"/>
<stop offset="1" stop-color="#FFB41D"/>
</linearGradient>
<linearGradient id="paint58_linear_2_29" x1="395.932" y1="243.722" x2="389.774" y2="155.925" gradientUnits="userSpaceOnUse">
<stop stop-color="#36078B"/>
<stop offset="1" stop-color="#16B1FF"/>
</linearGradient>
<linearGradient id="paint59_linear_2_29" x1="389.682" y1="124.047" x2="389.261" y2="160.419" gradientUnits="userSpaceOnUse">
<stop stop-color="#F70F47"/>
<stop offset="1" stop-color="#FFB41D"/>
</linearGradient>
<linearGradient id="paint60_linear_2_29" x1="378.939" y1="118.119" x2="350.099" y2="144.517" gradientUnits="userSpaceOnUse">
<stop stop-color="#F70F47"/>
<stop offset="1" stop-color="#FFB41D"/>
</linearGradient>
<linearGradient id="paint61_linear_2_29" x1="387.132" y1="203.396" x2="451.971" y2="153.391" gradientUnits="userSpaceOnUse">
<stop stop-color="#F70F47"/>
<stop offset="1" stop-color="#FFB41D"/>
</linearGradient>
<linearGradient id="paint62_linear_2_29" x1="397.667" y1="206.937" x2="436.34" y2="116.9" gradientUnits="userSpaceOnUse">
<stop stop-color="#F70F47"/>
<stop offset="1" stop-color="#FFB41D"/>
</linearGradient>
<linearGradient id="paint63_linear_2_29" x1="395.589" y1="127.298" x2="392.083" y2="164.971" gradientUnits="userSpaceOnUse">
<stop stop-color="#F70F47"/>
<stop offset="1" stop-color="#FFB41D"/>
</linearGradient>
</defs>
</svg>
