<svg width="424" height="741" viewBox="0 0 424 741" fill="none" xmlns="http://www.w3.org/2000/svg">
<mask id="mask0_2_358" style="mask-type:luminance" maskUnits="userSpaceOnUse" x="103" y="186" width="599" height="505">
<path d="M700.227 310.589C710.017 240.657 657.465 222.076 621.492 234.572C570.529 252.28 569.251 281.815 512.392 219.316C493.088 198.093 464.677 183.74 435.51 186.871C414.534 189.128 394.469 200.679 383.046 218.416C376.691 228.283 373.087 239.643 367.729 250.086C362.371 260.528 354.533 270.573 343.402 274.295C332.682 277.879 320.834 274.944 310.535 270.282C285.769 259.069 266.295 237.965 240.446 228.959C218.655 221.365 191.117 221.178 170.423 232.037C143.336 246.252 129.429 276.66 119.558 304.104C107.982 336.288 103.135 370.746 104.098 404.884C105.329 448.616 115.925 491.799 132.423 532.319C147.11 568.392 166.726 602.863 193.558 631.094C235.99 675.74 314.348 717.479 368.737 668.12C434.221 608.694 371.608 539.386 447.961 557.67C493.649 568.61 573.524 557.166 564.444 458.929C555.364 360.691 686.127 411.303 700.227 310.589Z" fill="white"/>
</mask>
<g mask="url(#mask0_2_358)">
<path d="M173.892 103.935L236.032 103.927C301.659 128.782 285.789 201.701 337.336 155.833C357.448 137.939 391.942 121.316 423.797 130.999L423.837 456.002C418.055 451.718 412.581 446.96 406.654 442.867C397.682 436.67 386.86 431.884 376.108 433.719C365.759 435.492 357.347 443.094 350.964 451.431C335.608 471.482 328.928 497.307 311.717 516.032C297.21 531.814 274.748 544.053 253.04 544.246C224.626 544.497 199.89 525.708 179.766 507.572C156.167 486.302 137.074 460.216 122.877 431.848C104.69 395.502 94.4068 355.496 90.1339 315.084C86.3271 279.104 87.2521 242.273 96.828 207.385C106.446 172.342 128.448 131.895 160.175 111.281C164.526 108.44 169.116 105.983 173.892 103.935Z" fill="url(#paint0_linear_2_358)"/>
<path d="M423.792 103.905L423.826 370.122C412.784 366.525 402.891 360.067 395.157 351.404C387.806 343.026 382.828 332.858 376.334 323.8C369.841 314.742 361.067 306.397 350.089 304.461C339.517 302.596 328.797 307.013 319.777 312.834C310.003 319.144 301.518 327.189 293.039 335.231C282.699 345.036 272.369 354.836 259.719 361.475C240.313 371.66 214.47 375.694 193.51 368.392C166.074 358.832 148.745 332.212 135.633 307.815C120.252 279.202 110.873 247.509 106.996 215.307C102.531 178.231 105.232 140.51 112.958 103.943L423.792 103.905Z" fill="url(#paint1_linear_2_358)"/>
</g>
<defs>
<linearGradient id="paint0_linear_2_358" x1="341.673" y1="487.187" x2="320.69" y2="338.69" gradientUnits="userSpaceOnUse">
<stop stop-color="#228BC5"/>
<stop offset="1" stop-color="#1E2369"/>
</linearGradient>
<linearGradient id="paint1_linear_2_358" x1="353.597" y1="416.678" x2="344.127" y2="262.428" gradientUnits="userSpaceOnUse">
<stop stop-color="#1FA6B2"/>
<stop offset="1" stop-color="#2A8B4B"/>
</linearGradient>
</defs>
</svg>
