<svg width="547" height="595" viewBox="0 0 547 595" fill="none" xmlns="http://www.w3.org/2000/svg">
<mask id="mask0_2_365" style="mask-type:luminance" maskUnits="userSpaceOnUse" x="-235" y="0" width="783" height="595">
<path d="M518.979 443.795C576.799 377.223 534.409 322.019 488.239 310.637C422.827 294.514 401.398 324.573 384.371 220.449C378.593 185.098 358.606 150.734 325.933 134.179C302.433 122.279 273.565 120.722 249.533 131.525C236.163 137.536 224.665 146.978 211.951 154.269C199.237 161.56 184.197 166.746 170.009 163.069C156.346 159.529 145.935 148.398 138.322 136.51C120.015 107.922 113.978 72.5758 93.0349 45.5558C75.3828 22.7808 46.6729 3.85576 17.6169 1.14776C-20.4161 -2.39224 -55.6641 19.9908 -84.6681 42.0138C-118.682 67.8418 -147.195 100.628 -169.409 137.031C-197.866 183.664 -216.145 236.091 -226.431 289.742C-235.589 337.507 -238.495 386.942 -229.602 434.76C-215.539 510.38 -161.876 607.387 -71.3481 592.697C37.6449 575.012 19.2279 459.846 86.7419 530.928C127.142 573.462 218.569 615.81 275.889 506.763C333.209 397.716 435.706 539.667 518.979 443.795Z" fill="white"/>
</mask>
<g mask="url(#mask0_2_365)">
<path d="M193.779 462.278C169.752 457.629 147.679 442.326 136.205 420.711C129.819 408.687 126.76 395.211 121.581 382.617C116.402 370.023 108.324 357.651 95.8188 352.265C83.7758 347.08 69.7948 349.318 57.4398 353.707C37.0908 360.932 19.1589 373.759 -0.00109863 383.665V-35H194.76C200.923 11.357 181.46 44.453 244.24 34.9C298.111 26.7 389.324 47.7001 369.276 160.366C352.788 253.017 455.411 238.517 495.999 295.946V407.823C475.573 434.043 439.751 436.954 413.388 425.233C356.205 399.809 357.602 365.546 285.799 432.256C265.499 451.119 238.348 463.868 210.542 463.87C204.916 463.875 199.303 463.342 193.779 462.278Z" fill="url(#paint0_linear_2_365)"/>
<path d="M436.988 378.986C390.72 334.792 403.888 302.293 311.765 341.735C280.489 355.126 242.765 356.635 212.839 338.888C191.316 326.129 175.356 303.788 171.759 279.022C169.759 265.248 171.466 251.216 170.827 237.313C170.188 223.41 166.676 208.713 156.499 199.213C146.699 190.068 132.467 187.402 119.062 187.363C104.534 187.32 90.1768 189.973 75.8278 192.626C58.3278 195.861 40.8489 199.095 23.0869 197.444C15.2557 196.696 7.52071 195.155 0.000915527 192.844V-34.9961H459.235C474.107 -25.5611 487.407 -13.0191 496 2.78394V88.552C493.049 95.5132 489.676 102.288 485.9 108.838C462.829 149.112 475.028 174.944 496 198.673V400.005C493.667 400.258 491.323 400.384 488.977 400.383C469.517 400.38 450.441 391.835 436.988 378.986Z" fill="url(#paint1_linear_2_365)"/>
</g>
<defs>
<linearGradient id="paint0_linear_2_365" x1="184.015" y1="442.419" x2="255.626" y2="284.087" gradientUnits="userSpaceOnUse">
<stop stop-color="#FEE00A"/>
<stop offset="1" stop-color="#CE286F"/>
</linearGradient>
<linearGradient id="paint1_linear_2_365" x1="174.593" y1="401.254" x2="248.004" y2="237.187" gradientUnits="userSpaceOnUse">
<stop stop-color="#EA7A15"/>
<stop offset="1" stop-color="#D82B1B"/>
</linearGradient>
</defs>
</svg>
