<svg width="80" height="81" viewBox="0 0 80 81" fill="none" xmlns="http://www.w3.org/2000/svg">
<path opacity="0.2" d="M39.9999 0.797852C47.9112 0.797852 55.6448 3.14381 62.2227 7.53907C68.8007 11.9343 73.9276 18.1815 76.9551 25.4905C79.9826 32.7996 80.7748 40.8422 79.2314 48.6015C77.6879 56.3607 73.8783 63.488 68.2842 69.0821C62.6901 74.6762 55.5628 78.4859 47.8036 80.0293C40.0443 81.5727 32.0016 80.7805 24.6926 77.753C17.3836 74.7255 11.1364 69.5986 6.74115 63.0207C2.3459 56.4427 -6.10352e-05 48.7091 -6.10352e-05 40.7979C-6.10352e-05 30.1892 4.21421 20.015 11.7157 12.5136C19.2171 5.01213 29.3913 0.797852 39.9999 0.797852Z" fill="#D82B1B"/>
<path d="M41.4309 38.6329C41.42 41.542 41.0187 44.4365 40.2379 47.2389C39.6324 49.7119 38.5911 52.0572 37.1629 54.1649C36.2814 55.4919 35.0838 56.5791 33.678 57.3286C32.2721 58.0781 30.7021 58.4665 29.1089 58.4589C27.6269 58.4987 26.1591 58.1595 24.8448 57.4736C23.5304 56.7876 22.4128 55.7775 21.5979 54.5389C19.7706 51.9209 18.8569 48.3542 18.8569 43.8389C18.8569 38.3009 20.0703 33.6402 22.4969 29.8569C24.9516 26.0736 27.9516 24.1819 31.4969 24.1819C32.9395 24.1572 34.364 24.5058 35.6322 25.1938C36.9004 25.8819 37.9692 26.8861 38.7349 28.1089C40.5323 30.7236 41.4309 34.2316 41.4309 38.6329ZM36.7659 38.3959C36.895 35.9291 36.4141 33.4686 35.3659 31.2319C35.043 30.4687 34.5054 29.8156 33.8184 29.3521C33.1314 28.8886 32.3246 28.6346 31.4959 28.6209C29.2506 28.6209 27.3539 30.1456 25.8059 33.1949C24.1706 36.7116 23.3815 40.5624 23.5019 44.4389C23.382 46.8726 23.8711 49.2979 24.9249 51.4949C25.2788 52.2457 25.8379 52.8811 26.5375 53.3278C27.2372 53.7744 28.0489 54.014 28.8789 54.0189C30.9709 54.0189 32.7213 52.7962 34.1299 50.3509C35.0273 48.6587 35.6622 46.8399 36.0129 44.9569C36.5027 42.804 36.7559 40.6038 36.7659 38.3959ZM58.0409 24.6729L54.0659 57.9879H49.2719L52.7269 29.2689H46.3719L48.5479 24.6689L58.0409 24.6729Z" fill="#D82B1B"/>
</svg>
