<svg width="315" height="785" viewBox="0 0 315 785" fill="none" xmlns="http://www.w3.org/2000/svg">
<mask id="mask0_2_350" style="mask-type:luminance" maskUnits="userSpaceOnUse" x="-336" y="161" width="542" height="567">
<path d="M201.739 217.284C183.436 149.127 127.836 152.556 99.6231 178.099C59.6548 214.291 70.0134 241.96 -6.70045 206.669C-32.7465 194.683 -64.4875 192.574 -90.0962 206.844C-108.511 217.112 -122.459 235.574 -126.041 256.351C-128.034 267.91 -126.914 279.768 -127.765 291.467C-128.616 303.166 -131.904 315.467 -140.69 323.238C-149.153 330.721 -161.198 332.648 -172.492 332.381C-199.655 331.737 -225.811 319.927 -253.107 321.737C-276.119 323.26 -301.525 333.842 -316.322 351.912C-335.689 375.567 -336.608 408.971 -334.972 438.073C-333.053 472.201 -324.055 505.792 -309.839 536.821C-291.628 576.571 -265.017 612.159 -234.018 642.992C-206.42 670.442 -174.913 694.492 -139.205 709.985C-82.7351 734.487 5.64798 742.284 36.4077 675.637C73.4423 595.398 -11.2223 556.09 66.1576 543.094C112.459 535.316 181.47 493.597 134.755 406.77C88.0397 319.944 228.098 315.44 201.739 217.284Z" fill="white"/>
</mask>
<g mask="url(#mask0_2_350)">
<path d="M132.984 177.859C189.275 211.461 172.145 260.291 142.175 279.045C99.7174 305.615 77.6067 289.356 89.7454 366.854C93.8671 393.163 87.725 422.071 68.4923 441.349C54.6563 455.213 34.6252 463.012 15.1483 460.955C10.0515 460.334 5.01045 459.32 0.0705462 457.92L0.0376647 206.339C39.5297 195.106 75.9584 143.82 132.984 177.859Z" fill="url(#paint0_linear_2_350)"/>
<path d="M148.105 142.127C190.693 193.886 157.368 234.979 122.048 242.692C72.0179 253.619 56.341 230.343 41.2952 309.119C36.5253 334.077 22.3783 358.135 0.0579791 370.924L0.0234729 122.067C43.2921 133.288 101.342 85.3004 148.105 142.127Z" fill="url(#paint1_linear_2_350)"/>
</g>
<defs>
<linearGradient id="paint0_linear_2_350" x1="97.3419" y1="386.274" x2="52.0393" y2="333.206" gradientUnits="userSpaceOnUse">
<stop stop-color="#228BC5"/>
<stop offset="1" stop-color="#1E2369"/>
</linearGradient>
<linearGradient id="paint1_linear_2_350" x1="93.3476" y1="316.545" x2="45.4229" y2="253.155" gradientUnits="userSpaceOnUse">
<stop stop-color="#1FA6B2"/>
<stop offset="1" stop-color="#2A8B4B"/>
</linearGradient>
</defs>
</svg>
