<svg width="80" height="81" viewBox="0 0 80 81" fill="none" xmlns="http://www.w3.org/2000/svg">
<path opacity="0.2" d="M39.9999 0.797852C47.9112 0.797852 55.6448 3.14381 62.2227 7.53907C68.8007 11.9343 73.9276 18.1815 76.9551 25.4905C79.9826 32.7996 80.7748 40.8422 79.2314 48.6015C77.6879 56.3607 73.8783 63.488 68.2842 69.0821C62.6901 74.6762 55.5628 78.4859 47.8036 80.0293C40.0443 81.5727 32.0016 80.7805 24.6926 77.753C17.3836 74.7255 11.1364 69.5986 6.74115 63.0207C2.3459 56.4427 -6.10352e-05 48.7091 -6.10352e-05 40.7979C-6.10352e-05 30.1892 4.21421 20.015 11.7157 12.5136C19.2171 5.01213 29.3913 0.797852 39.9999 0.797852Z" fill="#D82B1B"/>
<path d="M39.0819 37.5533C39.0704 40.4627 38.6575 43.3567 37.8549 46.1533C37.228 48.6331 36.1559 50.9785 34.6909 53.0753C33.7641 54.4119 32.5245 55.5016 31.0801 56.2495C29.6357 56.9974 28.0304 57.3808 26.4039 57.3663C24.8903 57.4116 23.3895 57.0759 22.0394 56.3901C20.6893 55.7043 19.5331 54.6903 18.6769 53.4413C16.7969 50.8246 15.8569 47.2579 15.8569 42.7413C15.8569 37.2079 17.1053 32.5503 19.6019 28.7683C22.1273 24.9876 25.2123 23.0973 28.8569 23.0973C30.3293 23.066 31.7853 23.4099 33.0881 24.0966C34.3909 24.7832 35.4975 25.79 36.3039 27.0223C38.1559 29.6436 39.0819 33.1539 39.0819 37.5533ZM34.2819 37.3163C34.413 34.8465 33.9169 32.3837 32.8399 30.1573C32.4956 29.3868 31.9373 28.7315 31.2314 28.269C30.5256 27.8065 29.7018 27.5563 28.8579 27.5483C26.5479 27.5483 24.5963 29.0719 23.0029 32.1193C21.325 35.6201 20.5132 39.473 20.6359 43.3533C20.5138 45.79 21.0178 48.2175 22.0999 50.4043C22.4762 51.1624 23.0568 51.8004 23.7763 52.2462C24.4958 52.692 25.3255 52.9279 26.1719 52.9273C28.3246 52.9273 30.1246 51.7053 31.5719 49.2613C32.4931 47.5755 33.1466 45.7568 33.5089 43.8703C34.0122 41.7216 34.2715 39.523 34.2819 37.3163ZM42.6979 48.6163H47.2609C47.4116 49.8665 48.0353 51.0115 49.0039 51.8163C50.0883 52.6043 51.4102 52.9965 52.7489 52.9273C53.5565 52.9608 54.3626 52.8333 55.1204 52.5523C55.8782 52.2712 56.5725 51.8422 57.1629 51.2903C57.729 50.7369 58.1728 50.0709 58.4656 49.3355C58.7584 48.6 58.8938 47.8113 58.8629 47.0203C58.8629 43.5843 56.6459 41.8663 52.2119 41.8663L52.7499 37.4893H53.9549C54.672 37.5411 55.3919 37.4422 56.0684 37.199C56.7449 36.9559 57.363 36.5737 57.8829 36.0773C58.877 34.9315 59.3764 33.4385 59.2719 31.9253C59.3031 31.3412 59.2163 30.7568 59.0167 30.207C58.817 29.6572 58.5086 29.1532 58.1099 28.7253C57.6767 28.3185 57.165 28.0045 56.6061 27.8025C56.0473 27.6005 55.4531 27.5146 54.8599 27.5503C51.8599 27.5503 50.2169 29.3543 49.9309 32.9623H45.5829C46.0136 26.3783 49.2853 23.0863 55.3979 23.0863C56.5495 23.0306 57.7007 23.2058 58.7836 23.6014C59.8666 23.9971 60.8595 24.6053 61.7039 25.3903C62.5027 26.2072 63.1236 27.1807 63.5274 28.2495C63.9311 29.3184 64.1091 30.4592 64.0499 31.6003C64.1217 33.3232 63.6766 35.0282 62.7719 36.4963C61.7392 37.9159 60.3142 39.0028 58.6719 39.6233C61.9866 40.9459 63.6439 43.4833 63.6439 47.2353C63.7001 48.606 63.4598 49.9728 62.9392 51.2422C62.4187 52.5115 61.6303 53.6536 60.6279 54.5903C58.4543 56.5057 55.6222 57.5031 52.7279 57.3723C51.3959 57.39 50.0696 57.1935 48.7999 56.7903C47.6853 56.431 46.6535 55.8531 45.7649 55.0903C44.8954 54.3289 44.1921 53.3965 43.6989 52.3513C43.1502 51.1737 42.8115 49.9104 42.6979 48.6163Z" fill="#D82B1B"/>
</svg>
