<svg width="80" height="81" viewBox="0 0 80 81" fill="none" xmlns="http://www.w3.org/2000/svg">
<path opacity="0.2" d="M39.9999 0.797852C47.9112 0.797852 55.6448 3.14381 62.2227 7.53907C68.8007 11.9343 73.9276 18.1815 76.9551 25.4905C79.9826 32.7996 80.7748 40.8422 79.2314 48.6015C77.6879 56.3607 73.8783 63.488 68.2842 69.0821C62.6901 74.6762 55.5628 78.4859 47.8036 80.0293C40.0443 81.5727 32.0016 80.7805 24.6926 77.753C17.3836 74.7255 11.1364 69.5986 6.74115 63.0207C2.3459 56.4427 -6.10352e-05 48.7091 -6.10352e-05 40.7979C-6.10352e-05 30.1892 4.21421 20.015 11.7157 12.5136C19.2171 5.01213 29.3913 0.797852 39.9999 0.797852Z" fill="#D82B1B"/>
<path d="M38.0819 37.6334C38.0704 40.5428 37.6575 43.4368 36.8549 46.2334C36.228 48.7132 35.1559 51.0586 33.6909 53.1554C32.7641 54.492 31.5245 55.5817 30.0801 56.3296C28.6357 57.0775 27.0304 57.4609 25.4039 57.4464C23.8903 57.4917 22.3895 57.156 21.0394 56.4702C19.6893 55.7844 18.5331 54.7705 17.6769 53.5214C15.7969 50.9047 14.8569 47.3381 14.8569 42.8214C14.8569 37.2881 16.1053 32.6304 18.6019 28.8484C21.1273 25.0677 24.2123 23.1774 27.8569 23.1774C29.3293 23.1462 30.7853 23.4901 32.0881 24.1767C33.3909 24.8633 34.4975 25.8701 35.3039 27.1024C37.1559 29.7237 38.0819 33.2341 38.0819 37.6334ZM33.2819 37.3964C33.413 34.9266 32.9169 32.4638 31.8399 30.2374C31.4956 29.467 30.9373 28.8116 30.2314 28.3491C29.5256 27.8866 28.7018 27.6365 27.8579 27.6284C25.5479 27.6284 23.5963 29.1521 22.0029 32.1994C20.325 35.7002 19.5132 39.5531 19.6359 43.4334C19.5138 45.8702 20.0178 48.2976 21.0999 50.4844C21.4762 51.2426 22.0568 51.8805 22.7763 52.3263C23.4958 52.7721 24.3255 53.008 25.1719 53.0074C27.3246 53.0074 29.1246 51.7854 30.5719 49.3414C31.4931 47.6556 32.1466 45.8369 32.5089 43.9504C33.0122 41.8017 33.2715 39.6032 33.2819 37.3964ZM62.3819 52.3834L61.8009 56.9764H40.3009L53.5579 42.3344C54.9353 40.8251 56.0329 39.5817 56.8509 38.6044C57.4624 37.8995 58.0301 37.1577 58.5509 36.3834C59.1731 35.3425 59.4853 34.1456 59.4509 32.9334C59.4622 32.1798 59.3344 31.4306 59.0739 30.7234C58.8397 30.0954 58.4727 29.5255 57.9979 29.0524C57.5114 28.5796 56.9274 28.2189 56.2869 27.9954C55.5607 27.7423 54.7959 27.6181 54.0269 27.6284C53.1915 27.6124 52.3601 27.7479 51.5729 28.0284C50.8866 28.285 50.277 28.7125 49.8019 29.2704C49.2815 29.9037 48.8902 30.6327 48.6499 31.4164C48.3357 32.4289 48.1407 33.4747 48.0689 34.5324H43.3989C43.6429 31.2551 44.3246 28.8184 45.4439 27.2224C47.3239 24.5197 50.2296 23.1684 54.1609 23.1684C55.4975 23.1025 56.8337 23.3052 58.0907 23.7645C59.3476 24.2238 60.4997 24.9303 61.4789 25.8424C62.4037 26.7567 63.1267 27.8547 63.6012 29.0655C64.0757 30.2763 64.2912 31.5732 64.2339 32.8724C64.2751 34.5952 63.8827 36.3007 63.0929 37.8324C62.5738 38.7486 61.9713 39.6149 61.2929 40.4204C60.4676 41.4411 59.4236 42.6487 58.1609 44.0434L50.4769 52.3884L62.3819 52.3834Z" fill="#D82B1B"/>
</svg>
