<svg width="535" height="176" viewBox="0 0 535 176" fill="none" xmlns="http://www.w3.org/2000/svg">
<path d="M99.5579 67.4887C98.2373 68.476 97.2122 69.8061 96.594 71.3347C95.9757 72.8632 95.7879 74.532 96.0509 76.1597C96.5229 79.2328 96.2939 82.3727 95.3809 85.3447C94.7109 87.4307 92.3959 94.4068 100.607 94.2448C108.818 94.0828 109.332 84.4707 108.386 79.5447C107.44 74.6187 109.168 71.1507 107.929 69.6517C106.69 68.1527 103.814 64.3757 99.5579 67.4887Z" fill="#2E1C00"/>
<path d="M130.589 85.4535C132.125 84.2455 133.67 82.9315 133.989 84.2985C134.321 85.7365 134.317 85.5865 133.221 86.5835C132.125 87.5805 129.297 86.4685 130.589 85.4535Z" fill="#FFAF84"/>
<path d="M130.636 85.1936C129.601 85.6606 122.336 87.1256 119.38 88.0486C119.354 88.0386 119.33 88.0276 119.301 88.0186C117.832 87.6116 113.788 85.6486 108.341 83.2326C106.74 82.733 105.011 82.8347 103.48 83.5186C102.506 84.0056 102.18 85.6686 103.947 86.5686C105.832 87.5514 107.786 88.3956 109.794 89.0946C112.67 90.2789 115.678 91.1109 118.754 91.5726C119.059 91.6513 119.378 91.6548 119.685 91.5826C122.46 91.0221 125.125 90.0107 127.574 88.5886C130.157 87.2366 131.168 87.6606 131.574 86.8436C131.91 86.1806 131.408 84.8466 130.636 85.1936Z" fill="url(#paint0_linear_2_583)"/>
<path d="M126.077 173.773C126.077 174.549 117.806 175.173 107.603 175.173C97.3999 175.173 89.1319 174.544 89.1319 173.773C89.1319 173.002 97.4019 172.373 107.603 172.373C117.804 172.373 126.077 173.002 126.077 173.773Z" fill="#D8D8D8"/>
<path d="M97.5509 169.521C97.6559 170.006 97.7205 170.499 97.7439 170.994C97.8369 171.587 98.3819 171.801 98.6969 172.288C99.0439 172.824 99.5899 173.688 97.4589 173.727C95.1789 173.772 93.8279 173.615 94.2139 172.327C94.4892 171.599 94.6367 170.828 94.6499 170.049C94.6145 169.856 94.6192 169.658 94.6636 169.467C94.7079 169.276 94.7911 169.096 94.9079 168.938C95.1659 168.686 97.2129 168.231 97.5509 169.521Z" fill="#79186A"/>
<path d="M101.734 77.5654C101.715 77.7334 101.446 81.3504 101.399 84.1244C101.376 85.4854 102.356 86.7754 103.336 86.8084H103.379C103.969 86.708 104.501 86.3924 104.871 85.9227C105.242 85.453 105.425 84.8625 105.386 84.2654C105.232 81.8494 105.347 79.3774 105.351 79.3394L101.734 77.5654Z" fill="#ED9169"/>
<path d="M98.9249 93.1899C99.7115 95.6695 100.292 98.2098 100.66 100.785C100.937 102.681 100.929 104.608 100.637 106.502C100.482 107.642 100.257 108.775 99.9979 109.895C99.8979 110.32 99.0659 113.748 99.0269 114.115H114.677C114.527 111.049 111.035 101.415 113.398 95.1789C115.035 90.8589 112.861 90.7269 111.385 87.1309C111.09 86.2083 110.669 85.3307 110.135 84.5229C109.514 83.7907 108.675 83.2763 107.741 83.0549C107.262 82.9478 106.774 82.8809 106.284 82.8549C103.637 82.6419 97.3999 81.8749 96.8149 85.6419C96.6805 86.6675 96.7866 87.7104 97.1249 88.6879C97.4739 89.7879 97.9969 90.8219 98.4349 91.8879C98.6119 92.3169 98.7749 92.7529 98.9249 93.1899Z" fill="url(#paint1_linear_2_583)"/>
<path d="M99.0899 124.051C99.0899 124.051 97.739 120.642 99.027 114.115H114.677C115.039 117.415 115.228 120.732 115.246 124.051H99.0899Z" fill="url(#paint2_linear_2_583)"/>
<path d="M102.18 145.307C103.434 140.019 98.2299 139.088 96.5869 142.913C94.2629 148.324 94.4479 165.613 94.5719 169.069C94.5879 169.522 94.8259 169.436 95.0779 169.345C95.5983 169.118 96.1636 169.012 96.7309 169.035C96.9165 169.089 97.0893 169.18 97.2392 169.302C97.3891 169.424 97.5131 169.575 97.6039 169.746C98.0929 165.043 100.967 150.428 102.18 145.307Z" fill="url(#paint3_linear_2_583)"/>
<path d="M106.859 124.764C107.408 118.196 104.902 113.094 100.974 115.264C99.3219 116.177 98.7169 118.003 98.4959 119.724C98.2749 121.445 97.0569 139.314 96.6309 142.543C95.6699 149.824 101.21 147.861 101.812 145.843C103.328 140.748 106.559 128.34 106.859 124.764Z" fill="url(#paint4_linear_2_583)"/>
<path d="M116.109 144.965C116.315 140.036 111.69 140.141 110.528 144.153C108.699 150.464 111.86 164.014 112.058 171.753C112.858 170.416 113.624 170.092 113.983 170.121C114.159 170.138 114.33 170.191 114.485 170.277C114.64 170.363 114.776 170.48 114.883 170.621C114.762 160.43 115.889 150.236 116.109 144.965Z" fill="url(#paint5_linear_2_583)"/>
<path d="M110.713 145.5C111.328 147.513 116.622 149.841 116.068 142.516C115.823 139.267 115.168 121.324 115.044 119.595C114.92 117.866 114.629 115.337 113.793 115.022C109.612 113.444 105.559 118.604 106.659 125.098C107.392 129.436 109.437 141.326 110.713 145.5Z" fill="url(#paint6_linear_2_583)"/>
<path d="M132.978 83.8513C133.671 83.2689 134.494 82.8612 135.378 82.6623C136.055 82.6033 134.583 83.3873 134.054 83.8563C133.525 84.3253 132.355 84.3293 132.978 83.8513Z" fill="#FFAF84"/>
<path d="M99.6639 106.692C101.575 106.307 102.547 105.665 103.419 106.147C104.291 106.629 103.009 108.311 102.357 108.586C101.705 108.861 99.4199 110.044 98.7489 109.412C98.5689 109.19 98.448 108.925 98.3973 108.643C98.3467 108.362 98.368 108.072 98.4592 107.801C98.5505 107.529 98.7087 107.286 98.9193 107.092C99.1299 106.898 99.386 106.76 99.6639 106.692Z" fill="#FFAF84"/>
<path d="M93.2479 98.3599C94.3339 96.6699 96.7589 93.4909 99.7289 89.3599C100.546 87.8958 100.802 86.1838 100.447 84.5449C100.17 83.4919 98.6069 82.8349 97.3659 84.3759C96.0172 86.0175 94.7903 87.7555 93.6949 89.5759C90.4599 94.7569 89.5559 97.2349 89.2779 98.3929C89.2409 98.6244 89.2706 98.8617 89.3636 99.0769C89.4565 99.2921 89.609 99.4763 89.8029 99.6079C89.8365 99.6694 89.8732 99.7292 89.9129 99.7869C91.5332 102.109 93.5233 104.149 95.8039 105.827C98.0749 107.656 98.0879 108.752 99.0039 108.802C99.7439 108.842 100.77 107.85 100.142 107.281C99.3249 106.545 95.3439 100.852 93.2479 98.3599Z" fill="url(#paint7_linear_2_583)"/>
<path d="M99.3119 75.4701C100.112 78.4701 100.306 79.1301 101.839 80.1631C103.314 81.1054 105.08 81.4839 106.812 81.2291C108.373 80.9781 109.265 79.1431 109.412 77.7961C109.58 75.1428 109.275 72.4807 108.512 69.9341C108.099 68.9562 107.385 68.1355 106.474 67.5913C105.563 67.0471 104.502 66.8077 103.445 66.9081C101.287 67.2541 97.3709 68.1411 99.3119 75.4701Z" fill="#FFAF84"/>
<path d="M115.073 170.597C115.651 171.343 116.416 171.922 117.291 172.277C118.474 172.805 120.985 173.055 119.591 173.521C118.331 173.836 117.015 173.854 115.747 173.573C114.888 173.453 114.022 173.401 113.155 173.417C111.874 173.408 111.864 173.329 112.036 171.885C112.273 169.895 114.497 169.478 115.073 170.597Z" fill="#79186A"/>
<path d="M107.741 68.42C109.262 70.265 101.188 75.402 99.2089 75.392C97.2299 75.382 97.0749 71.63 98.2629 69.521C99.4509 67.412 104.148 64.063 107.741 68.42Z" fill="#2E1C00"/>
<path d="M104.436 68.4261C105.026 70.1011 108.114 70.0091 108.858 71.3531C109.322 72.1881 109.018 69.3671 108.106 68.2131C107.194 67.0591 103.249 65.0601 104.436 68.4261Z" fill="#2E1C00"/>
<path d="M100.77 74.9795C101.206 76.0475 101.107 77.0985 100.547 77.3265C99.9869 77.5545 99.181 76.8745 98.747 75.8065C98.313 74.7385 98.4099 73.6865 98.9699 73.4595C99.5299 73.2325 100.333 73.9165 100.77 74.9795Z" fill="#FFAF84"/>
<path d="M28.3169 90.7855C31.3853 89.0909 33.1789 91.1986 33.2382 93.088C33.3258 95.7656 31.9746 96.3478 35.8808 97.876C38.768 99.0034 40.062 102.296 37.5404 104.594C34.015 107.808 38.6718 108.784 40.0238 110.644C42.8185 114.486 39.8698 116.171 35.1882 119.317C30.3814 122.55 26.2399 122.3 21.8962 119.709C18.685 117.796 16.5073 115.345 17.6173 112.497C19.2109 108.406 23.5355 110.081 21.3342 106.864C20.0168 104.94 19.131 101.034 23.8463 99.712C28.5615 98.3904 23.8955 93.2217 28.3169 90.7855Z" fill="url(#paint8_linear_2_583)"/>
<path d="M7.46238 88.0111C3.16041 87.9899 2.46809 91.317 3.51788 93.3866C5.00328 96.3192 6.7983 96.1592 3.48945 100.102C1.0479 103.012 1.58887 107.322 5.65515 108.315C11.3447 109.703 6.90296 113.494 6.54069 116.294C5.79084 122.075 9.96022 122.15 16.853 122.791C23.932 123.44 28.245 120.731 31.4003 115.385C33.731 111.438 34.6342 107.514 31.763 105.099C27.6386 101.633 23.9659 105.98 24.4464 101.22C24.7331 98.3723 23.3874 93.6427 17.53 94.9953C11.6726 96.3479 13.6593 88.0388 7.46238 88.0111Z" fill="url(#paint9_linear_2_583)"/>
<path d="M20.5106 115.274C17.5084 122.388 16.9983 126.925 22.5144 126.354C28.0304 125.783 32.1539 110.462 27.5972 108.61C24.3874 107.303 21.9416 111.882 20.5106 115.274Z" fill="url(#paint10_linear_2_583)"/>
<path d="M23.2435 141.749L35.495 139.247C36.2355 139.096 36.8981 138.687 37.3645 138.093C37.831 137.498 38.0709 136.757 38.0414 136.002L37.3685 118.958C37.3651 118.867 37.3416 118.776 37.2998 118.694C37.258 118.612 37.1988 118.541 37.1264 118.484C37.054 118.427 36.97 118.387 36.8804 118.366C36.7908 118.345 36.6977 118.343 36.6076 118.362L14.0325 122.972C13.9424 122.991 13.8573 123.028 13.7833 123.083C13.7092 123.137 13.6479 123.207 13.6035 123.288C13.5592 123.368 13.5329 123.458 13.5265 123.549C13.5201 123.641 13.5337 123.733 13.5664 123.819L19.6309 139.76C19.8992 140.467 20.4099 141.054 21.0717 141.419C21.7335 141.783 22.5032 141.9 23.2435 141.749Z" fill="url(#paint11_linear_2_583)"/>
<path d="M11.3938 105.542C15.4462 105.922 18.9474 106.867 16.7066 108.493C14.4658 110.118 5.15959 108.3 6.04558 106.533C6.66746 105.275 9.4615 105.36 11.3938 105.542Z" fill="url(#paint12_linear_2_583)"/>
<path d="M8.6589 93.4028C10.0256 95.6297 11.1733 96.6644 12.102 95.0347C13.0307 93.4051 9.62835 89.251 8.22044 90.14C7.22743 90.7673 8.00777 92.3413 8.6589 93.4028Z" fill="url(#paint13_linear_2_583)"/>
<path d="M29.7352 94.034C29.2819 96.6072 29.4595 98.1382 31.2327 97.5384C33.0059 96.9387 33.2108 91.5668 31.5683 91.2999C30.4098 91.1113 29.951 92.8063 29.7352 94.034Z" fill="url(#paint14_linear_2_583)"/>
<path d="M36.4855 104.466C37.8454 102.648 38.3138 101.391 36.7011 101.162C35.0884 100.933 32.8231 105.011 33.992 105.863C34.8154 106.463 35.8371 105.331 36.4855 104.466Z" fill="url(#paint15_linear_2_583)"/>
<path d="M17.0233 103.654C15.4167 103.454 14.4699 103.611 14.8997 104.691C15.3295 105.771 18.6613 105.731 18.7748 104.704C18.8555 103.981 17.7909 103.745 17.0233 103.654Z" fill="url(#paint16_linear_2_583)"/>
<path opacity="0.3" d="M453.252 8.72852V120.891L305.023 119.578V18.6855L453.252 8.72852Z" fill="url(#paint17_linear_2_583)"/>
<path d="M442.228 15.1396V116.761H299.958V24.1607L442.228 15.1396Z" fill="url(#paint18_linear_2_583)"/>
<path opacity="0.4" d="M337.055 82.2493L367.331 81.5493V39.9453L337.055 41.4683V82.2493Z" fill="#46CCCC"/>
<path opacity="0.6" d="M341.382 67.319L306.088 68.481V30.819L341.382 28.75V67.319Z" fill="#7BCAFF"/>
<path d="M334.67 48.447C334.67 55.094 329.659 60.671 323.525 60.902C317.442 61.132 312.546 56.007 312.546 49.458C312.546 42.909 317.446 37.337 323.525 37.01C329.659 36.682 334.67 41.801 334.67 48.447Z" fill="#3A7BD8"/>
<path opacity="0.5" d="M437.852 110.262L296.67 110.836V19.3794L437.852 9.94336V110.262Z" fill="#7BCAFF"/>
<path d="M353.456 64.8086C351.679 65.6448 349.684 65.9036 347.752 65.5486C345.82 65.1937 344.048 64.2429 342.684 62.8296C341.321 61.4144 340.393 59.6366 340.013 57.7086L344.839 56.3906C344.962 57.1199 345.251 57.8109 345.685 58.4098C346.119 59.0086 346.685 59.4992 347.34 59.8431C347.995 60.187 348.72 60.3751 349.459 60.3925C350.198 60.4099 350.932 60.2563 351.602 59.9436L353.456 64.8086Z" fill="url(#paint19_linear_2_583)"/>
<path d="M356.856 62.3221C356.777 62.4081 356.693 62.4921 356.611 62.5741L353.18 58.8221C354.209 57.7552 354.782 56.3302 354.78 54.8481C354.806 54.175 354.694 53.5036 354.451 52.8754C354.208 52.2472 353.838 51.6754 353.366 51.1952C352.894 50.7149 352.328 50.3364 351.704 50.0829C351.08 49.8294 350.41 49.7063 349.737 49.7211C348.768 49.7837 347.836 50.1125 347.042 50.671C346.248 51.2296 345.623 51.9965 345.237 52.8871L340.801 50.7451C341.274 49.6915 341.909 48.7179 342.681 47.8591C343.538 46.8379 344.598 46.0056 345.793 45.4147C346.988 44.8238 348.293 44.4872 349.624 44.4261C350.956 44.3651 352.286 44.5808 353.53 45.0598C354.775 45.5388 355.906 46.2707 356.853 47.2091C358.762 49.2622 359.823 51.9616 359.824 54.765C359.824 57.5684 358.764 60.2682 356.856 62.3221Z" fill="#EDF4FC"/>
<path d="M344.723 55.2611C344.723 55.6414 344.761 56.0207 344.839 56.3931L340.013 57.7111C339.533 55.3642 339.81 52.9256 340.804 50.7461L345.24 52.8881C344.899 53.6328 344.723 54.4421 344.723 55.2611Z" fill="#1FA6B2"/>
<path d="M356.611 62.5742C355.709 63.5107 354.638 64.2692 353.456 64.8102L351.601 59.9453C352.192 59.6724 352.727 59.2919 353.179 58.8232L356.611 62.5742Z" fill="#EA7A15"/>
<path d="M358.926 67.4658V66.4238L356.952 66.4898V67.5308L358.926 67.4658Z" fill="#A6EDC8"/>
<path d="M362.433 67.3526V66.3076L360.45 66.3726V67.4166L362.433 67.3526Z" fill="#A6EDC8"/>
<path d="M365.956 67.2384V66.1914L363.963 66.2574V67.3004L365.956 67.2384Z" fill="#A6EDC8"/>
<path d="M364.583 47.911C364.247 47.7918 363.884 47.7763 363.539 47.8665C363.194 47.9567 362.885 48.1486 362.651 48.417C362.406 48.6846 362.239 49.0137 362.167 49.369L363.038 49.532C363.077 49.3226 363.185 49.1321 363.344 48.9905C363.504 48.8488 363.705 48.7639 363.918 48.749C364.031 48.7433 364.145 48.761 364.251 48.801L364.583 47.911Z" fill="#EDF4FC"/>
<path d="M365.189 48.3027L365.145 48.2607L364.534 48.9747C364.626 49.0625 364.698 49.1681 364.747 49.2851C364.796 49.4021 364.821 49.5279 364.819 49.6548C364.822 49.9026 364.731 50.1425 364.564 50.3255C364.397 50.5086 364.166 50.6209 363.919 50.6398C363.751 50.6469 363.584 50.6039 363.44 50.5161C363.296 50.4283 363.182 50.2998 363.111 50.1467L362.311 50.5967C362.434 50.8584 362.621 51.0849 362.854 51.2554C363.088 51.4258 363.36 51.5348 363.647 51.5723C363.934 51.6097 364.225 51.5744 364.495 51.4697C364.764 51.3649 365.003 51.194 365.189 50.9727C365.527 50.6104 365.715 50.1333 365.715 49.6377C365.715 49.1422 365.527 48.6651 365.189 48.3027Z" fill="#FFC550"/>
<path d="M363.018 49.7331C363.018 49.6659 363.025 49.5989 363.039 49.5331L362.168 49.3701C362.08 49.7844 362.13 50.2161 362.311 50.5991L363.111 50.1491C363.049 50.0194 363.017 49.8771 363.018 49.7331Z" fill="#FFC550"/>
<path d="M365.145 48.2602C364.983 48.1073 364.792 47.9883 364.583 47.9102L364.252 48.7992C364.356 48.8385 364.452 48.8983 364.533 48.9752L365.145 48.2602Z" fill="#BAF4D5"/>
<path d="M362.272 61.9166C362.402 62.2444 362.629 62.5242 362.924 62.7178C363.218 62.9115 363.566 63.0095 363.918 62.9986C364.267 62.9853 364.604 62.8694 364.887 62.6656L364.404 61.8916C364.238 62.0141 364.033 62.0727 363.827 62.0568C363.621 62.0408 363.427 61.9513 363.282 61.8046C363.2 61.7218 363.135 61.624 363.091 61.5166L362.272 61.9166Z" fill="#BAF4D5"/>
<path d="M362.126 61.177C362.126 61.198 362.126 61.219 362.126 61.239L363.017 61.176C363.008 60.9139 363.103 60.6589 363.281 60.466C363.359 60.3755 363.455 60.302 363.563 60.2502C363.67 60.1984 363.788 60.1693 363.907 60.1648C364.026 60.1603 364.146 60.1805 364.257 60.2241C364.368 60.2676 364.469 60.3336 364.554 60.418C364.674 60.5445 364.757 60.7011 364.795 60.8712C364.833 61.0413 364.825 61.2185 364.77 61.384L365.617 61.656C365.682 61.4591 365.715 61.2533 365.717 61.046C365.725 60.8065 365.684 60.5679 365.597 60.3448C365.509 60.1216 365.377 59.9187 365.209 59.7482C365.04 59.5778 364.839 59.4435 364.617 59.3536C364.395 59.2636 364.157 59.2199 363.917 59.225C363.425 59.2595 362.966 59.4811 362.633 59.8442C362.299 60.2073 362.118 60.6843 362.126 61.177Z" fill="#D1D9FE"/>
<path d="M364.555 61.7588C364.51 61.8084 364.459 61.853 364.404 61.8918L364.887 62.6658C365.234 62.4177 365.49 62.0636 365.618 61.6568L364.771 61.3848C364.727 61.5238 364.653 61.6514 364.555 61.7588Z" fill="#EDF4FC"/>
<path d="M362.128 61.2387C362.134 61.4717 362.182 61.7016 362.272 61.9167L363.091 61.5167C363.047 61.409 363.022 61.2941 363.019 61.1777L362.128 61.2387Z" fill="#FFC550"/>
<path d="M364.624 57.1073C364.952 56.9411 365.228 56.6867 365.42 56.3727C365.612 56.0586 365.713 55.6974 365.711 55.3293C365.714 54.973 365.615 54.6233 365.426 54.3213L364.673 54.8593C364.784 55.0433 364.832 55.2583 364.81 55.4719C364.788 55.6856 364.698 55.8864 364.552 56.0443C364.472 56.1322 364.377 56.2041 364.27 56.2563L364.624 57.1073Z" fill="#D1D9FE"/>
<path d="M363.919 57.2883H363.978L363.949 56.3493C363.826 56.3587 363.703 56.3412 363.588 56.2981C363.473 56.2549 363.369 56.187 363.283 56.0993C363.113 55.9178 363.019 55.6787 363.019 55.4303C363.019 55.1819 363.113 54.9428 363.283 54.7613C363.396 54.6332 363.543 54.5401 363.707 54.4932C363.871 54.4462 364.045 54.4473 364.208 54.4963L364.495 53.5963C364.309 53.5365 364.113 53.5104 363.918 53.5193C363.426 53.5557 362.966 53.7787 362.633 54.1426C362.3 54.5065 362.119 54.984 362.126 55.4773C362.119 55.7156 362.16 55.9529 362.247 56.1747C362.334 56.3966 362.466 56.5984 362.634 56.7678C362.801 56.9372 363.002 57.0708 363.223 57.1602C363.444 57.2497 363.681 57.2933 363.919 57.2883Z" fill="#BAF4D5"/>
<path d="M364.555 54.7048C364.601 54.7514 364.642 54.8031 364.676 54.8588L365.429 54.3208C365.215 53.9737 364.884 53.7149 364.495 53.5918L364.208 54.4918C364.339 54.5337 364.458 54.6068 364.555 54.7048Z" fill="#FFC550"/>
<path d="M363.977 57.2848C364.203 57.2686 364.424 57.2081 364.627 57.1068L364.273 56.2578C364.171 56.3077 364.061 56.3376 363.948 56.3458L363.977 57.2848Z" fill="#EDF4FC"/>
<path d="M442.228 15.1414L299.956 24.1624V10.8044L442.228 0.482422V15.1414Z" fill="#D3D3D3"/>
<path d="M439.343 12.2577L302.356 21.2067V16.7907L439.343 7.42773V12.2577Z" fill="#F2F2F2"/>
<path d="M304.453 15.1593L302.353 15.3043V13.0103L304.453 12.8613V15.1593Z" fill="#F9F4EA"/>
<path d="M308.196 14.8997L306.088 15.0457V12.7457L308.196 12.5957V14.8997Z" fill="#F9F4EA"/>
<path d="M311.958 14.6381L309.839 14.7851V12.4791L311.958 12.3291V14.6381Z" fill="#F9F4EA"/>
<path opacity="0.5" d="M363.023 102.3L432.685 101.639V21.0283L363.023 25.2143V102.3Z" fill="#7BCAFF"/>
<path d="M372.296 42.5888C371.829 42.5907 371.379 42.4115 371.041 42.0888C370.851 41.9065 370.7 41.6871 370.598 41.4442C370.497 41.2013 370.446 40.9401 370.449 40.6768V30.1218C370.447 29.6031 370.641 29.1027 370.991 28.72C371.341 28.3373 371.822 28.1002 372.339 28.0558L434.478 24.4788C434.745 24.4613 435.012 24.499 435.263 24.5897C435.515 24.6803 435.744 24.8219 435.938 25.0055C436.133 25.1891 436.287 25.4109 436.391 25.6568C436.495 25.9028 436.548 26.1676 436.545 26.4348V37.4348C436.54 37.9786 436.329 38.5002 435.954 38.8946C435.58 39.2889 435.07 39.5266 434.527 39.5598L372.389 42.5858L372.296 42.5888ZM434.596 25.4068H434.531L372.393 28.9838C372.112 29.0116 371.852 29.1439 371.664 29.3545C371.476 29.5651 371.375 29.8386 371.379 30.1208V40.6738C371.376 40.8107 371.401 40.9468 371.453 41.0737C371.504 41.2006 371.581 41.3157 371.679 41.4118C371.767 41.4944 371.871 41.5586 371.984 41.6007C372.098 41.6427 372.218 41.6618 372.339 41.6568L434.477 38.6308C434.783 38.612 435.07 38.4776 435.281 38.2547C435.492 38.0319 435.609 37.7374 435.611 37.4308V26.4308C435.613 26.2897 435.585 26.1497 435.531 26.0197C435.476 25.8896 435.395 25.7722 435.293 25.6748C435.104 25.4991 434.854 25.4037 434.596 25.4068Z" fill="#BBCEFF"/>
<path d="M372.312 60.5208C371.837 60.5224 371.38 60.3375 371.039 60.0058C370.85 59.8223 370.699 59.6021 370.598 59.3586C370.496 59.1152 370.445 58.8536 370.448 58.5898V48.0418C370.445 47.5228 370.64 47.0221 370.993 46.6415C371.346 46.2608 371.83 46.0289 372.348 45.9928L434.483 43.1418C434.749 43.1266 435.016 43.1665 435.267 43.2591C435.517 43.3516 435.745 43.4949 435.938 43.6798C436.132 43.865 436.286 44.088 436.39 44.335C436.495 44.582 436.547 44.8477 436.545 45.1158V56.1158C436.54 56.6581 436.327 57.1778 435.951 57.5684C435.575 57.9589 435.064 58.1906 434.522 58.2158L372.382 60.5158L372.312 60.5208ZM434.578 44.0678H434.526L372.387 46.9178C372.108 46.9412 371.849 47.0699 371.661 47.2778C371.474 47.4857 371.373 47.7571 371.379 48.0368V58.5878C371.377 58.7264 371.403 58.8641 371.455 58.9923C371.508 59.1206 371.586 59.2368 371.685 59.3338C371.864 59.503 372.103 59.5943 372.349 59.5878L434.487 57.2878C434.79 57.2735 435.075 57.1437 435.285 56.9251C435.495 56.7065 435.613 56.4158 435.615 56.1128V45.1128C435.617 44.9704 435.589 44.8291 435.534 44.6977C435.479 44.5664 435.398 44.4476 435.295 44.3488C435.101 44.1653 434.844 44.0645 434.577 44.0678H434.578Z" fill="#BBCEFF"/>
<path d="M372.328 78.4575C371.845 78.4582 371.382 78.2684 371.038 77.9295C370.849 77.7449 370.7 77.5241 370.598 77.2802C370.497 77.0364 370.446 76.7746 370.448 76.5105V65.9575C370.444 65.4399 370.639 64.9405 370.992 64.5623C371.346 64.1842 371.831 63.9563 372.348 63.9255L434.486 61.8025C435.024 61.7878 435.546 61.987 435.937 62.3565C436.13 62.5432 436.283 62.7671 436.387 63.0146C436.491 63.2621 436.544 63.5281 436.542 63.7965V74.7965C436.539 75.339 436.326 75.8592 435.948 76.2482C435.57 76.6373 435.056 76.8649 434.514 76.8835L372.374 78.4555L372.328 78.4575ZM434.559 62.7325H434.52L372.381 64.8555C372.105 64.8762 371.848 65.0017 371.662 65.2063C371.476 65.411 371.375 65.6791 371.381 65.9555V76.5075C371.379 76.6474 371.405 76.7862 371.458 76.9156C371.512 77.045 371.59 77.1623 371.69 77.2605C371.871 77.4284 372.108 77.5223 372.355 77.5235L434.494 75.9515C434.794 75.9414 435.079 75.8152 435.288 75.5994C435.498 75.3836 435.615 75.0951 435.616 74.7945V63.7945C435.617 63.6509 435.589 63.5085 435.534 63.376C435.479 63.2435 435.397 63.1236 435.294 63.0235C435.096 62.8343 434.833 62.7299 434.559 62.7325Z" fill="#BBCEFF"/>
<path d="M372.345 96.391C371.854 96.3913 371.384 96.1971 371.036 95.851C370.848 95.6648 370.699 95.4429 370.598 95.1984C370.497 94.9539 370.446 94.6916 370.448 94.427V83.877C370.443 83.3596 370.639 82.8604 370.995 82.4845C371.351 82.1085 371.838 81.8851 372.355 81.861L434.493 80.461C435.031 80.4562 435.549 80.6602 435.94 81.03C436.132 81.2181 436.284 81.4428 436.387 81.6909C436.49 81.939 436.542 82.2054 436.54 82.474V93.474C436.538 94.0163 436.325 94.5364 435.945 94.9231C435.565 95.3098 435.048 95.5323 434.506 95.543L372.366 96.388L372.345 96.391ZM372.358 95.461L434.497 94.616C434.795 94.6097 435.079 94.487 435.287 94.2741C435.496 94.0612 435.613 93.7751 435.613 93.477V82.477C435.614 82.332 435.586 82.1883 435.53 82.0545C435.474 81.9206 435.392 81.7994 435.288 81.698C435.076 81.5056 434.8 81.3987 434.514 81.398L372.375 82.798C372.1 82.8138 371.842 82.9359 371.655 83.1386C371.468 83.3413 371.368 83.6086 371.375 83.884V94.434C371.373 94.5752 371.4 94.7153 371.453 94.846C371.507 94.9767 371.586 95.0954 371.686 95.195C371.772 95.2853 371.877 95.3558 371.993 95.4015C372.109 95.4473 372.234 95.4672 372.359 95.46L372.358 95.461Z" fill="#BBCEFF"/>
<path opacity="0.5" d="M402.129 69.4826L428.998 68.6696V66.5156L402.129 67.3656V69.4826Z" fill="#7BCAFF"/>
<path opacity="0.5" d="M410.808 73.0057L428.998 72.4987V70.3447L410.808 70.8757V73.0057Z" fill="#7BCAFF"/>
<path opacity="0.5" d="M404.259 73.1875L408.723 73.0625V70.9355L404.259 71.0656V73.1875Z" fill="#7BCAFF"/>
<path opacity="0.5" d="M402.129 33.3556L428.998 31.9216V29.7676L402.129 31.2356V33.3556Z" fill="#7BCAFF"/>
<path opacity="0.5" d="M412.898 36.5717L428.998 35.7517V33.5957L412.898 34.4387V36.5717Z" fill="#7BCAFF"/>
<path opacity="0.5" d="M394.157 37.5258L410.807 36.6768V34.5479L394.157 35.4189V37.5258Z" fill="#7BCAFF"/>
<path opacity="0.5" d="M418.159 87.4673L428.999 87.2673V85.1133L418.159 85.3283V87.4673Z" fill="#7BCAFF"/>
<path opacity="0.5" d="M405.492 87.7022L416.159 87.5022V85.3672L405.492 85.5792V87.7022Z" fill="#7BCAFF"/>
<path opacity="0.5" d="M410.808 91.3894L428.998 91.0954V88.9414L410.808 89.2594V91.3894Z" fill="#7BCAFF"/>
<path opacity="0.5" d="M391.25 91.7039L408.723 91.4219V89.2949L391.25 89.6009V91.7039Z" fill="#7BCAFF"/>
<path d="M375.502 57.3267L437.902 54.9117C438.326 54.8918 438.726 54.71 439.02 54.4038C439.315 54.0976 439.48 53.6903 439.483 53.2657V42.2397C439.485 42.0349 439.444 41.8319 439.365 41.6433C439.285 41.4546 439.167 41.2843 439.019 41.1428C438.871 41.0013 438.695 40.8917 438.503 40.8207C438.311 40.7496 438.106 40.7187 437.902 40.7297L375.502 43.6977C375.102 43.7284 374.729 43.9099 374.459 44.2053C374.188 44.5007 374.04 44.888 374.044 45.2887V55.8627C374.038 56.056 374.072 56.2484 374.143 56.4282C374.215 56.6079 374.322 56.7713 374.458 56.9083C374.595 57.0453 374.757 57.1531 374.937 57.225C375.116 57.297 375.309 57.3316 375.502 57.3267Z" fill="#F6F3FF"/>
<g opacity="0.6">
<path d="M409.235 46.0241L436.079 44.8141V43.2061L409.235 44.4441V46.0241Z" fill="#7BCAFF"/>
<path d="M409.235 48.8344L436.079 47.6734V46.0654L409.235 47.2544V48.8344Z" fill="#7BCAFF"/>
<path d="M424.065 51.0328L436.08 50.5328V48.9248L424.065 49.4358V51.0328Z" fill="#7BCAFF"/>
</g>
<path d="M386.56 52.667L393.522 52.378V45.165L386.56 45.486V52.667Z" fill="#EA7A15"/>
<path opacity="0.6" d="M378.534 53L385.424 52.715V45.54L378.534 45.857V53Z" fill="#7BCAFF"/>
<path d="M209.593 62.6281L315.146 91.4051C315.827 91.5903 316.554 91.4975 317.167 91.147C317.78 90.7966 318.228 90.2171 318.414 89.536L323.281 71.682C323.467 71.0011 323.374 70.2743 323.024 69.6615C322.674 69.0487 322.095 68.6 321.414 68.4141L215.861 39.6371C215.524 39.5449 215.172 39.5201 214.825 39.5641C214.478 39.6082 214.143 39.7201 213.84 39.8936C213.536 40.0671 213.27 40.2987 213.056 40.5752C212.842 40.8517 212.685 41.1677 212.593 41.5051L207.725 59.359C207.633 59.6963 207.608 60.0485 207.652 60.3953C207.696 60.7422 207.808 61.0769 207.982 61.3805C208.155 61.6841 208.387 61.9505 208.663 62.1645C208.94 62.3786 209.256 62.5361 209.593 62.6281Z" fill="url(#paint20_linear_2_583)"/>
<g opacity="0.6">
<path d="M272.197 61.9662L316.681 74.0938L317.393 71.483L272.909 59.3555L272.197 61.9662Z" fill="url(#paint21_linear_2_583)"/>
<path d="M270.932 66.606L315.415 78.7344L316.127 76.1237L271.644 63.9953L270.932 66.606Z" fill="url(#paint22_linear_2_583)"/>
<path d="M294.421 77.9992L314.15 83.376L314.862 80.7647L295.133 75.3879L294.421 77.9992Z" fill="url(#paint23_linear_2_583)"/>
</g>
<path opacity="0.6" d="M230.853 60.8111L242.88 64.0898L246.159 52.0618L234.132 48.783L230.853 60.8111Z" fill="url(#paint24_linear_2_583)"/>
<path opacity="0.6" d="M216.855 56.9947L228.882 60.2734L232.161 48.2454L220.134 44.9666L216.855 56.9947Z" fill="url(#paint25_linear_2_583)"/>
<path d="M329.81 164.496C329.81 165.196 321.41 165.758 311.048 165.758C300.686 165.758 292.286 165.192 292.286 164.496C292.286 163.8 300.686 163.235 311.048 163.235C321.41 163.235 329.81 163.799 329.81 164.496Z" fill="#D8D8D8"/>
<path d="M313.292 97.3096C314.515 97.9326 315.66 97.7096 318.881 97.5176C323.521 97.2406 324.605 96.8776 327.373 95.6956C329.18 94.9236 326.953 91.0786 324.324 91.4366C322.102 91.7366 314.841 95.4526 313.488 95.6316C312.591 95.7486 312.299 96.7986 313.292 97.3096Z" fill="#228BC5"/>
<path d="M327.955 95.0877C328.427 94.1237 329.149 91.8177 329.4 85.9537C329.524 83.8813 329.476 81.8022 329.258 79.7377C329.072 77.7777 327.196 76.9907 326.273 77.4567C324.786 78.2077 323.278 80.2317 323.313 81.2647C323.513 87.0957 324.02 91.5646 323.818 92.9876C323.519 95.0627 327.394 96.2297 327.955 95.0877Z" fill="url(#paint26_linear_2_583)"/>
<path d="M323.888 160.498C323.775 160.998 323.706 161.506 323.681 162.018C323.581 162.629 322.998 162.851 322.66 163.353C322.288 163.907 321.704 164.707 323.986 164.753C326.428 164.8 327.875 164.724 327.46 163.393C327.166 162.644 327.008 161.848 326.994 161.043C327.031 160.843 327.026 160.638 326.978 160.44C326.93 160.243 326.841 160.057 326.716 159.897C326.437 159.636 324.247 159.168 323.888 160.498Z" fill="#79186A"/>
<path d="M298.942 161.608C298.315 162.383 297.497 162.981 296.567 163.341C295.3 163.886 292.612 164.141 294.106 164.623C295.456 164.948 296.863 164.966 298.221 164.676C299.141 164.552 300.07 164.498 300.998 164.515C302.368 164.506 302.378 164.424 302.198 162.933C301.94 160.883 299.559 160.449 298.942 161.608Z" fill="#79186A"/>
<path d="M326.753 68.9865C326.053 71.6865 325.872 72.2755 324.499 73.2085C323.101 73.9581 321.477 74.1715 319.933 73.8085C318.533 73.5885 317.872 71.7505 317.738 70.5425C317.563 68.3485 317.814 66.1414 318.477 64.0425C318.845 63.1631 319.483 62.4238 320.3 61.9321C321.117 61.4404 322.069 61.222 323.018 61.3085C324.954 61.6155 328.473 62.3985 326.753 68.9865Z" fill="#FFAF84"/>
<path d="M309.083 90.4103C310.001 89.8533 311.849 88.2963 315.213 83.4883C316.433 81.8084 317.512 80.0299 318.438 78.1713C319.338 76.4183 318.179 74.7453 317.15 74.6433C315.491 74.4763 313.132 75.3713 312.606 76.2613C309.635 81.2833 307.659 85.3273 306.725 86.4163C305.361 88.0053 307.997 91.0723 309.083 90.4103Z" fill="url(#paint27_linear_2_583)"/>
<path d="M324.6 73.5916C324.525 74.5526 324.424 75.6556 324.3 76.6585C324.214 77.308 323.891 77.9026 323.392 78.3274C322.893 78.7522 322.255 78.9771 321.6 78.9586C321.541 78.9586 321.5 78.9486 321.449 78.9416C320.267 78.7556 319.043 77.4666 319.333 76.2976C319.522 75.5386 319.669 74.7656 319.782 74.0866C319.884 73.4527 320.179 72.8659 320.628 72.4065C321.076 71.9471 321.656 71.6376 322.287 71.5205C322.582 71.4655 322.885 71.479 323.174 71.5598C323.463 71.6406 323.73 71.7868 323.953 71.9869C324.177 72.187 324.351 72.4357 324.463 72.7139C324.575 72.9921 324.622 73.2924 324.6 73.5916Z" fill="#FFAF84"/>
<path d="M328.241 86.1615C325.243 92.2551 323.347 98.8311 322.641 105.585L306.087 102.985C306.087 102.985 308.62 87.4965 311.062 79.1785C311.361 78.1638 311.906 77.2386 312.648 76.4847C313.39 75.7309 314.306 75.1716 315.316 74.8565C316.806 74.4713 318.356 74.3749 319.882 74.5725L322.942 75.0535C324.035 75.2063 325.101 75.5126 326.109 75.9635C330.409 78.0555 330.174 82.1735 328.241 86.1615Z" fill="url(#paint28_linear_2_583)"/>
<path d="M320.98 115.701C320.98 115.701 322.957 112.451 322.639 105.584L306.085 102.984C305.173 106.287 304.44 109.636 303.89 113.017L320.98 115.701Z" fill="url(#paint29_linear_2_583)"/>
<path d="M315.053 138.787C312.825 133.629 318.16 131.758 320.553 135.358C323.932 140.45 326.703 156.798 327.163 160.332C327.223 160.796 327.398 161.348 327.191 161.546C326.682 161.879 326.097 162.077 325.491 162.121C324.87 162.206 324.267 162.309 324.078 161.56C322.796 156.504 317.212 143.783 315.053 138.787Z" fill="url(#paint30_linear_2_583)"/>
<path d="M312.648 115.137C313.117 108.35 316.587 103.568 320.393 106.43C321.993 107.635 322.343 109.597 322.303 111.387C322.263 113.177 320.687 131.596 320.62 134.959C320.471 142.539 314.925 139.619 314.612 137.459C313.824 132.018 312.392 118.835 312.648 115.137Z" fill="url(#paint31_linear_2_583)"/>
<path d="M301.91 162.299C302.71 154.353 307.124 140.661 305.654 134.021C304.72 129.801 299.788 129.321 299.632 134.415C299.463 139.854 300.316 150.48 298.981 160.915C298.85 161.935 301.803 163.223 301.91 162.299Z" fill="url(#paint32_linear_2_583)"/>
<path d="M305.252 135.634C304.279 137.584 298.306 139.078 300.065 131.704C300.844 128.431 304.409 110.252 304.819 108.509C305.229 106.766 305.94 104.238 306.876 104.055C311.55 103.144 315.011 109.076 312.809 115.513C311.335 119.821 307.268 131.592 305.252 135.634Z" fill="url(#paint33_linear_2_583)"/>
<path d="M318.733 67.1354C318.97 68.1434 318.733 69.0624 318.207 69.1864C317.681 69.3104 317.058 68.5955 316.82 67.5865C316.582 66.5775 316.82 65.6594 317.345 65.5354C317.87 65.4114 318.495 66.1274 318.733 67.1354Z" fill="#FFAF84"/>
<path d="M325.866 68.2579C325.33 69.1439 325.272 70.0899 325.736 70.3709C326.2 70.6519 327.012 70.1609 327.548 69.2709C328.084 68.3809 328.142 67.439 327.678 67.158C327.214 66.877 326.403 67.3709 325.866 68.2579Z" fill="#FFAF84"/>
<path d="M295.26 85.9C296.109 86.978 296.797 87.6 299.878 88.567C302.691 89.5424 305.607 90.1904 308.568 90.498C310.528 90.656 310.275 85.963 307.738 85.187C305.593 84.532 297.445 84.863 296.138 84.456C295.277 84.188 294.569 85.028 295.26 85.9Z" fill="#1FA6B2"/>
<path d="M296.406 84.4094C295.613 83.9974 288.75 81.6364 288.691 83.1594C288.625 84.8444 291.391 85.8874 292.319 86.1534C294.119 86.6694 295.605 87.0234 296.343 86.2444C296.867 85.6934 297.16 84.8014 296.406 84.4094Z" fill="#FFAF84"/>
<path d="M295.992 84.0255C295.679 83.7595 293.814 82.1915 293.492 82.5195C293.006 83.0195 294.176 84.1085 294.948 84.8315C295.366 85.2235 296.192 85.4715 296.468 85.0935C296.744 84.7155 296.492 84.4515 295.992 84.0255Z" fill="#FFAF84"/>
<path d="M321.003 62.2673C319.264 62.9763 318.764 63.7583 318.503 65.7283C318.242 67.6983 318.553 71.1793 322.05 72.4943C325.547 73.8093 326.961 70.3593 327.568 67.9183C328.175 65.4773 328.324 63.6083 326.568 62.8763C323.953 61.7913 322.054 61.8373 321.003 62.2673Z" fill="#583600"/>
<path d="M327.496 63.2823C327.621 61.7433 325.322 60.6673 325.051 59.9543C325.051 59.9543 324.914 61.0003 325.345 61.3083C323.974 60.7619 322.669 60.0617 321.455 59.2213C321.455 59.2213 321.909 60.2983 322.463 60.5763C321.057 60.1984 319.688 59.6943 318.372 59.0703C318.877 59.8334 319.465 60.5377 320.126 61.1703C318.71 61.1896 317.301 60.958 315.966 60.4863C315.966 60.4863 317.205 63.9663 319.598 64.3863C321.991 64.8063 327.269 66.0963 327.496 63.2823Z" fill="#583600"/>
<path d="M191.012 165.093C191.012 165.807 204.69 166.387 221.561 166.387C238.432 166.387 252.108 165.807 252.108 165.093C252.108 164.379 238.432 163.793 221.561 163.793C204.69 163.793 191.012 164.38 191.012 165.093Z" fill="#D8D8D8"/>
<path d="M207.878 54.1187C208.069 53.2187 209.932 46.2606 211.178 47.2086C212.554 48.2566 212.418 51.1827 212.253 52.1597C212.148 52.9097 211.815 53.6096 211.301 54.1651C210.786 54.7206 210.113 55.105 209.373 55.2667C208.594 55.3217 207.696 54.9707 207.878 54.1187Z" fill="#FFAF84"/>
<path d="M210.602 53.9534C211.177 55.2194 210.658 55.4444 210.335 58.9934C210.18 62.0157 209.642 65.0063 208.735 67.8934C208.072 69.7714 204.172 67.4384 204.541 64.7494C204.853 62.4774 208.023 54.9784 208.635 53.7244C208.746 53.55 208.904 53.4104 209.09 53.3216C209.277 53.2327 209.485 53.1983 209.69 53.2222C209.896 53.2461 210.09 53.3274 210.251 53.4567C210.412 53.586 210.534 53.7581 210.602 53.9534Z" fill="url(#paint34_linear_2_583)"/>
<path d="M209.116 66.1238C208.916 67.2068 208.084 69.5458 204.68 74.5168C203.506 76.2963 202.187 77.9756 200.737 79.5378C199.377 81.0378 197.352 80.5248 196.88 79.5738C196.121 78.0408 196.128 75.4498 196.793 74.6228C200.544 69.9538 203.716 66.5918 204.426 65.3018C205.459 63.4168 209.358 64.8408 209.116 66.1238Z" fill="url(#paint35_linear_2_583)"/>
<path d="M197.808 160.995C197.924 161.508 197.995 162.03 198.021 162.555C198.121 163.183 198.721 163.411 199.068 163.926C199.45 164.494 200.05 165.317 197.707 165.363C195.2 165.412 193.714 165.332 194.14 163.963C194.441 163.194 194.604 162.377 194.62 161.551C194.581 161.346 194.586 161.135 194.635 160.932C194.684 160.729 194.776 160.539 194.904 160.374C195.187 160.11 197.438 159.629 197.808 160.995Z" fill="#79186A"/>
<path d="M222.957 133.144C223.637 133.908 224.507 134.481 225.478 134.804C226.805 135.304 229.578 135.429 228.068 135.996C226.699 136.397 225.257 136.485 223.849 136.255C222.894 136.228 221.938 136.268 220.989 136.375C219.582 136.435 219.573 136.206 219.689 134.668C219.845 132.549 222.264 131.988 222.957 133.144Z" fill="#79186A"/>
<path d="M201.092 64.523C201.376 67.37 201.46 67.999 202.704 69.166C204.003 70.1473 205.615 70.6219 207.239 70.5011C208.696 70.5011 209.657 68.7431 209.987 67.5381C210.512 65.3415 210.609 63.0642 210.271 60.8311C210.039 59.8801 209.51 59.0279 208.76 58.3985C208.011 57.769 207.08 57.3951 206.103 57.3311C204.091 57.3311 200.396 57.564 201.092 64.523Z" fill="#FFAF84"/>
<path d="M202.543 69.5334C202.466 70.5214 202.392 71.6574 202.36 72.6934C202.344 73.365 202.578 74.0186 203.016 74.5279C203.454 75.0373 204.065 75.3663 204.731 75.4514C204.792 75.4564 204.839 75.4595 204.887 75.4595C206.116 75.4595 207.563 74.3455 207.455 73.1145C207.384 72.3145 207.355 71.5074 207.355 70.8004C207.351 70.1416 207.145 69.5 206.763 68.9631C206.381 68.4261 205.843 68.0201 205.222 67.8004C204.931 67.6968 204.621 67.6614 204.314 67.697C204.008 67.7327 203.714 67.8384 203.455 68.0059C203.196 68.1735 202.979 68.3984 202.821 68.6633C202.663 68.9282 202.568 69.2259 202.543 69.5334Z" fill="#FFAF84"/>
<path d="M196.846 81.704C198.916 88.3623 199.792 95.3345 199.433 102.298H216.638C216.638 102.298 216.538 86.183 215.386 77.358C215.243 76.2809 214.837 75.2556 214.204 74.3728C213.57 73.4901 212.729 72.7771 211.754 72.297C210.304 71.6687 208.747 71.3242 207.167 71.282H203.988C202.855 71.2627 201.725 71.4034 200.631 71.7C195.939 73.137 195.521 77.35 196.846 81.704Z" fill="url(#paint36_linear_2_583)"/>
<path d="M199.505 112.824C199.505 112.824 198.019 109.213 199.434 102.298H216.639C216.639 102.298 216.627 107.232 216.639 112.824H199.505Z" fill="#228BC5"/>
<path d="M202.9 135.344C204.279 129.744 198.557 128.755 196.751 132.81C194.196 138.54 194.399 156.862 194.536 160.518C194.553 160.997 194.471 161.586 194.713 161.751C195.285 162.001 195.911 162.102 196.532 162.044C197.173 162.023 197.802 162.026 197.867 161.234C198.304 155.898 201.566 140.768 202.9 135.344Z" fill="url(#paint37_linear_2_583)"/>
<path d="M208.044 113.578C208.649 106.62 205.892 101.216 201.575 103.513C199.759 104.48 199.094 106.413 198.85 108.236C198.606 110.059 197.267 128.991 196.8 132.413C195.743 140.125 201.834 138.046 202.494 135.913C204.161 130.513 207.715 117.371 208.044 113.578Z" fill="url(#paint38_linear_2_583)"/>
<path d="M219.816 133.24C222.746 125.58 225.016 110.986 229.421 105.572C232.221 102.132 236.965 103.972 234.763 108.711C232.409 113.779 226.729 123.133 223.142 133.32C222.788 134.321 219.488 134.14 219.816 133.24Z" fill="url(#paint39_linear_2_583)"/>
<path d="M233.211 110.406C235.367 109.806 237.764 102.806 229.985 103.137C226.535 103.283 214.385 103.206 212.551 103.28C210.717 103.354 208.029 103.58 207.662 104.48C205.83 109.013 211.135 113.661 218.052 112.697C222.677 112.051 228.743 111.651 233.211 110.406Z" fill="url(#paint40_linear_2_583)"/>
<path d="M209.522 63.9208C209.122 64.9048 209.212 65.8748 209.728 66.0848C210.244 66.2948 210.988 65.6688 211.39 64.6848C211.792 63.7008 211.7 62.7308 211.184 62.5208C210.668 62.3108 209.924 62.9418 209.522 63.9208Z" fill="#FFAF84"/>
<path d="M202.108 63.9208C202.508 64.9048 202.418 65.8748 201.902 66.0848C201.386 66.2948 200.641 65.6688 200.24 64.6848C199.839 63.7008 199.93 62.7308 200.44 62.5208C200.95 62.3108 201.707 62.9418 202.108 63.9208Z" fill="#FFAF84"/>
<path d="M201.969 58.9097C203.077 60.5647 208.435 60.7187 210.184 60.1097C211.933 59.5007 211.812 56.1187 209.31 55.8867C207.901 55.8867 208.921 56.2207 207.78 56.6867C207.201 56.9187 200.785 57.1417 201.969 58.9097Z" fill="black"/>
<path d="M236.011 69.881C236.876 69.581 243.797 67.565 243.631 69.122C243.448 70.843 240.876 72.242 239.954 72.607C239.258 72.9053 238.487 72.9834 237.746 72.8308C237.004 72.6781 236.327 72.302 235.805 71.753C235.355 71.117 235.188 70.167 236.011 69.881Z" fill="#FFAF84"/>
<path d="M236.31 69.4518C236.61 69.1518 238.398 67.4048 238.75 67.7168C239.286 68.1928 238.173 69.3968 237.439 70.1978C237.039 70.6308 236.214 70.9488 235.903 70.5828C235.592 70.2168 235.83 69.9268 236.31 69.4518Z" fill="#FFAF84"/>
<path d="M237.57 72.1242C236.784 73.2732 236.323 72.9452 233.121 74.5092C230.454 75.9439 227.615 77.0333 224.673 77.7513C222.724 78.1573 222.699 73.6132 225.19 72.5352C227.295 71.6252 235.349 70.4492 236.74 70.3232C236.947 70.3266 237.149 70.3883 237.323 70.5015C237.496 70.6146 237.635 70.7745 237.721 70.9627C237.808 71.1509 237.84 71.3598 237.813 71.5653C237.786 71.7708 237.702 71.9646 237.57 72.1242Z" fill="url(#paint41_linear_2_583)"/>
<path d="M226.601 77.2573C225.594 77.7023 223.201 78.3503 217.173 78.3703C215.42 78.4503 213.663 78.3683 211.925 78.1253C211.091 77.9957 210.319 77.6065 209.719 77.013C209.119 76.4195 208.721 75.6519 208.582 74.8193C208.629 73.0673 209.525 71.7593 210.582 71.8373C216.556 72.2753 223.151 73.0773 224.615 72.9283C226.755 72.7093 227.795 76.7283 226.601 77.2573Z" fill="url(#paint42_linear_2_583)"/>
<path d="M207.997 58.6229C209.647 59.6229 210.031 60.4929 209.984 62.5329C209.937 64.5729 209.065 68.0539 205.309 68.8329C201.553 69.6119 200.667 65.8839 200.439 63.3119C200.211 60.7399 200.36 58.8189 202.259 58.3579C205.079 57.6709 206.998 58.0199 207.997 58.6229Z" fill="black"/>
<path d="M490.867 142.883C489.318 140.76 493.539 137.772 498.498 139.266C498.276 140.697 497.756 142.065 496.972 143.281C495.937 144.73 493.034 145.857 490.867 142.883Z" fill="url(#paint43_linear_2_583)"/>
<path d="M487.966 142.12C485.746 140.711 488.581 136.385 493.744 135.96C494.062 137.372 494.079 138.836 493.795 140.256C493.362 141.981 491.075 144.092 487.966 142.12Z" fill="url(#paint44_linear_2_583)"/>
<path d="M486.162 141.782C483.794 141.542 484.332 136.892 488.336 134.456C489.166 135.471 489.773 136.648 490.119 137.911C490.472 139.479 489.477 142.117 486.162 141.782Z" fill="url(#paint45_linear_2_583)"/>
<path d="M485.443 140.88C483.436 141.62 482.041 137.651 484.314 134.107C485.384 134.599 486.338 135.31 487.115 136.194C488.018 137.323 488.253 139.845 485.443 140.88Z" fill="url(#paint46_linear_2_583)"/>
<path d="M485.026 129.277C478.108 122.864 490.912 109.444 509.405 111.293C509.405 111.293 509.885 119.674 506.796 126.482C504.162 132.289 494.718 138.255 485.026 129.277Z" fill="url(#paint47_linear_2_583)"/>
<path d="M506.954 112.658C505.017 113.154 503.19 114.01 501.569 115.182C501.152 115.444 500.751 115.729 500.367 116.037C499.982 116.345 499.567 116.603 499.212 116.947L498.13 117.948L497.593 118.448L497.105 119.004C495.775 120.448 494.554 121.989 493.45 123.613L491.841 126.091L490.44 128.709C490.209 129.145 489.941 129.563 489.735 130.015L489.122 131.375L487.882 134.092L485.73 139.702C485.109 141.613 484.411 143.511 483.845 145.454C483.238 147.388 482.713 149.346 482.027 151.288L481.883 151.263L483.093 145.278C483.533 143.292 484.13 141.342 484.64 139.372C485.212 137.419 485.95 135.516 486.599 133.585L487.82 130.783L488.433 129.382C488.638 128.915 488.907 128.481 489.142 128.028L490.618 125.346L492.322 122.808C493.509 121.147 494.844 119.597 496.311 118.176L496.851 117.635L497.443 117.148L498.628 116.179C499.017 115.848 499.47 115.6 499.885 115.312C500.302 115.017 500.737 114.749 501.188 114.51C502.95 113.456 504.911 112.777 506.948 112.516L506.954 112.658Z" fill="url(#paint48_linear_2_583)"/>
<path d="M493.266 123.46C500.447 123.459 500.239 109.339 488.957 100.804C488.957 100.804 484.352 105.236 482.557 110.634C481.024 115.243 483.21 123.461 493.266 123.46Z" fill="url(#paint49_linear_2_583)"/>
<path d="M489.714 102.78C490.365 104.789 490.855 106.847 491.18 108.934C491.33 109.98 491.47 111.022 491.557 112.079C491.671 113.131 491.747 114.184 491.795 115.241C491.948 119.472 491.759 123.708 491.23 127.908C491.067 128.953 490.868 129.992 490.692 131.034L490.409 132.594L490.058 134.14L489.347 137.227C489.071 138.243 488.758 139.256 488.44 140.262L487.97 141.773L487.428 143.26L486.329 146.222C485.956 147.205 485.465 148.144 485.039 149.105C484.613 150.066 484.15 151.01 483.685 151.949L483.582 151.907C484.31 149.947 485.103 148.009 485.781 146.03L486.739 143.044L487.212 141.547L487.612 140.032L488.415 137L489.069 133.933L489.389 132.4L489.643 130.853C489.804 129.821 489.986 128.792 490.13 127.757C490.695 123.614 490.962 119.435 490.93 115.253C490.93 111.07 490.488 106.899 489.612 102.809L489.714 102.78Z" fill="url(#paint50_linear_2_583)"/>
<path d="M499.472 117.697C489.128 109.486 505.571 89.3885 531.576 89.9933C531.576 89.9933 533.142 101.638 529.557 111.47C526.5 119.859 513.955 129.196 499.472 117.697Z" fill="url(#paint51_linear_2_583)"/>
<path d="M528.327 92.1386C525.697 93.897 523.187 95.8287 520.814 97.9208C519.628 98.9582 518.416 99.9559 517.298 101.063L515.589 102.681L513.96 104.384L512.338 106.083L510.773 107.837L509.208 109.587C508.684 110.169 508.221 110.802 507.724 111.408C506.767 112.646 505.691 113.788 504.797 115.074L502.03 118.865C501.138 120.15 500.296 121.47 499.428 122.77C499.002 123.428 498.549 124.067 498.146 124.74L496.965 126.771C496.174 128.124 495.342 129.46 494.581 130.828C493.878 132.231 493.138 133.615 492.394 135.001L491.276 137.082L490.296 139.232L488.329 143.542C486.998 146.416 485.957 149.403 484.619 152.314L484.451 152.265L485.931 147.731L486.67 145.464C486.914 144.708 487.152 143.948 487.468 143.219L489.241 138.791L490.128 136.578L491.159 134.427L493.222 130.124C493.96 128.717 494.768 127.344 495.538 125.954L496.706 123.874C497.11 123.189 497.563 122.533 497.989 121.862C498.861 120.531 499.704 119.181 500.597 117.865C504.275 112.667 508.434 107.826 513.017 103.405C517.565 98.9394 522.687 95.0992 528.25 91.9863L528.327 92.1386Z" fill="url(#paint52_linear_2_583)"/>
<path d="M501.958 131.017C496.811 122.998 512.724 113.108 530.341 119.585C530.341 119.585 528.694 127.902 523.954 133.78C519.91 138.794 509.166 142.245 501.958 131.017Z" fill="url(#paint53_linear_2_583)"/>
<path d="M527.617 120.292C525.394 120.789 523.218 121.479 521.113 122.353L519.534 122.978L517.987 123.682C516.948 124.127 515.957 124.679 514.961 125.208C510.98 127.335 507.215 129.846 503.722 132.705L501.109 134.86C500.22 135.559 499.448 136.392 498.61 137.153C497.804 137.944 496.929 138.671 496.189 139.531C495.431 140.372 494.638 141.184 493.839 141.993C493.02 142.784 492.309 143.676 491.568 144.535L489.344 147.133C487.88 148.886 486.539 150.737 485.037 152.496L484.934 152.429C486.228 150.534 487.486 148.613 488.81 146.739L490.925 144.024C491.634 143.121 492.312 142.192 493.102 141.357C494.635 139.648 496.127 137.894 497.813 136.335C498.651 135.55 499.421 134.691 500.313 133.965L502.934 131.725C506.524 128.85 510.412 126.37 514.532 124.326C518.639 122.242 523.057 120.838 527.614 120.168L527.617 120.292Z" fill="url(#paint54_linear_2_583)"/>
<path d="M512.541 110.253C513.627 109.961 514.75 109.827 515.874 109.857C516.977 109.868 518.076 109.979 519.159 110.187C520.246 110.407 521.31 110.732 522.335 111.157C523.388 111.581 524.36 112.187 525.205 112.946L525.16 113.048C523.145 112.274 521.061 111.697 518.935 111.326C516.819 110.896 514.682 110.575 512.533 110.365L512.541 110.253Z" fill="url(#paint55_linear_2_583)"/>
<path d="M517.005 104.397C517.856 103.972 518.77 103.69 519.713 103.564C520.625 103.424 521.549 103.379 522.471 103.428C523.399 103.487 524.318 103.647 525.211 103.906C526.138 104.162 527.006 104.596 527.767 105.185L527.735 105.298C525.985 104.89 524.2 104.653 522.404 104.591C520.609 104.472 518.81 104.447 517.012 104.514L517.005 104.397Z" fill="url(#paint56_linear_2_583)"/>
<path d="M506.73 106.335C506.533 105.178 506.475 104.001 506.558 102.829C506.592 102.306 506.612 101.798 506.611 101.296C506.611 100.725 506.55 100.155 506.43 99.5974L506.503 99.5194C506.914 99.9675 507.227 100.497 507.42 101.074C507.613 101.65 507.683 102.261 507.625 102.867C507.541 104.069 507.273 105.251 506.829 106.371L506.73 106.335Z" fill="url(#paint57_linear_2_583)"/>
<path d="M513.414 100.667C513.468 99.7593 513.639 98.8625 513.924 97.9989C514.055 97.6083 514.161 97.2282 514.265 96.8522C514.385 96.4314 514.448 95.9961 514.451 95.5583L514.518 95.5137C514.739 95.9274 514.869 96.3832 514.9 96.8509C514.932 97.3186 514.863 97.7876 514.7 98.2269C514.411 99.1077 514.001 99.944 513.482 100.711L513.414 100.667Z" fill="url(#paint58_linear_2_583)"/>
<path d="M489.927 156.126L479.822 152.165C479.58 152.07 479.38 151.889 479.262 151.656C479.144 151.424 479.116 151.156 479.182 150.904L482.38 138.646C482.418 138.501 482.487 138.365 482.581 138.248C482.675 138.131 482.793 138.035 482.928 137.967C483.062 137.899 483.209 137.86 483.359 137.853C483.509 137.846 483.659 137.87 483.799 137.925L496.689 142.978C496.829 143.033 496.955 143.117 497.061 143.224C497.166 143.332 497.247 143.46 497.299 143.602C497.351 143.743 497.372 143.893 497.362 144.043C497.351 144.193 497.309 144.34 497.238 144.472L491.255 155.637C491.132 155.867 490.929 156.044 490.684 156.134C490.439 156.224 490.17 156.221 489.927 156.126Z" fill="url(#paint59_linear_2_583)"/>
<path d="M497.084 145.812L481.582 139.735C481.426 139.674 481.296 139.559 481.217 139.41C481.138 139.262 481.115 139.09 481.153 138.926L481.629 136.816C481.651 136.717 481.694 136.624 481.755 136.543C481.816 136.463 481.895 136.396 481.984 136.349C482.074 136.301 482.172 136.274 482.274 136.268C482.375 136.263 482.476 136.279 482.57 136.316L498.681 142.633C498.776 142.669 498.861 142.726 498.932 142.799C499.002 142.872 499.056 142.959 499.09 143.055C499.123 143.15 499.136 143.252 499.126 143.353C499.116 143.454 499.085 143.552 499.034 143.639L497.949 145.511C497.865 145.657 497.732 145.767 497.573 145.823C497.414 145.878 497.241 145.874 497.084 145.812Z" fill="url(#paint60_linear_2_583)"/>
<defs>
<linearGradient id="paint0_linear_2_583" x1="112.05" y1="87.1115" x2="120.227" y2="95.9839" gradientUnits="userSpaceOnUse">
<stop stop-color="#228BC5"/>
<stop offset="1" stop-color="#1FA6B2"/>
</linearGradient>
<linearGradient id="paint1_linear_2_583" x1="102.17" y1="83.8099" x2="116.988" y2="105.26" gradientUnits="userSpaceOnUse">
<stop stop-color="#1E2369"/>
<stop offset="1" stop-color="#1FA6B2"/>
</linearGradient>
<linearGradient id="paint2_linear_2_583" x1="106.976" y1="132.586" x2="107.27" y2="207.843" gradientUnits="userSpaceOnUse">
<stop stop-color="#CE286F"/>
<stop offset="1" stop-color="#D82B1B"/>
</linearGradient>
<linearGradient id="paint3_linear_2_583" x1="98.1964" y1="132.675" x2="109.521" y2="206.313" gradientUnits="userSpaceOnUse">
<stop stop-color="#CE286F"/>
<stop offset="1" stop-color="#D82B1B"/>
</linearGradient>
<linearGradient id="paint4_linear_2_583" x1="101.716" y1="132.644" x2="110.061" y2="207.041" gradientUnits="userSpaceOnUse">
<stop stop-color="#CE286F"/>
<stop offset="1" stop-color="#D82B1B"/>
</linearGradient>
<linearGradient id="paint5_linear_2_583" x1="112.878" y1="132.524" x2="132.12" y2="202.73" gradientUnits="userSpaceOnUse">
<stop stop-color="#CE286F"/>
<stop offset="1" stop-color="#D82B1B"/>
</linearGradient>
<linearGradient id="paint6_linear_2_583" x1="111.283" y1="132.534" x2="120.842" y2="206.669" gradientUnits="userSpaceOnUse">
<stop stop-color="#CE286F"/>
<stop offset="1" stop-color="#D82B1B"/>
</linearGradient>
<linearGradient id="paint7_linear_2_583" x1="97.4048" y1="86.7833" x2="86.5903" y2="100.36" gradientUnits="userSpaceOnUse">
<stop stop-color="#228BC5"/>
<stop offset="1" stop-color="#1FA6B2"/>
</linearGradient>
<linearGradient id="paint8_linear_2_583" x1="27.8215" y1="110.445" x2="54.8282" y2="95.0577" gradientUnits="userSpaceOnUse">
<stop stop-color="#F70F47"/>
<stop offset="1" stop-color="#FFB41D"/>
</linearGradient>
<linearGradient id="paint9_linear_2_583" x1="25.6262" y1="133.608" x2="7.93325" y2="73.5894" gradientUnits="userSpaceOnUse">
<stop stop-color="#F70F47"/>
<stop offset="1" stop-color="#FFB41D"/>
</linearGradient>
<linearGradient id="paint10_linear_2_583" x1="36.993" y1="92.5513" x2="20.5177" y2="106.086" gradientUnits="userSpaceOnUse">
<stop stop-color="#F70F47"/>
<stop offset="1" stop-color="#FFB41D"/>
</linearGradient>
<linearGradient id="paint11_linear_2_583" x1="26.8221" y1="151.576" x2="23.398" y2="102.758" gradientUnits="userSpaceOnUse">
<stop stop-color="#36078B"/>
<stop offset="1" stop-color="#16B1FF"/>
</linearGradient>
<linearGradient id="paint12_linear_2_583" x1="23.3469" y1="85.0416" x2="23.1131" y2="105.259" gradientUnits="userSpaceOnUse">
<stop stop-color="#F70F47"/>
<stop offset="1" stop-color="#FFB41D"/>
</linearGradient>
<linearGradient id="paint13_linear_2_583" x1="17.3716" y1="81.7389" x2="1.33785" y2="96.4134" gradientUnits="userSpaceOnUse">
<stop stop-color="#F70F47"/>
<stop offset="1" stop-color="#FFB41D"/>
</linearGradient>
<linearGradient id="paint14_linear_2_583" x1="21.9409" y1="129.14" x2="57.9683" y2="101.38" gradientUnits="userSpaceOnUse">
<stop stop-color="#F70F47"/>
<stop offset="1" stop-color="#FFB41D"/>
</linearGradient>
<linearGradient id="paint15_linear_2_583" x1="27.7851" y1="131.126" x2="49.2894" y2="81.0592" gradientUnits="userSpaceOnUse">
<stop stop-color="#F70F47"/>
<stop offset="1" stop-color="#FFB41D"/>
</linearGradient>
<linearGradient id="paint16_linear_2_583" x1="26.6314" y1="86.8512" x2="24.685" y2="107.787" gradientUnits="userSpaceOnUse">
<stop stop-color="#F70F47"/>
<stop offset="1" stop-color="#FFB41D"/>
</linearGradient>
<linearGradient id="paint17_linear_2_583" x1="305.023" y1="64.8095" x2="453.252" y2="64.8095" gradientUnits="userSpaceOnUse">
<stop stop-color="#228BC5"/>
<stop offset="1" stop-color="#CE286F"/>
</linearGradient>
<linearGradient id="paint18_linear_2_583" x1="299.958" y1="65.9501" x2="442.228" y2="65.9501" gradientUnits="userSpaceOnUse">
<stop stop-color="#1E2369"/>
<stop offset="0.347" stop-color="#1E2369"/>
<stop offset="1" stop-color="#228BC5"/>
</linearGradient>
<linearGradient id="paint19_linear_2_583" x1="335.227" y1="49.7785" x2="338.025" y2="55.4637" gradientUnits="userSpaceOnUse">
<stop stop-color="#FEE00A"/>
<stop offset="1" stop-color="#D82B1B"/>
</linearGradient>
<linearGradient id="paint20_linear_2_583" x1="283.79" y1="13.4094" x2="282.744" y2="28.2423" gradientUnits="userSpaceOnUse">
<stop stop-color="#FEA600"/>
<stop offset="1" stop-color="#FEE00A"/>
</linearGradient>
<linearGradient id="paint21_linear_2_583" x1="334.74" y1="69.3827" x2="341.829" y2="45.0208" gradientUnits="userSpaceOnUse">
<stop stop-color="#FEA600"/>
<stop offset="1" stop-color="#EF1829"/>
</linearGradient>
<linearGradient id="paint22_linear_2_583" x1="331.314" y1="73.8809" x2="338.403" y2="49.5214" gradientUnits="userSpaceOnUse">
<stop stop-color="#FEA600"/>
<stop offset="1" stop-color="#EF1829"/>
</linearGradient>
<linearGradient id="paint23_linear_2_583" x1="294.92" y1="78.7355" x2="296.818" y2="73.5756" gradientUnits="userSpaceOnUse">
<stop stop-color="#FEA600"/>
<stop offset="1" stop-color="#EF1829"/>
</linearGradient>
<linearGradient id="paint24_linear_2_583" x1="212.517" y1="54.7012" x2="330.271" y2="62.5516" gradientUnits="userSpaceOnUse">
<stop stop-color="#FEA600"/>
<stop offset="1" stop-color="#EA7A15"/>
</linearGradient>
<linearGradient id="paint25_linear_2_583" x1="198.519" y1="50.8848" x2="316.273" y2="58.7352" gradientUnits="userSpaceOnUse">
<stop stop-color="#FEA600"/>
<stop offset="1" stop-color="#EA7A15"/>
</linearGradient>
<linearGradient id="paint26_linear_2_583" x1="317.724" y1="73.6661" x2="336.596" y2="77.5164" gradientUnits="userSpaceOnUse">
<stop stop-color="#1FA6B2"/>
<stop offset="1" stop-color="#228BC5"/>
</linearGradient>
<linearGradient id="paint27_linear_2_583" x1="307.733" y1="65.2224" x2="307.733" y2="93.2337" gradientUnits="userSpaceOnUse">
<stop stop-color="#228BC5"/>
<stop offset="1" stop-color="#1FA6B2"/>
</linearGradient>
<linearGradient id="paint28_linear_2_583" x1="314.986" y1="81.6286" x2="314.739" y2="108.385" gradientUnits="userSpaceOnUse">
<stop stop-color="#1E2369"/>
<stop offset="1" stop-color="#1FA6B2"/>
</linearGradient>
<linearGradient id="paint29_linear_2_583" x1="310.089" y1="89.8986" x2="314.974" y2="157.659" gradientUnits="userSpaceOnUse">
<stop stop-color="#0000FF"/>
<stop offset="1" stop-color="#9E005D"/>
</linearGradient>
<linearGradient id="paint30_linear_2_583" x1="323.408" y1="93.2213" x2="358.86" y2="137.912" gradientUnits="userSpaceOnUse">
<stop stop-color="#0000FF"/>
<stop offset="1" stop-color="#9E005D"/>
</linearGradient>
<linearGradient id="paint31_linear_2_583" x1="314.207" y1="89.2342" x2="349.821" y2="107.314" gradientUnits="userSpaceOnUse">
<stop stop-color="#0000FF"/>
<stop offset="1" stop-color="#9E005D"/>
</linearGradient>
<linearGradient id="paint32_linear_2_583" x1="300.155" y1="91.9778" x2="328.601" y2="100.628" gradientUnits="userSpaceOnUse">
<stop stop-color="#0000FF"/>
<stop offset="1" stop-color="#9E005D"/>
</linearGradient>
<linearGradient id="paint33_linear_2_583" x1="303.495" y1="90.9218" x2="341.931" y2="132.634" gradientUnits="userSpaceOnUse">
<stop stop-color="#0000FF"/>
<stop offset="1" stop-color="#9E005D"/>
</linearGradient>
<linearGradient id="paint34_linear_2_583" x1="327.168" y1="151.382" x2="327.168" y2="177.183" gradientUnits="userSpaceOnUse">
<stop stop-color="#36078B"/>
<stop offset="1" stop-color="#168D68"/>
</linearGradient>
<linearGradient id="paint35_linear_2_583" x1="339.298" y1="160.191" x2="339.298" y2="195.627" gradientUnits="userSpaceOnUse">
<stop stop-color="#36078B"/>
<stop offset="1" stop-color="#168D68"/>
</linearGradient>
<linearGradient id="paint36_linear_2_583" x1="137.674" y1="79.469" x2="137.768" y2="102.298" gradientUnits="userSpaceOnUse">
<stop stop-color="#36078B"/>
<stop offset="1" stop-color="#1FA6B2"/>
</linearGradient>
<linearGradient id="paint37_linear_2_583" x1="145.313" y1="186.741" x2="145.313" y2="112.666" gradientUnits="userSpaceOnUse">
<stop stop-color="#1E2369"/>
<stop offset="1" stop-color="#1E2369"/>
</linearGradient>
<linearGradient id="paint38_linear_2_583" x1="141.935" y1="135.467" x2="139.72" y2="112.872" gradientUnits="userSpaceOnUse">
<stop stop-color="#1E2369"/>
<stop offset="1" stop-color="#228BC5"/>
</linearGradient>
<linearGradient id="paint39_linear_2_583" x1="47.9064" y1="489.216" x2="47.9064" y2="415.171" gradientUnits="userSpaceOnUse">
<stop stop-color="#228BC5"/>
<stop offset="1" stop-color="#228BC5"/>
</linearGradient>
<linearGradient id="paint40_linear_2_583" x1="-672.06" y1="-662.558" x2="-672.06" y2="-722.317" gradientUnits="userSpaceOnUse">
<stop stop-color="#228BC5"/>
<stop offset="1" stop-color="#228BC5"/>
</linearGradient>
<linearGradient id="paint41_linear_2_583" x1="227.659" y1="67.9008" x2="229.953" y2="86.0814" gradientUnits="userSpaceOnUse">
<stop stop-color="#36078B"/>
<stop offset="1" stop-color="#168D68"/>
</linearGradient>
<linearGradient id="paint42_linear_2_583" x1="215.991" y1="71.5254" x2="217.539" y2="96.622" gradientUnits="userSpaceOnUse">
<stop stop-color="#36078B"/>
<stop offset="1" stop-color="#168D68"/>
</linearGradient>
<linearGradient id="paint43_linear_2_583" x1="581.308" y1="138.808" x2="585.567" y2="128.628" gradientUnits="userSpaceOnUse">
<stop stop-color="#36078B"/>
<stop offset="1" stop-color="#16B1FF"/>
</linearGradient>
<linearGradient id="paint44_linear_2_583" x1="598.574" y1="206.777" x2="605.803" y2="197.767" gradientUnits="userSpaceOnUse">
<stop stop-color="#36078B"/>
<stop offset="1" stop-color="#16B1FF"/>
</linearGradient>
<linearGradient id="paint45_linear_2_583" x1="584.267" y1="295.014" x2="592.57" y2="289.293" gradientUnits="userSpaceOnUse">
<stop stop-color="#36078B"/>
<stop offset="1" stop-color="#16B1FF"/>
</linearGradient>
<linearGradient id="paint46_linear_2_583" x1="533.602" y1="365.973" x2="541.291" y2="361.824" gradientUnits="userSpaceOnUse">
<stop stop-color="#36078B"/>
<stop offset="1" stop-color="#16B1FF"/>
</linearGradient>
<linearGradient id="paint47_linear_2_583" x1="588.264" y1="159.989" x2="608.268" y2="124.499" gradientUnits="userSpaceOnUse">
<stop stop-color="#36078B"/>
<stop offset="1" stop-color="#16B1FF"/>
</linearGradient>
<linearGradient id="paint48_linear_2_583" x1="476.097" y1="144.177" x2="515.618" y2="128.28" gradientUnits="userSpaceOnUse">
<stop offset="0.483" stop-color="#36078B"/>
<stop offset="1" stop-color="#16B1FF"/>
</linearGradient>
<linearGradient id="paint49_linear_2_583" x1="227.454" y1="97.0444" x2="253.12" y2="82.065" gradientUnits="userSpaceOnUse">
<stop stop-color="#36078B"/>
<stop offset="1" stop-color="#16B1FF"/>
</linearGradient>
<linearGradient id="paint50_linear_2_583" x1="491.297" y1="150.772" x2="471.78" y2="145.833" gradientUnits="userSpaceOnUse">
<stop offset="0.483" stop-color="#36078B"/>
<stop offset="1" stop-color="#16B1FF"/>
</linearGradient>
<linearGradient id="paint51_linear_2_583" x1="512.064" y1="152.427" x2="543.612" y2="104.195" gradientUnits="userSpaceOnUse">
<stop stop-color="#36078B"/>
<stop offset="1" stop-color="#16B1FF"/>
</linearGradient>
<linearGradient id="paint52_linear_2_583" x1="477.924" y1="145.173" x2="540.469" y2="110.24" gradientUnits="userSpaceOnUse">
<stop offset="0.483" stop-color="#36078B"/>
<stop offset="1" stop-color="#16B1FF"/>
</linearGradient>
<linearGradient id="paint53_linear_2_583" x1="499.274" y1="107.299" x2="513.8" y2="70.356" gradientUnits="userSpaceOnUse">
<stop stop-color="#36078B"/>
<stop offset="1" stop-color="#16B1FF"/>
</linearGradient>
<linearGradient id="paint54_linear_2_583" x1="481.807" y1="145.197" x2="520.762" y2="114.534" gradientUnits="userSpaceOnUse">
<stop offset="0.483" stop-color="#36078B"/>
<stop offset="1" stop-color="#16B1FF"/>
</linearGradient>
<linearGradient id="paint55_linear_2_583" x1="515.48" y1="114.465" x2="515.873" y2="108.338" gradientUnits="userSpaceOnUse">
<stop stop-color="#36078B"/>
<stop offset="1" stop-color="#16B1FF"/>
</linearGradient>
<linearGradient id="paint56_linear_2_583" x1="519.863" y1="107.603" x2="519.814" y2="102.046" gradientUnits="userSpaceOnUse">
<stop stop-color="#36078B"/>
<stop offset="1" stop-color="#16B1FF"/>
</linearGradient>
<linearGradient id="paint57_linear_2_583" x1="505.491" y1="105.843" x2="508.695" y2="105.455" gradientUnits="userSpaceOnUse">
<stop stop-color="#36078B"/>
<stop offset="1" stop-color="#16B1FF"/>
</linearGradient>
<linearGradient id="paint58_linear_2_583" x1="512.621" y1="100.129" x2="516.251" y2="99.4174" gradientUnits="userSpaceOnUse">
<stop stop-color="#36078B"/>
<stop offset="1" stop-color="#16B1FF"/>
</linearGradient>
<linearGradient id="paint59_linear_2_583" x1="494.621" y1="131.971" x2="495.248" y2="144.007" gradientUnits="userSpaceOnUse">
<stop stop-color="#2C27CE"/>
<stop offset="1" stop-color="#EF1D68"/>
</linearGradient>
<linearGradient id="paint60_linear_2_583" x1="494.79" y1="135.046" x2="494.518" y2="129.808" gradientUnits="userSpaceOnUse">
<stop stop-color="#2C27CE"/>
<stop offset="1" stop-color="#EF1D68"/>
</linearGradient>
</defs>
</svg>
