<svg width="1280" height="1389" viewBox="0 0 1280 1389" fill="none" xmlns="http://www.w3.org/2000/svg">
<mask id="mask0_2_764" style="mask-type:luminance" maskUnits="userSpaceOnUse" x="897" y="186" width="598" height="505">
<path d="M1493.38 310.588C1503.17 240.656 1450.62 222.075 1414.65 234.571C1363.68 252.279 1362.41 281.814 1305.55 219.315C1286.24 198.092 1257.83 183.739 1228.67 186.87C1207.69 189.127 1187.63 200.678 1176.2 218.415C1169.85 228.282 1166.24 239.642 1160.89 250.085C1155.53 260.528 1147.69 270.572 1136.56 274.294C1125.84 277.878 1113.99 274.943 1103.69 270.281C1078.92 259.068 1059.45 237.964 1033.6 228.958C1011.81 221.364 984.273 221.177 963.579 232.036C936.492 246.251 922.585 276.659 912.714 304.103C901.138 336.287 896.291 370.745 897.254 404.883C898.485 448.615 909.081 491.798 925.579 532.318C940.266 568.391 959.882 602.862 986.714 631.093C1029.15 675.739 1107.5 717.478 1161.89 668.119C1227.38 608.693 1164.76 539.385 1241.12 557.669C1286.8 568.609 1366.68 557.165 1357.6 458.928C1348.52 360.69 1479.28 411.302 1493.38 310.588Z" fill="white"/>
</mask>
<g mask="url(#mask0_2_764)">
<path d="M1059.62 122.931C1091.18 152.896 1089.1 192.665 1130.49 155.831C1163.09 126.822 1233.51 101.135 1269.2 185.545C1271.88 192.149 1275.46 198.352 1279.83 203.976L1279.87 466.063C1262.41 472.122 1242.39 471.029 1226.25 462.069C1216.71 456.779 1208.78 449.061 1199.81 442.865C1190.84 436.669 1180.01 431.881 1169.26 433.716C1158.91 435.488 1150.5 443.091 1144.12 451.428C1128.76 471.479 1122.08 497.304 1104.87 516.029C1090.36 531.811 1067.9 544.049 1046.19 544.242C1017.78 544.493 993.043 525.704 972.919 507.568C950.224 487.116 931.699 462.214 917.689 435.107L917.655 147.372C923.684 138.494 930.666 130.303 938.477 122.943L1059.62 122.931Z" fill="url(#paint0_linear_2_764)"/>
<path d="M1279.83 122.904L1279.86 361.608C1268.51 368.848 1255.47 373.012 1242.02 373.693C1222 374.513 1201.54 366.467 1188.32 351.408C1180.96 343.029 1175.99 332.861 1169.49 323.802C1163 314.744 1154.23 306.4 1143.25 304.464C1132.68 302.599 1121.96 307.016 1112.94 312.838C1103.16 319.148 1094.68 327.193 1086.2 335.234C1075.86 345.036 1065.53 354.839 1052.88 361.477C1033.47 371.662 1007.63 375.695 986.67 368.393C959.234 358.834 941.906 332.213 928.793 307.817C924.662 300.122 920.951 292.208 917.675 284.11L917.654 122.947L1279.83 122.904Z" fill="url(#paint1_linear_2_764)"/>
</g>
<mask id="mask1_2_764" style="mask-type:luminance" maskUnits="userSpaceOnUse" x="-298" y="794" width="783" height="595">
<path d="M456.135 1237.79C513.955 1171.22 471.565 1116.02 425.395 1104.64C359.983 1088.51 338.554 1118.57 321.527 1014.45C315.749 979.097 295.762 944.733 263.089 928.178C239.589 916.278 210.721 914.721 186.689 925.524C173.319 931.535 161.821 940.977 149.107 948.268C136.393 955.559 121.353 960.745 107.165 957.068C93.502 953.528 83.091 942.397 75.478 930.509C57.171 901.921 51.134 866.575 30.191 839.555C12.539 816.78 -16.171 797.855 -45.227 795.147C-83.26 791.607 -118.508 813.99 -147.512 836.013C-181.526 861.841 -210.039 894.627 -232.253 931.03C-260.71 977.663 -278.989 1030.09 -289.275 1083.74C-298.433 1131.51 -301.339 1180.94 -292.446 1228.76C-278.383 1304.38 -224.72 1401.39 -134.192 1386.7C-25.199 1369.01 -43.616 1253.84 23.898 1324.93C64.298 1367.46 155.725 1409.81 213.045 1300.76C270.365 1191.71 372.862 1333.67 456.135 1237.79Z" fill="white"/>
</mask>
<g mask="url(#mask1_2_764)">
<path d="M130.936 1256.28C106.909 1251.63 84.8359 1236.33 73.3619 1214.71C66.9759 1202.69 63.9169 1189.21 58.7379 1176.62C53.5589 1164.02 45.481 1151.65 32.975 1146.26C22.659 1141.82 10.919 1142.83 -0.000976562 1145.96V863.995H290.686C306.092 883.744 313.822 912.822 306.431 954.357C296.922 1007.79 327.025 1025.59 361.998 1042.09V1223.24C358.078 1222.21 354.248 1220.87 350.544 1219.23C293.36 1193.8 294.758 1159.54 222.955 1226.25C202.655 1245.12 175.505 1257.87 147.7 1257.87C142.074 1257.87 136.46 1257.34 130.936 1256.28Z" fill="url(#paint2_linear_2_764)"/>
<path d="M248.92 1135.73C217.645 1149.12 179.92 1150.63 149.995 1132.89C128.472 1120.13 112.511 1097.79 108.915 1073.02C106.915 1059.25 108.621 1045.22 107.982 1031.31C107.343 1017.41 103.832 1002.71 93.654 993.212C83.854 984.068 69.623 981.401 56.218 981.362C41.689 981.32 27.332 983.972 12.983 986.625C8.65597 987.425 4.32994 988.225 -6.10352e-05 988.951V720H308.285C312.155 728.258 322.92 734.43 345.985 738.939C351.398 740.006 356.746 741.383 362.001 743.063V1160.27C329.446 1123.06 331.93 1100.19 248.92 1135.73Z" fill="url(#paint3_linear_2_764)"/>
</g>
<defs>
<linearGradient id="paint0_linear_2_764" x1="1162.21" y1="518.199" x2="1142.73" y2="356.772" gradientUnits="userSpaceOnUse">
<stop stop-color="#228BC5"/>
<stop offset="1" stop-color="#1E2369"/>
</linearGradient>
<linearGradient id="paint1_linear_2_764" x1="1174.04" y1="431.294" x2="1157.53" y2="272.103" gradientUnits="userSpaceOnUse">
<stop stop-color="#1FA6B2"/>
<stop offset="1" stop-color="#2A8B4B"/>
</linearGradient>
<linearGradient id="paint2_linear_2_764" x1="134.301" y1="1240.93" x2="193.745" y2="1119.44" gradientUnits="userSpaceOnUse">
<stop stop-color="#FEE00A"/>
<stop offset="1" stop-color="#CE286F"/>
</linearGradient>
<linearGradient id="paint3_linear_2_764" x1="127.424" y1="1161.15" x2="216.602" y2="1017.31" gradientUnits="userSpaceOnUse">
<stop stop-color="#EA7A15"/>
<stop offset="1" stop-color="#D82B1B"/>
</linearGradient>
</defs>
</svg>
