<svg width="140" height="140" viewBox="0 0 140 140" fill="none" xmlns="http://www.w3.org/2000/svg">
<path d="M69.9999 140C108.66 140 140 108.66 140 70C140 31.3401 108.66 0 69.9999 0C31.34 0 -6.10352e-05 31.3401 -6.10352e-05 70C-6.10352e-05 108.66 31.34 140 69.9999 140Z" fill="white"/>
<path d="M108 70C108 77.5157 105.771 84.8626 101.596 91.1117C97.4203 97.3607 91.4855 102.231 84.5419 105.107C77.5983 107.984 69.9578 108.736 62.5865 107.27C55.2152 105.804 48.4443 102.184 43.1299 96.8701C37.8155 91.5557 34.1964 84.7847 32.7301 77.4134C31.2639 70.0422 32.0164 62.4016 34.8925 55.458C37.7687 48.5144 42.6392 42.5796 48.8883 38.4042C55.1374 34.2287 62.4843 32 70 32C80.0782 32 89.7436 36.0036 96.87 43.1299C103.996 50.2563 108 59.9218 108 70Z" fill="#1E2369"/>
<path d="M100.276 70.0001C100.276 75.9884 98.5002 81.8422 95.1733 86.8213C91.8464 91.8003 87.1177 95.681 81.5852 97.9725C76.0528 100.264 69.965 100.864 64.0918 99.6953C58.2186 98.527 52.8238 95.6433 48.5895 91.4089C44.3552 87.1745 41.4717 81.7795 40.3036 75.9063C39.1354 70.0331 39.7352 63.9453 42.0269 58.4129C44.3187 52.8806 48.1995 48.152 53.1787 44.8253C58.1578 41.4985 64.0117 39.7229 69.9999 39.7231C78.0297 39.7234 85.7305 42.9134 91.4084 48.5914C97.0862 54.2694 100.276 61.9704 100.276 70.0001Z" fill="#F4F4F4"/>
<path d="M72.4709 69.9998H67.5279V50.2279C67.5279 49.5724 67.7883 48.9437 68.2518 48.4802C68.7153 48.0167 69.3439 47.7563 69.9994 47.7563C70.6549 47.7563 71.2835 48.0167 71.747 48.4802C72.2105 48.9437 72.4709 49.5724 72.4709 50.2279V69.9998Z" fill="black"/>
<path d="M68.2529 71.748L71.7529 68.248L82.4529 78.948C82.9171 79.4122 83.1778 80.0417 83.1778 80.698C83.1778 81.3544 82.9171 81.9839 82.4529 82.448C81.9888 82.9122 81.3593 83.1729 80.7029 83.1729C80.0465 83.1729 79.4171 82.9122 78.9529 82.448L68.2529 71.748Z" fill="black"/>
<path d="M54.2439 86.9149C54.0149 86.9147 53.791 86.8466 53.6006 86.7192C53.4102 86.5918 53.2618 86.4109 53.1742 86.1992C53.0865 85.9876 53.0636 85.7547 53.1082 85.5301C53.1528 85.3054 53.263 85.099 53.4249 84.9369L66.1179 72.2439C66.2255 72.1363 66.3533 72.051 66.4939 71.9928C66.6345 71.9346 66.7851 71.9047 66.9373 71.9048C67.0894 71.9048 67.2401 71.9348 67.3806 71.9931C67.5212 72.0514 67.6489 72.1368 67.7564 72.2444C67.864 72.352 67.9493 72.4797 68.0075 72.6203C68.0656 72.7609 68.0956 72.9116 68.0955 73.0637C68.0955 73.2159 68.0655 73.3665 68.0072 73.5071C67.9489 73.6476 67.8635 73.7753 67.7559 73.8829L55.0629 86.5729C54.9557 86.6811 54.8282 86.7671 54.6876 86.8258C54.5471 86.8845 54.3963 86.9148 54.2439 86.9149Z" fill="#D82B1B"/>
<path d="M71.1579 39.7451V42.8121C71.1625 42.9671 71.1359 43.1215 71.0797 43.266C71.0235 43.4106 70.9389 43.5424 70.8309 43.6536C70.7229 43.7648 70.5936 43.8533 70.4508 43.9137C70.308 43.9741 70.1545 44.0052 69.9994 44.0052C69.8443 44.0052 69.6909 43.9741 69.548 43.9137C69.4052 43.8533 69.276 43.7648 69.1679 43.6536C69.0599 43.5424 68.9753 43.4106 68.9191 43.266C68.863 43.1215 68.8364 42.9671 68.8409 42.8121V39.7451C69.2249 39.7311 69.6119 39.7231 69.9999 39.7231C70.3879 39.7231 70.7739 39.7311 71.1579 39.7451Z" fill="#717171"/>
<path d="M56.9849 47.4574C56.8096 47.56 56.6101 47.6139 56.4069 47.6133C56.2032 47.6137 56.0029 47.5604 55.8263 47.4587C55.6497 47.3571 55.503 47.2107 55.4009 47.0344L53.8659 44.3764C54.5179 43.9637 55.1869 43.5764 55.8729 43.2144L57.4099 45.8754C57.4861 46.0071 57.5355 46.1526 57.5553 46.3034C57.5752 46.4543 57.5651 46.6076 57.5256 46.7545C57.4861 46.9015 57.418 47.0392 57.3253 47.1598C57.2325 47.2804 57.1168 47.3815 56.9849 47.4574Z" fill="#717171"/>
<path d="M47.4569 56.9852C47.3032 57.251 47.0503 57.445 46.7538 57.5247C46.4572 57.6044 46.1412 57.5632 45.8749 57.4102L43.2139 55.8732C43.5766 55.1872 43.9639 54.5182 44.3759 53.8662L47.0349 55.4012C47.1668 55.4774 47.2823 55.5788 47.3748 55.6997C47.4674 55.8206 47.5352 55.9586 47.5744 56.1057C47.6136 56.2528 47.6234 56.4062 47.6033 56.5572C47.5831 56.7081 47.5334 56.8535 47.4569 56.9852Z" fill="#717171"/>
<path d="M43.9709 70.0003C43.9709 70.3077 43.8488 70.6025 43.6315 70.8198C43.4141 71.0372 43.1193 71.1593 42.8119 71.1593H39.7449C39.7309 70.7753 39.7229 70.3883 39.7229 70.0003C39.7229 69.6123 39.7309 69.2263 39.7449 68.8413H42.8119C42.9641 68.8413 43.1148 68.8713 43.2555 68.9295C43.3961 68.9878 43.5238 69.0731 43.6315 69.1808C43.7391 69.2884 43.8245 69.4162 43.8827 69.5568C43.941 69.6974 43.9709 69.8481 43.9709 70.0003Z" fill="#717171"/>
<path d="M47.0339 84.5973L44.3759 86.1323C43.9633 85.4803 43.5759 84.8117 43.2139 84.1263L45.8749 82.5893C46.1412 82.4356 46.4576 82.394 46.7546 82.4736C47.0516 82.5532 47.3047 82.7475 47.4584 83.0138C47.6121 83.2801 47.6537 83.5965 47.5741 83.8935C47.4945 84.1904 47.3002 84.4436 47.0339 84.5973Z" fill="#717171"/>
<path d="M57.4099 94.124L55.8729 96.785C55.1876 96.4224 54.5189 96.035 53.8669 95.623L55.4019 92.964C55.5556 92.6978 55.8088 92.5034 56.1058 92.4238C56.4027 92.3442 56.7192 92.3858 56.9854 92.5395C57.2517 92.6932 57.446 92.9464 57.5257 93.2434C57.6053 93.5403 57.5636 93.8577 57.4099 94.124Z" fill="#717171"/>
<path d="M71.1579 97.186V100.254C70.7739 100.268 70.3869 100.276 69.9989 100.276C69.6109 100.276 69.2249 100.268 68.8399 100.254V97.186C68.8488 96.8846 68.9747 96.5986 69.191 96.3885C69.4073 96.1785 69.6969 96.061 69.9984 96.061C70.2999 96.061 70.5896 96.1785 70.8058 96.3885C71.0221 96.5986 71.1491 96.8846 71.1579 97.186Z" fill="#717171"/>
<path d="M86.1329 95.623C85.4809 96.0356 84.8123 96.4229 84.1269 96.7849L82.5899 94.1239C82.4362 93.8575 82.3947 93.541 82.4744 93.2439C82.5541 92.9469 82.7485 92.6936 83.0149 92.54C83.2813 92.3863 83.5979 92.3447 83.895 92.4244C84.192 92.5041 84.4452 92.6985 84.5989 92.9649L86.1329 95.623Z" fill="#717171"/>
<path d="M96.7849 84.1263C96.4223 84.8123 96.0349 85.481 95.6229 86.1323L92.9649 84.5973C92.8331 84.5212 92.7175 84.4199 92.6249 84.2991C92.5322 84.1784 92.4642 84.0405 92.4247 83.8935C92.3853 83.7464 92.3752 83.5931 92.3951 83.4422C92.4149 83.2912 92.4643 83.1457 92.5404 83.0138C92.6165 82.882 92.7179 82.7664 92.8386 82.6737C92.9594 82.581 93.0972 82.513 93.2443 82.4736C93.3913 82.4342 93.5447 82.4241 93.6956 82.444C93.8466 82.4638 93.9921 82.5132 94.1239 82.5893L96.7849 84.1263Z" fill="#717171"/>
<path d="M100.28 70.0003C100.28 70.3883 100.272 70.7743 100.258 71.1593H97.1899C97.0349 71.1639 96.8806 71.1373 96.7361 71.0811C96.5915 71.0249 96.4597 70.9403 96.3485 70.8323C96.2372 70.7243 96.1488 70.595 96.0884 70.4522C96.028 70.3094 95.9969 70.1559 95.9969 70.0008C95.9969 69.8457 96.028 69.6922 96.0884 69.5494C96.1488 69.4066 96.2372 69.2773 96.3485 69.1693C96.4597 69.0613 96.5915 68.9767 96.7361 68.9205C96.8806 68.8643 97.0349 68.8377 97.1899 68.8423H100.258C100.268 69.2263 100.28 69.6123 100.28 70.0003Z" fill="#717171"/>
<path d="M96.785 55.8732L94.1239 57.4102C93.8577 57.5639 93.5412 57.6055 93.2443 57.5259C92.9473 57.4463 92.6941 57.252 92.5404 56.9857C92.3868 56.7194 92.3451 56.403 92.4247 56.106C92.5043 55.8091 92.6987 55.5559 92.9649 55.4022L95.6229 53.8672C96.0363 54.5185 96.4236 55.1872 96.785 55.8732Z" fill="#717171"/>
<path d="M86.1319 44.3764L84.5969 47.0344C84.4952 47.2108 84.3487 47.3572 84.1722 47.4589C83.9958 47.5605 83.7956 47.6138 83.5919 47.6133C83.3888 47.6139 83.1892 47.5601 83.0139 47.4574C82.882 47.3815 82.7664 47.2804 82.6736 47.1598C82.5808 47.0392 82.5127 46.9015 82.4733 46.7545C82.4338 46.6076 82.4237 46.4543 82.4435 46.3034C82.4634 46.1526 82.5128 46.0071 82.5889 45.8754L84.1259 43.2144C84.8119 43.5804 85.4806 43.9677 86.1319 44.3764Z" fill="#717171"/>
<path d="M74.6339 70.0002C74.6339 70.9167 74.3622 71.8127 73.853 72.5747C73.3438 73.3368 72.62 73.9307 71.7733 74.2815C70.9265 74.6322 69.9948 74.724 69.0959 74.5452C68.197 74.3664 67.3713 73.925 66.7232 73.2769C66.0751 72.6289 65.6338 71.8032 65.455 70.9043C65.2762 70.0053 65.3679 69.0736 65.7187 68.2269C66.0694 67.3801 66.6634 66.6564 67.4254 66.1472C68.1875 65.638 69.0834 65.3662 69.9999 65.3662C71.2289 65.3662 72.4076 65.8544 73.2767 66.7235C74.1457 67.5925 74.6339 68.7712 74.6339 70.0002Z" fill="#1E2369"/>
</svg>
