<svg width="140" height="140" viewBox="0 0 140 140" fill="none" xmlns="http://www.w3.org/2000/svg">
<path d="M69.9999 0C83.8446 0 97.3784 4.10543 108.89 11.7971C120.401 19.4888 129.373 30.4213 134.672 43.2122C139.97 56.003 141.356 70.0777 138.655 83.6563C135.954 97.235 129.287 109.708 119.497 119.497C109.708 129.287 97.2349 135.954 83.6563 138.655C70.0776 141.356 56.0029 139.97 43.2121 134.672C30.4213 129.373 19.4888 120.401 11.7971 108.89C4.10537 97.3785 -6.10352e-05 83.8447 -6.10352e-05 70C-6.10352e-05 51.4348 7.37492 33.6301 20.5025 20.5025C33.63 7.37498 51.4348 0 69.9999 0Z" fill="white"/>
<path d="M96.4119 33.67C96.4096 32.9626 96.1275 32.2849 95.6273 31.7846C95.1271 31.2844 94.4493 31.0024 93.7419 31H52.3549V44.35C52.3549 45.0581 52.0736 45.7373 51.5729 46.238C51.0722 46.7387 50.3931 47.02 49.6849 47.02H34.9999V105.762C35.0023 106.469 35.2844 107.147 35.7846 107.647C36.2848 108.148 36.9625 108.43 37.6699 108.432H93.7419C94.4493 108.43 95.1271 108.148 95.6273 107.647C96.1275 107.147 96.4096 106.469 96.4119 105.762V33.67Z" fill="#F4F4F4"/>
<path d="M55.4569 101.328L57.3439 88.1118L65.8439 90.9438L68.6769 99.4438L55.4569 101.328Z" fill="#717171"/>
<path d="M85.666 59.7911L89.442 56.0151L100.77 67.3431L96.9949 71.1171L85.666 59.7911Z" fill="#717171"/>
<path d="M96.1369 51.8268C95.6852 51.8712 95.2384 51.9563 94.8019 52.0808C93.4897 52.4544 92.2949 53.1573 91.3309 54.1228L89.4489 56.0228L100.77 67.3438L102.652 65.4608C103.824 64.2894 104.605 62.783 104.885 61.1494C105.166 59.5158 104.932 57.8355 104.218 56.34C103.503 54.8446 102.342 53.6077 100.895 52.7999C99.4472 51.9921 97.785 51.6531 96.1369 51.8298V51.8268Z" fill="#717171"/>
<path d="M85.672 59.7832L57.3419 88.1122L64.9039 91.8852L66.6039 95.2942L68.679 99.4322L96.1389 71.9732L96.9939 71.1182L94.8019 68.9262L85.672 59.7832Z" fill="#FEE00A"/>
<path d="M52.3549 44.35V31L34.9999 47.02H49.6849C50.3931 47.02 51.0722 46.7387 51.5729 46.238C52.0736 45.7373 52.3549 45.0581 52.3549 44.35Z" fill="#EA7A15"/>
<path d="M68.4779 89.6421C68.2137 89.6423 67.9553 89.564 67.7356 89.4173C67.5158 89.2706 67.3445 89.0619 67.2434 88.8178C67.1424 88.5736 67.116 88.3049 67.1677 88.0458C67.2194 87.7867 67.3469 87.5487 67.5339 87.3621L81.8599 73.0401C81.9801 72.9019 82.1273 72.79 82.2925 72.7112C82.4577 72.6323 82.6374 72.5883 82.8203 72.5819C83.0033 72.5754 83.1856 72.6067 83.3559 72.6737C83.5263 72.7407 83.681 72.842 83.8106 72.9713C83.9401 73.1007 84.0417 73.2552 84.1089 73.4255C84.1762 73.5957 84.2077 73.778 84.2016 73.9609C84.1954 74.1439 84.1517 74.3236 84.0732 74.489C83.9946 74.6543 83.8829 74.8017 83.7449 74.9221L69.4209 89.251C69.1708 89.5012 68.8317 89.6418 68.4779 89.6421Z" fill="#F1F2F2"/>
<path d="M86.5759 71.5429C86.3119 71.5429 86.0538 71.4646 85.8342 71.3179C85.6147 71.1712 85.4436 70.9627 85.3425 70.7188C85.2415 70.4748 85.215 70.2064 85.2666 69.9474C85.3181 69.6885 85.4452 69.4506 85.6319 69.2639L87.5199 67.3759C87.7703 67.1255 88.1099 66.9849 88.4639 66.9849C88.818 66.9849 89.1576 67.1255 89.4079 67.3759C89.6583 67.6262 89.7989 67.9658 89.7989 68.3199C89.7989 68.674 89.6583 69.0135 89.4079 69.2639L87.5199 71.1519C87.3962 71.2762 87.2491 71.3748 87.0871 71.4419C86.925 71.509 86.7513 71.5433 86.5759 71.5429Z" fill="#F1F2F2"/>
<path d="M72.381 67.046H44.3449C43.9909 67.046 43.6513 66.9053 43.401 66.655C43.1506 66.4046 43.0099 66.065 43.0099 65.711C43.0099 65.3569 43.1506 65.0173 43.401 64.767C43.6513 64.5166 43.9909 64.376 44.3449 64.376H72.381C72.735 64.376 73.0746 64.5166 73.3249 64.767C73.5753 65.0173 73.716 65.3569 73.716 65.711C73.716 66.065 73.5753 66.4046 73.3249 66.655C73.0746 66.9053 72.735 67.046 72.381 67.046Z" fill="#EA7A15"/>
<path d="M64.3709 75.0562H44.3449C43.9909 75.0562 43.6513 74.9156 43.401 74.6652C43.1506 74.4149 43.0099 74.0753 43.0099 73.7212C43.0099 73.3672 43.1506 73.0276 43.401 72.7772C43.6513 72.5269 43.9909 72.3862 44.3449 72.3862H64.3709C64.725 72.3862 65.0646 72.5269 65.3149 72.7772C65.5653 73.0276 65.7059 73.3672 65.7059 73.7212C65.7059 74.0753 65.5653 74.4149 65.3149 74.6652C65.0646 74.9156 64.725 75.0562 64.3709 75.0562Z" fill="#EA7A15"/>
<path d="M56.3599 83.066H44.3449C43.9909 83.066 43.6513 82.9253 43.401 82.675C43.1506 82.4246 43.0099 82.0851 43.0099 81.731C43.0099 81.3769 43.1506 81.0374 43.401 80.787C43.6513 80.5367 43.9909 80.396 44.3449 80.396H56.3599C56.714 80.396 57.0536 80.5367 57.3039 80.787C57.5543 81.0374 57.695 81.3769 57.695 81.731C57.695 82.0851 57.5543 82.4246 57.3039 82.675C57.0536 82.9253 56.714 83.066 56.3599 83.066Z" fill="#EA7A15"/>
<path d="M80.3909 59.0362H55.0259C54.8506 59.0362 54.677 59.0017 54.5151 58.9346C54.3531 58.8675 54.2059 58.7692 54.082 58.6452C53.958 58.5212 53.8597 58.3741 53.7926 58.2121C53.7255 58.0501 53.6909 57.8765 53.6909 57.7012C53.6909 57.5259 53.7255 57.3523 53.7926 57.1903C53.8597 57.0284 53.958 56.8812 54.082 56.7572C54.2059 56.6333 54.3531 56.5349 54.5151 56.4678C54.677 56.4007 54.8506 56.3662 55.0259 56.3662H80.3909C80.5663 56.3662 80.7399 56.4007 80.9018 56.4678C81.0638 56.5349 81.211 56.6333 81.3349 56.7572C81.4589 56.8812 81.5572 57.0284 81.6243 57.1903C81.6914 57.3523 81.726 57.5259 81.726 57.7012C81.726 57.8765 81.6914 58.0501 81.6243 58.2121C81.5572 58.3741 81.4589 58.5212 81.3349 58.6452C81.211 58.7692 81.0638 58.8675 80.9018 58.9346C80.7399 59.0017 80.5663 59.0362 80.3909 59.0362Z" fill="#EA7A15"/>
<path d="M49.6849 59.0362H44.3449C44.1696 59.0362 43.996 59.0017 43.8341 58.9346C43.6721 58.8675 43.5249 58.7692 43.401 58.6452C43.277 58.5212 43.1787 58.3741 43.1116 58.2121C43.0445 58.0501 43.0099 57.8765 43.0099 57.7012C43.0099 57.5259 43.0445 57.3523 43.1116 57.1903C43.1787 57.0284 43.277 56.8812 43.401 56.7572C43.5249 56.6333 43.6721 56.5349 43.8341 56.4678C43.996 56.4007 44.1696 56.3662 44.3449 56.3662H49.6849C49.8603 56.3662 50.0339 56.4007 50.1958 56.4678C50.3578 56.5349 50.505 56.6333 50.6289 56.7572C50.7529 56.8812 50.8512 57.0284 50.9183 57.1903C50.9854 57.3523 51.0199 57.5259 51.0199 57.7012C51.0199 57.8765 50.9854 58.0501 50.9183 58.2121C50.8512 58.3741 50.7529 58.5212 50.6289 58.6452C50.505 58.7692 50.3578 58.8675 50.1958 58.9346C50.0339 59.0017 49.8603 59.0362 49.6849 59.0362Z" fill="#EA7A15"/>
</svg>
