<svg width="140" height="140" viewBox="0 0 140 140" fill="none" xmlns="http://www.w3.org/2000/svg">
<path d="M69.9999 140C108.66 140 140 108.66 140 70C140 31.3401 108.66 0 69.9999 0C31.34 0 -6.10352e-05 31.3401 -6.10352e-05 70C-6.10352e-05 108.66 31.34 140 69.9999 140Z" fill="white"/>
<path d="M84.3499 51.625C83.793 49.4888 82.9699 47.431 81.8999 45.5L83.9999 40.6L76.6499 33.425L71.7499 35.525C69.833 34.4257 67.7712 33.601 65.6249 33.075L63.8779 28H53.5499L51.6249 33.075C49.4887 33.6319 47.4309 34.455 45.4999 35.525L40.5999 33.425L33.4249 40.6L35.5249 45.5C34.4267 47.4171 33.603 49.4789 33.0779 51.625L27.9999 53.55V63.875L33.0779 65.8C33.6349 67.9362 34.458 69.994 35.5279 71.925L33.4279 76.825L40.7779 84L45.6779 81.9C47.5949 82.9993 49.6567 83.824 51.8029 84.35L53.7279 89.425H63.8779L65.8029 84.35C67.9392 83.7931 69.9969 82.97 71.9279 81.9L76.8279 84L84.1779 76.825L82.0779 71.925C83.1772 70.008 84.0019 67.9463 84.5279 65.8L89.6029 63.875V53.55L84.3499 51.625ZM58.6249 71.225C56.1329 71.225 53.6968 70.486 51.6248 69.1015C49.5527 67.717 47.9377 65.7492 46.9841 63.4468C46.0304 61.1445 45.7809 58.611 46.267 56.1669C46.7532 53.7227 47.9533 51.4776 49.7154 49.7155C51.4775 47.9533 53.7226 46.7533 56.1668 46.2671C58.611 45.7809 61.1444 46.0305 63.4468 46.9841C65.7491 47.9378 67.7169 49.5528 69.1015 51.6248C70.486 53.6969 71.2249 56.133 71.2249 58.625C71.2318 60.2816 70.9106 61.9231 70.2798 63.4549C69.6491 64.9867 68.7212 66.3785 67.5498 67.5499C66.3784 68.7213 64.9867 69.6491 63.4549 70.2799C61.9231 70.9107 60.2815 71.2319 58.6249 71.225Z" fill="#1FA6B2"/>
<path d="M67.5499 67.5502C66.3917 68.7148 65.0146 69.639 63.498 70.2697C61.9813 70.9003 60.355 71.225 58.7124 71.225C57.0699 71.225 55.4436 70.9003 53.9269 70.2697C52.4103 69.639 51.0332 68.7148 49.8749 67.5502L45.325 72.1002C48.8814 75.6228 53.6881 77.5937 58.6937 77.5817C63.6994 77.5697 68.4966 75.576 72.0362 72.0364C75.5757 68.4969 77.5695 63.6996 77.5815 58.694C77.5934 53.6883 75.6226 48.8816 72.1 45.3252L67.5499 49.8752C68.7147 51.0334 69.639 52.4104 70.2698 53.9271C70.9005 55.4437 71.2252 57.0701 71.2252 58.7127C71.2252 60.3553 70.9005 61.9817 70.2698 63.4983C69.639 65.015 68.7147 66.392 67.5499 67.5502Z" fill="#1E2369"/>
<path d="M45.324 45.3242C41.7927 48.885 39.8112 53.6968 39.8112 58.7117C39.8112 63.7266 41.7927 68.5384 45.324 72.0992L49.8739 67.5492C47.597 65.1917 46.337 62.0342 46.3655 58.7567C46.394 55.4793 47.7086 52.3441 50.0262 50.0265C52.3438 47.7089 55.479 46.3943 58.7564 46.3658C62.0339 46.3373 65.1914 47.5973 67.549 49.8742L72.0989 45.3242C68.5382 41.7929 63.7264 39.8115 58.7114 39.8115C53.6965 39.8115 48.8847 41.7929 45.324 45.3242Z" fill="#1E2369"/>
<path d="M87.325 99.7501C87.5 98.7661 87.5 97.759 87.325 96.7751L89.075 95.0251L87.325 90.6501H84.8749C84.2194 89.907 83.5181 89.2056 82.7749 88.5501V86.1001L78.3999 84.3501L76.6499 86.1001C75.666 85.9252 74.6589 85.9252 73.6749 86.1001L71.9249 84.3501L67.5499 86.1001V88.5501C66.8068 89.2056 66.1055 89.907 65.45 90.6501H62.9969L61.2469 95.0251L62.9969 96.7751C62.8219 97.759 62.8219 98.7661 62.9969 99.7501L61.2469 101.5L62.9969 105.875H65.4469C66.1025 106.618 66.8038 107.32 67.547 107.975V110.425L71.922 112.175L73.672 110.425C74.6559 110.6 75.663 110.6 76.6469 110.425L78.3969 112.175L82.7719 110.425V107.975C83.515 107.32 84.2164 106.618 84.8719 105.875H87.3219L89.0719 101.5L87.325 99.7501ZM73.325 103.425C72.2867 103.01 71.395 102.296 70.7625 101.374C70.13 100.451 69.7852 99.3625 69.7716 98.2444C69.758 97.1262 70.0763 96.0292 70.6862 95.0919C71.296 94.1547 72.1702 93.4193 73.198 92.9788C74.2258 92.5383 75.3611 92.4125 76.4604 92.6172C77.5597 92.822 78.5737 93.3481 79.374 94.1291C80.1743 94.91 80.725 95.9108 80.9566 97.0048C81.1882 98.0987 81.0902 99.2368 80.6749 100.275C80.4052 100.969 79.9997 101.602 79.4823 102.138C78.9648 102.673 78.3458 103.1 77.6614 103.393C76.977 103.687 76.2409 103.841 75.4964 103.846C74.7518 103.851 74.0136 103.708 73.325 103.425Z" fill="#228BC5"/>
<path d="M110.25 76.8248C110.425 75.8409 110.425 74.8337 110.25 73.8498L112 72.0998L110.25 67.7248H107.8C107.144 66.9817 106.443 66.2803 105.7 65.6248V63.1748L101.325 61.4248L99.575 63.1748C98.591 62.9998 97.5839 62.9998 96.5999 63.1748L94.8499 61.4248L90.4749 63.1748V65.6248C89.7318 66.2803 89.0305 66.9817 88.3749 67.7248H85.9249L84.1749 72.0998L85.9249 73.8498C85.7499 74.8338 85.7499 75.8409 85.9249 76.8248L84.1749 78.5748L85.9249 82.9498H88.3749C89.0305 83.6929 89.7318 84.3943 90.4749 85.0498V87.4998L94.8499 89.2498L96.5999 87.4998C97.5839 87.6748 98.591 87.6748 99.575 87.4998L101.325 89.2498L105.7 87.4998V85.0488C106.443 84.3933 107.144 83.6919 107.8 82.9488H110.25L112 78.5738L110.25 76.8248ZM96.075 80.6748C95.0367 80.2594 94.145 79.5455 93.5125 78.6234C92.88 77.7012 92.5352 76.6122 92.5216 75.4941C92.508 74.3759 92.8263 73.2789 93.4362 72.3416C94.046 71.4044 94.9201 70.669 95.9479 70.2285C96.9757 69.788 98.1111 69.6622 99.2104 69.8669C100.31 70.0717 101.324 70.5978 102.124 71.3788C102.924 72.1597 103.475 73.1605 103.707 74.2545C103.938 75.3484 103.84 76.4865 103.425 77.5248C103.169 78.2292 102.772 78.8737 102.257 79.4184C101.742 79.9632 101.121 80.3965 100.432 80.6917C99.7433 80.987 99.0012 81.1378 98.2518 81.1349C97.5024 81.132 96.7615 80.9754 96.075 80.6748Z" fill="#D82B1B"/>
</svg>
