<svg width="379" height="526" viewBox="0 0 379 526" fill="none" xmlns="http://www.w3.org/2000/svg">
<path d="M-0.085083 102.913C16.5528 112.507 29.8535 126.966 38.0279 144.346C55.6019 182.796 65.7069 169.713 88.3559 156.634C102.863 148.254 122.516 139.875 152.577 145.034C216.528 156.018 230.13 233.263 222.153 287.092C217.11 321.129 203.799 353.539 186.691 383.392C167.475 416.927 143.191 447.801 113.428 472.461C90.1949 491.713 63.5799 507.096 34.8819 516.559C23.8389 520.2 11.9269 523.597 -0.085083 525.207V102.913Z" fill="#F4F4F4"/>
<mask id="mask0_2_18" style="mask-type:luminance" maskUnits="userSpaceOnUse" x="-96" y="130" width="417" height="351">
<path d="M319.293 216.407C326.102 167.749 289.539 154.818 264.509 163.514C229.049 175.835 228.16 196.386 188.596 152.899C175.166 138.134 155.395 128.142 135.102 130.325C120.507 131.896 106.546 139.932 98.5979 152.274C94.1745 159.141 91.6685 167.043 87.94 174.31C84.2114 181.577 78.7579 188.565 71.0115 191.153C63.5519 193.645 55.309 191.604 48.1432 188.36C30.9073 180.56 17.3602 165.874 -0.627559 159.605C-15.7891 154.32 -34.9509 154.19 -49.3498 161.746C-68.197 171.636 -77.8738 192.795 -84.742 211.89C-92.661 234.392 -96.3098 258.174 -95.5009 282.015C-94.6429 312.444 -87.2708 342.491 -75.7922 370.684C-65.5741 395.781 -51.9237 419.768 -33.2543 439.412C-3.72334 470.478 50.796 499.521 88.6405 465.178C134.204 423.83 90.6394 375.604 143.767 388.329C175.555 395.938 231.132 387.976 224.813 319.621C218.493 251.267 309.482 286.484 319.293 216.407Z" fill="white"/>
</mask>
<g mask="url(#mask0_2_18)">
<path d="M66.791 108.727C89.4762 88.5424 138.472 70.6665 163.304 129.401C188.135 188.135 247.164 119.368 285.954 172.435C312.889 209.284 288.627 235.918 264.317 239.785C229.879 245.262 220.13 228.826 206.828 281.796C202.312 299.78 190.512 316.636 172.941 323.757C160.303 328.878 145.344 328.425 133.42 321.809C126.784 318.126 121.268 312.762 115.024 308.447C108.78 304.131 101.25 300.804 93.7722 302.083C86.5707 303.317 80.7167 308.607 76.2739 314.405C65.5883 328.356 60.9421 346.326 48.965 359.354C38.8712 370.336 23.243 378.851 8.13676 378.985C5.35394 379.008 2.57467 378.776 -0.166072 378.294L-0.205609 74.0426C41.4213 92.5187 31.8683 139.801 66.791 108.727Z" fill="url(#paint0_linear_2_18)"/>
<path d="M84.5691 0.9051C88.4665 17.2578 90.6998 27.0856 116.395 16.7306C145.193 5.12748 198.518 4.82454 202.159 69.9239C205.8 135.023 286.336 89.1925 305.366 153.649C318.58 198.406 286.042 215.674 261.308 211.01C226.272 204.402 222.558 185.22 191.485 231.614C180.934 247.365 163.765 259.523 144.391 260.313C130.461 260.883 116.221 255.286 107.024 244.807C101.909 238.976 98.4465 231.902 93.9271 225.6C89.4076 219.298 83.3051 213.492 75.6663 212.144C68.3111 210.847 60.8512 213.92 54.5752 217.971C47.7743 222.361 41.8705 227.96 35.971 233.554C28.7759 240.375 21.5868 247.193 12.7868 251.815C8.65809 253.967 4.30982 255.669 -0.182825 256.891L-0.214402 0.915901L84.5691 0.9051Z" fill="url(#paint1_linear_2_18)"/>
</g>
<defs>
<linearGradient id="paint0_linear_2_18" x1="129.217" y1="337.598" x2="107.105" y2="231.336" gradientUnits="userSpaceOnUse">
<stop stop-color="#228BC5"/>
<stop offset="1" stop-color="#1E2369"/>
</linearGradient>
<linearGradient id="paint1_linear_2_18" x1="156.325" y1="294.208" x2="145.129" y2="162.841" gradientUnits="userSpaceOnUse">
<stop stop-color="#1FA6B2"/>
<stop offset="1" stop-color="#2A8B4B"/>
</linearGradient>
</defs>
</svg>
