<svg width="369" height="45" viewBox="0 0 369 45" fill="none" xmlns="http://www.w3.org/2000/svg">
<path d="M365 0.708984H4C1.79086 0.708984 0 2.49985 0 4.70898V40.709C0 42.9181 1.79086 44.709 4 44.709H365C367.209 44.709 369 42.9181 369 40.709V4.70898C369 2.49985 367.209 0.708984 365 0.708984Z" fill="#FCFCFC"/>
<path d="M365 1.20898H4C2.067 1.20898 0.5 2.77599 0.5 4.70898V40.709C0.5 42.642 2.067 44.209 4 44.209H365C366.933 44.209 368.5 42.642 368.5 40.709V4.70898C368.5 2.77599 366.933 1.20898 365 1.20898Z" stroke="#D7DAE2"/>
</svg>
