<svg width="375" height="45" viewBox="0 0 375 45" fill="none" xmlns="http://www.w3.org/2000/svg">
<path d="M371 0.708984H4C1.79086 0.708984 0 2.49985 0 4.70898V40.709C0 42.9181 1.79086 44.709 4 44.709H371C373.209 44.709 375 42.9181 375 40.709V4.70898C375 2.49985 373.209 0.708984 371 0.708984Z" fill="#FCFCFC"/>
<path d="M371 1.20898H4C2.067 1.20898 0.5 2.77599 0.5 4.70898V40.709C0.5 42.642 2.067 44.209 4 44.209H371C372.933 44.209 374.5 42.642 374.5 40.709V4.70898C374.5 2.77599 372.933 1.20898 371 1.20898Z" stroke="#D7DAE2"/>
</svg>
