<svg width="760" height="141" viewBox="0 0 760 141" fill="none" xmlns="http://www.w3.org/2000/svg">
<path d="M756 0.708984H4C1.79086 0.708984 0 2.49985 0 4.70898V136.709C0 138.918 1.79086 140.709 4 140.709H756C758.209 140.709 760 138.918 760 136.709V4.70898C760 2.49985 758.209 0.708984 756 0.708984Z" fill="#FCFCFC"/>
<path d="M756 1.20898H4C2.067 1.20898 0.5 2.77599 0.5 4.70898V136.709C0.5 138.642 2.067 140.209 4 140.209H756C757.933 140.209 759.5 138.642 759.5 136.709V4.70898C759.5 2.77599 757.933 1.20898 756 1.20898Z" stroke="#D7DAE2"/>
</svg>
